<?xml version="1.0" encoding="UTF-8" standalone="no"?>
<!DOCTYPE svg PUBLIC "-//W3C//DTD SVG 1.1//EN" "http://www.w3.org/Graphics/SVG/1.1/DTD/svg11.dtd">
<svg xmlns="http://www.w3.org/2000/svg" version="1.1" viewBox="0.00 0.00 300.00 300.00">
<g stroke-width="2.00" fill="none" stroke-linecap="butt">
<path stroke="#3389ae" vector-effect="non-scaling-stroke" d="
  M 7.63 147.28
  Q 7.63 152.31 8.94 157.20
  Q 13.04 172.57 26.23 181.47
  Q 36.01 188.07 50.00 188.07
  Q 63.38 188.07 150.49 188.07
  Q 237.60 188.07 250.98 188.07
  Q 264.97 188.07 274.75 181.47
  Q 287.94 172.57 292.04 157.20
  Q 293.34 152.31 293.34 147.28
  Q 293.34 142.26 292.04 137.36
  Q 287.94 121.99 274.75 113.09
  Q 264.97 106.49 250.98 106.49
  Q 237.60 106.49 150.49 106.49
  Q 63.38 106.49 50.00 106.49
  Q 36.01 106.49 26.23 113.09
  Q 13.04 121.99 8.94 137.36
  Q 7.63 142.25 7.63 147.28"
/>
<path stroke="#3389ae" vector-effect="non-scaling-stroke" d="
  M 208.20 160.38
  Q 208.81 158.77 209.14 160.46
  L 210.27 166.31
  Q 210.35 166.69 210.73 166.73
  L 227.27 168.53
  A 0.28 0.28 0.0 0 0 227.58 168.20
  L 226.43 162.30
  Q 226.32 161.71 226.91 161.84
  Q 234.38 163.45 240.93 158.82
  A 0.45 0.45 0.0 0 1 241.63 159.29
  L 241.04 161.99
  A 0.50 0.50 0.0 0 0 241.42 162.59
  L 251.07 164.70
  Q 251.53 164.80 251.53 165.27
  L 251.53 168.50
  Q 251.53 168.95 251.95 169.11
  L 262.08 172.97
  A 0.54 0.53 -69.3 0 0 262.76 172.66
  L 278.86 130.39
  A 0.82 0.82 0.0 0 0 278.30 129.31
  L 264.58 125.69
  A 0.75 0.75 0.0 0 0 263.66 126.25
  L 262.85 129.96
  Q 262.54 131.37 262.27 129.95
  L 261.33 125.11
  A 0.79 0.78 2.5 0 0 260.76 124.50
  L 244.17 120.12
  A 0.53 0.53 0.0 0 0 243.51 120.63
  L 243.51 129.39
  A 0.77 0.77 0.0 0 0 244.09 130.14
  L 245.46 130.50
  Q 246.22 130.71 246.05 131.48
  L 245.09 135.90
  A 0.34 0.34 0.0 0 1 244.53 136.07
  C 237.73 129.60 227.15 132.23 221.88 139.13
  A 0.48 0.48 0.0 0 1 221.02 138.93
  L 217.19 119.10
  A 0.29 0.29 0.0 0 0 216.91 118.87
  L 204.97 118.87
  Q 204.35 118.87 204.19 119.47
  L 203.73 121.20
  Q 203.59 121.73 203.04 121.73
  L 191.41 121.73
  Q 190.65 121.73 190.57 122.49
  L 188.28 143.52
  A 0.42 0.42 0.0 0 1 187.56 143.76
  Q 185.39 141.41 182.29 140.55
  Q 181.67 140.38 181.97 139.81
  C 183.98 135.94 185.18 129.80 182.73 126.08
  C 178.96 120.36 169.49 119.52 163.20 120.31
  C 157.19 121.06 152.58 122.04 147.99 125.43
  A 1.35 1.34 -27.7 0 0 147.52 126.92
  L 151.27 138.32
  A 0.70 0.69 -17.8 0 0 152.14 138.76
  L 152.90 138.50
  Q 153.56 138.29 153.69 138.97
  L 160.43 173.79
  Q 160.58 174.59 161.38 174.45
  C 171.39 172.74 183.57 169.43 189.64 161.54
  A 1.03 1.01 -67.2 0 1 190.57 161.15
  L 201.19 162.30
  A 0.76 0.75 -83.7 0 0 202.03 161.62
  L 202.42 158.02
  Q 202.55 156.82 203.16 157.86
  L 206.31 163.33
  A 0.44 0.44 0.0 0 0 207.10 163.26
  L 208.20 160.38"
/>
<path stroke="#3389ae" vector-effect="non-scaling-stroke" d="
  M 61.53 138.99
  C 63.72 132.88 64.59 126.56 58.27 122.70
  Q 55.57 121.05 51.51 120.70
  Q 41.00 119.79 31.79 124.04
  Q 29.09 125.28 27.23 127.21
  A 1.38 1.37 55.8 0 0 26.95 128.70
  L 31.48 139.75
  Q 31.78 140.47 32.42 140.02
  L 32.94 139.66
  A 0.57 0.56 65.3 0 1 33.81 139.99
  L 42.72 173.98
  A 0.48 0.47 76.0 0 0 43.28 174.32
  Q 51.45 172.39 58.64 169.13
  Q 64.28 166.58 68.39 162.41
  Q 68.74 162.06 69.11 162.40
  Q 77.33 169.89 88.15 167.61
  C 92.97 166.59 96.55 163.50 98.25 159.03
  Q 99.96 154.54 100.07 151.50
  Q 100.31 144.55 100.26 138.03
  Q 100.25 136.47 101.13 137.75
  L 106.75 145.86
  Q 107.05 146.30 106.78 146.76
  L 99.23 159.84
  A 0.60 0.60 0.0 0 0 99.37 160.61
  L 110.10 169.41
  A 0.48 0.48 0.0 0 0 110.81 169.29
  L 135.93 128.96
  Q 136.20 128.53 135.77 128.24
  L 122.10 119.12
  Q 121.74 118.88 121.53 119.25
  L 115.54 129.62
  A 0.34 0.34 0.0 0 1 114.95 129.62
  L 108.96 119.24
  Q 108.82 119.01 108.60 119.16
  L 97.79 126.65
  A 0.75 0.72 33.5 0 1 97.19 126.76
  L 85.62 123.71
  Q 84.70 123.46 84.70 124.42
  L 84.70 149.02
  Q 84.70 150.56 83.51 151.54
  L 83.15 151.84
  A 1.04 0.98 71.2 0 1 81.53 150.99
  L 81.53 126.38
  Q 81.53 125.77 80.93 125.85
  L 66.49 127.79
  A 0.49 0.48 85.9 0 0 66.08 128.27
  L 66.08 140.38
  A 0.40 0.40 0.0 0 1 65.58 140.77
  L 61.96 139.82
  Q 61.29 139.64 61.53 138.99"
/>
<path stroke="#7fa9ff" vector-effect="non-scaling-stroke" d="
  M 205.52 135.55
  L 203.11 125.40
  Q 202.98 124.84 202.38 124.88
  L 194.43 125.39
  Q 193.91 125.42 193.85 125.94
  L 190.47 156.94
  Q 190.41 157.51 190.97 157.57
  L 199.02 158.45
  A 0.47 0.46 6.1 0 0 199.54 158.04
  L 200.85 145.98
  Q 200.90 145.52 201.13 145.92
  L 206.53 155.28
  Q 207.06 156.18 207.37 155.19
  L 209.65 147.96
  Q 209.99 146.88 210.23 148.02
  L 213.23 162.34
  Q 213.48 163.52 214.68 163.65
  L 221.88 164.43
  Q 223.13 164.57 222.89 163.33
  L 222.19 159.71
  A 1.44 1.33 -74.2 0 0 221.85 159.04
  Q 216.44 153.08 218.61 145.44
  Q 218.74 144.98 218.65 144.50
  L 214.47 122.89
  Q 214.37 122.37 213.84 122.37
  L 208.39 122.37
  Q 207.76 122.37 207.68 122.99
  L 206.06 135.60
  Q 205.87 137.03 205.52 135.55"
/>
<path stroke="#7fa9ff" vector-effect="non-scaling-stroke" d="
  M 176.88 142.29
  A 0.32 0.32 0.0 0 1 176.65 141.75
  C 179.63 138.61 181.79 134.17 179.73 130.01
  C 177.19 124.85 170.40 123.19 164.99 123.73
  Q 158.33 124.40 152.49 128.62
  Q 151.98 128.99 152.22 129.56
  L 153.83 133.47
  Q 154.04 134.00 154.57 133.78
  L 155.97 133.21
  Q 156.47 133.01 156.57 133.54
  L 163.57 169.71
  A 0.40 0.39 81.3 0 0 164.00 170.03
  Q 170.85 169.19 177.54 166.28
  Q 181.46 164.57 184.66 161.67
  Q 186.47 160.02 186.70 157.98
  Q 186.96 155.71 187.62 149.69
  A 1.51 1.51 0.0 0 0 187.44 148.77
  Q 183.98 142.46 176.88 142.29"
/>
<path stroke="#7fa9ff" vector-effect="non-scaling-stroke" d="
  M 254.99 145.74
  L 254.52 166.38
  Q 254.51 166.99 255.10 167.15
  L 260.36 168.54
  Q 260.72 168.63 260.85 168.28
  L 274.72 131.86
  Q 274.81 131.64 274.58 131.58
  L 266.21 129.37
  Q 265.97 129.31 265.91 129.54
  L 261.69 144.22
  Q 261.22 145.86 260.95 144.19
  L 258.24 127.58
  Q 258.16 127.11 257.70 126.99
  L 247.16 124.21
  Q 246.41 124.01 246.41 124.79
  L 246.41 127.02
  Q 246.41 127.64 247.02 127.78
  L 248.14 128.02
  Q 248.67 128.14 248.61 128.67
  L 247.40 139.79
  Q 247.35 140.25 247.51 140.67
  C 249.44 145.81 247.89 149.52 245.66 153.99
  C 244.79 155.73 244.77 157.19 244.47 158.78
  Q 244.24 159.94 245.39 160.19
  L 250.04 161.20
  Q 251.11 161.44 251.35 160.36
  L 254.56 145.69
  Q 255.04 143.50 254.99 145.74"
/>
<path stroke="#7fa9ff" vector-effect="non-scaling-stroke" d="
  M 232.93 148.93
  L 222.75 153.11
  A 0.63 0.63 0.0 0 0 222.47 154.05
  C 225.89 159.01 231.56 160.00 236.96 157.52
  C 242.60 154.93 247.02 148.07 244.88 141.79
  Q 243.50 137.75 239.76 136.11
  C 235.40 134.20 229.79 135.52 226.06 138.82
  Q 220.99 143.32 221.29 150.01
  Q 221.32 150.56 221.83 150.35
  L 231.71 146.29
  Q 232.50 145.97 232.82 146.76
  L 233.32 147.99
  Q 233.60 148.66 232.93 148.93"
/>
<path stroke="#7fa9ff" vector-effect="non-scaling-stroke" d="
  M 115.63 136.91
  A 0.35 0.35 0.0 0 1 115.02 136.92
  L 107.91 124.11
  A 0.35 0.35 0.0 0 0 107.40 123.99
  L 99.89 129.50
  A 0.35 0.35 0.0 0 0 99.81 129.98
  L 110.68 145.66
  A 0.35 0.35 0.0 0 1 110.70 146.03
  L 103.51 159.34
  A 0.35 0.35 0.0 0 0 103.59 159.77
  L 109.39 164.50
  A 0.35 0.35 0.0 0 0 109.91 164.41
  L 131.52 129.77
  A 0.35 0.35 0.0 0 0 131.42 129.29
  L 123.11 123.78
  A 0.35 0.35 0.0 0 0 122.61 123.91
  L 115.63 136.91"
/>
<path stroke="#7fa9ff" vector-effect="non-scaling-stroke" d="
  M 56.59 140.90
  C 59.25 138.01 60.85 133.04 58.80 129.47
  C 55.86 124.35 48.31 123.21 42.97 124.43
  Q 36.66 125.87 32.07 129.74
  Q 31.60 130.14 31.83 130.71
  L 33.50 134.77
  Q 33.74 135.37 34.27 135.00
  L 35.35 134.25
  A 0.61 0.61 0.0 0 1 36.29 134.60
  L 45.38 169.25
  Q 45.52 169.79 46.06 169.69
  Q 53.72 168.25 60.54 164.28
  Q 64.21 162.15 66.76 158.76
  Q 67.06 158.36 66.96 157.88
  Q 65.78 152.41 66.18 146.24
  A 1.23 1.22 27.0 0 0 65.88 145.34
  Q 63.35 142.41 59.85 141.97
  Q 58.94 141.85 56.82 141.54
  Q 56.11 141.43 56.59 140.90"
/>
<path stroke="#7fa9ff" vector-effect="non-scaling-stroke" d="
  M 82.96 155.34
  C 79.72 155.25 78.33 153.59 78.32 150.21
  Q 78.28 140.43 78.30 130.25
  A 0.27 0.26 -3.0 0 0 78.00 129.99
  L 69.69 130.82
  Q 69.35 130.85 69.35 131.21
  Q 69.28 149.41 69.47 152.49
  Q 69.98 160.77 76.65 163.55
  C 79.60 164.77 85.35 164.89 88.15 164.14
  Q 91.87 163.16 94.37 159.52
  C 95.93 157.25 96.46 153.13 96.54 150.50
  Q 96.66 145.87 96.79 131.93
  Q 96.80 130.32 95.25 129.91
  L 89.21 128.32
  Q 88.02 128.00 88.04 129.24
  Q 88.29 145.94 88.26 148.99
  C 88.23 151.78 86.16 155.43 82.96 155.34"
/>
<path stroke="#7fa9ff" vector-effect="non-scaling-stroke" d="
  M 168.43 143.00
  C 172.24 141.06 176.11 135.37 170.63 132.47
  Q 168.20 131.19 165.72 132.63
  Q 165.23 132.92 165.37 133.48
  L 167.80 142.72
  Q 167.94 143.25 168.43 143.00"
/>
<path stroke="#7fa9ff" vector-effect="non-scaling-stroke" d="
  M 170.11 150.30
  L 172.91 162.15
  A 0.50 0.50 0.0 0 0 173.51 162.52
  L 173.91 162.43
  A 8.19 6.50 -13.3 0 0 180.39 154.22
  L 180.35 154.05
  A 8.19 6.50 -13.3 0 0 170.88 149.60
  L 170.48 149.70
  A 0.50 0.50 0.0 0 0 170.11 150.30"
/>
<path stroke="#7fa9ff" vector-effect="non-scaling-stroke" d="
  M 44.79 133.51
  L 47.82 142.74
  Q 47.97 143.18 48.37 142.95
  Q 52.51 140.58 52.66 136.68
  Q 52.78 133.63 50.33 132.65
  Q 47.72 131.61 45.06 132.87
  Q 44.64 133.07 44.79 133.51"
/>
<path stroke="#7fa9ff" vector-effect="non-scaling-stroke" d="
  M 54.50 162.15
  A 0.23 0.22 -24.0 0 0 54.83 162.27
  Q 58.61 160.04 60.06 157.75
  C 62.09 154.54 61.02 150.65 57.51 149.26
  Q 54.47 148.04 50.97 149.72
  Q 50.48 149.96 50.65 150.47
  L 54.50 162.15"
/>
<path stroke="#3389ae" vector-effect="non-scaling-stroke" d="
  M 167.94 134.37
  L 168.96 138.91
  A 0.19 0.19 0.0 0 0 169.19 139.06
  L 169.27 139.04
  A 2.43 2.39 77.4 0 0 171.07 136.15
  L 171.03 135.97
  A 2.43 2.39 77.4 0 0 168.17 134.12
  L 168.09 134.14
  A 0.19 0.19 0.0 0 0 167.94 134.37"
/>
<path stroke="#3389ae" vector-effect="non-scaling-stroke" d="
  M 47.24 134.45
  L 48.84 139.10
  A 0.14 0.14 0.0 0 0 49.02 139.19
  L 49.06 139.17
  A 2.47 2.36 71.0 0 0 50.48 136.07
  L 50.40 135.82
  A 2.47 2.36 71.0 0 0 47.36 134.26
  L 47.33 134.27
  A 0.14 0.14 0.0 0 0 47.24 134.45"
/>
<path stroke="#3389ae" vector-effect="non-scaling-stroke" d="
  M 55.66 157.28
  Q 55.92 158.06 56.45 157.43
  Q 57.96 155.67 58.06 153.66
  Q 58.13 152.09 56.60 151.75
  L 55.26 151.46
  Q 53.62 151.10 54.15 152.69
  L 55.66 157.28"
/>
<path stroke="#3389ae" vector-effect="non-scaling-stroke" d="
  M 173.29 152.86
  L 174.64 158.01
  Q 174.83 158.75 175.44 158.29
  C 176.72 157.34 178.31 154.30 177.06 152.97
  Q 175.91 151.76 173.75 152.14
  Q 173.13 152.25 173.29 152.86"
/>
</g>
<path fill="#0053ff" d="
  M 150.49 102.33
  Q 249.76 102.33 251.72 102.33
  Q 270.45 102.28 283.63 114.95
  Q 294.55 125.44 296.95 140.81
  Q 297.55 144.66 297.55 147.29
  Q 297.55 149.92 296.95 153.77
  Q 294.55 169.14 283.63 179.63
  Q 270.45 192.30 251.72 192.25
  Q 249.76 192.24 150.49 192.24
  Q 51.22 192.24 49.25 192.25
  Q 30.52 192.30 17.34 179.63
  Q 6.42 169.14 4.02 153.77
  Q 3.42 149.92 3.42 147.29
  Q 3.42 144.66 4.02 140.81
  Q 6.42 125.44 17.34 114.95
  Q 30.52 102.28 49.25 102.33
  Q 51.22 102.33 150.49 102.33
  Z
  M 7.63 147.28
  Q 7.63 152.31 8.94 157.20
  Q 13.04 172.57 26.23 181.47
  Q 36.01 188.07 50.00 188.07
  Q 63.38 188.07 150.49 188.07
  Q 237.60 188.07 250.98 188.07
  Q 264.97 188.07 274.75 181.47
  Q 287.94 172.57 292.04 157.20
  Q 293.34 152.31 293.34 147.28
  Q 293.34 142.26 292.04 137.36
  Q 287.94 121.99 274.75 113.09
  Q 264.97 106.49 250.98 106.49
  Q 237.60 106.49 150.49 106.49
  Q 63.38 106.49 50.00 106.49
  Q 36.01 106.49 26.23 113.09
  Q 13.04 121.99 8.94 137.36
  Q 7.63 142.25 7.63 147.28
  Z"
/>
<path fill="#65be5c" d="
  M 150.49 106.49
  Q 237.60 106.49 250.98 106.49
  Q 264.97 106.49 274.75 113.09
  Q 287.94 121.99 292.04 137.36
  Q 293.34 142.26 293.34 147.28
  Q 293.34 152.31 292.04 157.20
  Q 287.94 172.57 274.75 181.47
  Q 264.97 188.07 250.98 188.07
  Q 237.60 188.07 150.49 188.07
  Q 63.38 188.07 50.00 188.07
  Q 36.01 188.07 26.23 181.47
  Q 13.04 172.57 8.94 157.20
  Q 7.63 152.31 7.63 147.28
  Q 7.63 142.25 8.94 137.36
  Q 13.04 121.99 26.23 113.09
  Q 36.01 106.49 50.00 106.49
  Q 63.38 106.49 150.49 106.49
  Z
  M 208.20 160.38
  Q 208.81 158.77 209.14 160.46
  L 210.27 166.31
  Q 210.35 166.69 210.73 166.73
  L 227.27 168.53
  A 0.28 0.28 0.0 0 0 227.58 168.20
  L 226.43 162.30
  Q 226.32 161.71 226.91 161.84
  Q 234.38 163.45 240.93 158.82
  A 0.45 0.45 0.0 0 1 241.63 159.29
  L 241.04 161.99
  A 0.50 0.50 0.0 0 0 241.42 162.59
  L 251.07 164.70
  Q 251.53 164.80 251.53 165.27
  L 251.53 168.50
  Q 251.53 168.95 251.95 169.11
  L 262.08 172.97
  A 0.54 0.53 -69.3 0 0 262.76 172.66
  L 278.86 130.39
  A 0.82 0.82 0.0 0 0 278.30 129.31
  L 264.58 125.69
  A 0.75 0.75 0.0 0 0 263.66 126.25
  L 262.85 129.96
  Q 262.54 131.37 262.27 129.95
  L 261.33 125.11
  A 0.79 0.78 2.5 0 0 260.76 124.50
  L 244.17 120.12
  A 0.53 0.53 0.0 0 0 243.51 120.63
  L 243.51 129.39
  A 0.77 0.77 0.0 0 0 244.09 130.14
  L 245.46 130.50
  Q 246.22 130.71 246.05 131.48
  L 245.09 135.90
  A 0.34 0.34 0.0 0 1 244.53 136.07
  C 237.73 129.60 227.15 132.23 221.88 139.13
  A 0.48 0.48 0.0 0 1 221.02 138.93
  L 217.19 119.10
  A 0.29 0.29 0.0 0 0 216.91 118.87
  L 204.97 118.87
  Q 204.35 118.87 204.19 119.47
  L 203.73 121.20
  Q 203.59 121.73 203.04 121.73
  L 191.41 121.73
  Q 190.65 121.73 190.57 122.49
  L 188.28 143.52
  A 0.42 0.42 0.0 0 1 187.56 143.76
  Q 185.39 141.41 182.29 140.55
  Q 181.67 140.38 181.97 139.81
  C 183.98 135.94 185.18 129.80 182.73 126.08
  C 178.96 120.36 169.49 119.52 163.20 120.31
  C 157.19 121.06 152.58 122.04 147.99 125.43
  A 1.35 1.34 -27.7 0 0 147.52 126.92
  L 151.27 138.32
  A 0.70 0.69 -17.8 0 0 152.14 138.76
  L 152.90 138.50
  Q 153.56 138.29 153.69 138.97
  L 160.43 173.79
  Q 160.58 174.59 161.38 174.45
  C 171.39 172.74 183.57 169.43 189.64 161.54
  A 1.03 1.01 -67.2 0 1 190.57 161.15
  L 201.19 162.30
  A 0.76 0.75 -83.7 0 0 202.03 161.62
  L 202.42 158.02
  Q 202.55 156.82 203.16 157.86
  L 206.31 163.33
  A 0.44 0.44 0.0 0 0 207.10 163.26
  L 208.20 160.38
  Z
  M 61.53 138.99
  C 63.72 132.88 64.59 126.56 58.27 122.70
  Q 55.57 121.05 51.51 120.70
  Q 41.00 119.79 31.79 124.04
  Q 29.09 125.28 27.23 127.21
  A 1.38 1.37 55.8 0 0 26.95 128.70
  L 31.48 139.75
  Q 31.78 140.47 32.42 140.02
  L 32.94 139.66
  A 0.57 0.56 65.3 0 1 33.81 139.99
  L 42.72 173.98
  A 0.48 0.47 76.0 0 0 43.28 174.32
  Q 51.45 172.39 58.64 169.13
  Q 64.28 166.58 68.39 162.41
  Q 68.74 162.06 69.11 162.40
  Q 77.33 169.89 88.15 167.61
  C 92.97 166.59 96.55 163.50 98.25 159.03
  Q 99.96 154.54 100.07 151.50
  Q 100.31 144.55 100.26 138.03
  Q 100.25 136.47 101.13 137.75
  L 106.75 145.86
  Q 107.05 146.30 106.78 146.76
  L 99.23 159.84
  A 0.60 0.60 0.0 0 0 99.37 160.61
  L 110.10 169.41
  A 0.48 0.48 0.0 0 0 110.81 169.29
  L 135.93 128.96
  Q 136.20 128.53 135.77 128.24
  L 122.10 119.12
  Q 121.74 118.88 121.53 119.25
  L 115.54 129.62
  A 0.34 0.34 0.0 0 1 114.95 129.62
  L 108.96 119.24
  Q 108.82 119.01 108.60 119.16
  L 97.79 126.65
  A 0.75 0.72 33.5 0 1 97.19 126.76
  L 85.62 123.71
  Q 84.70 123.46 84.70 124.42
  L 84.70 149.02
  Q 84.70 150.56 83.51 151.54
  L 83.15 151.84
  A 1.04 0.98 71.2 0 1 81.53 150.99
  L 81.53 126.38
  Q 81.53 125.77 80.93 125.85
  L 66.49 127.79
  A 0.49 0.48 85.9 0 0 66.08 128.27
  L 66.08 140.38
  A 0.40 0.40 0.0 0 1 65.58 140.77
  L 61.96 139.82
  Q 61.29 139.64 61.53 138.99
  Z"
/>
<path fill="#0053ff" d="
  M 208.20 160.38
  L 207.10 163.26
  A 0.44 0.44 0.0 0 1 206.31 163.33
  L 203.16 157.86
  Q 202.55 156.82 202.42 158.02
  L 202.03 161.62
  A 0.76 0.75 -83.7 0 1 201.19 162.30
  L 190.57 161.15
  A 1.03 1.01 -67.2 0 0 189.64 161.54
  C 183.57 169.43 171.39 172.74 161.38 174.45
  Q 160.58 174.59 160.43 173.79
  L 153.69 138.97
  Q 153.56 138.29 152.90 138.50
  L 152.14 138.76
  A 0.70 0.69 -17.8 0 1 151.27 138.32
  L 147.52 126.92
  A 1.35 1.34 -27.7 0 1 147.99 125.43
  C 152.58 122.04 157.19 121.06 163.20 120.31
  C 169.49 119.52 178.96 120.36 182.73 126.08
  C 185.18 129.80 183.98 135.94 181.97 139.81
  Q 181.67 140.38 182.29 140.55
  Q 185.39 141.41 187.56 143.76
  A 0.42 0.42 0.0 0 0 188.28 143.52
  L 190.57 122.49
  Q 190.65 121.73 191.41 121.73
  L 203.04 121.73
  Q 203.59 121.73 203.73 121.20
  L 204.19 119.47
  Q 204.35 118.87 204.97 118.87
  L 216.91 118.87
  A 0.29 0.29 0.0 0 1 217.19 119.10
  L 221.02 138.93
  A 0.48 0.48 0.0 0 0 221.88 139.13
  C 227.15 132.23 237.73 129.60 244.53 136.07
  A 0.34 0.34 0.0 0 0 245.09 135.90
  L 246.05 131.48
  Q 246.22 130.71 245.46 130.50
  L 244.09 130.14
  A 0.77 0.77 0.0 0 1 243.51 129.39
  L 243.51 120.63
  A 0.53 0.53 0.0 0 1 244.17 120.12
  L 260.76 124.50
  A 0.79 0.78 2.5 0 1 261.33 125.11
  L 262.27 129.95
  Q 262.54 131.37 262.85 129.96
  L 263.66 126.25
  A 0.75 0.75 0.0 0 1 264.58 125.69
  L 278.30 129.31
  A 0.82 0.82 0.0 0 1 278.86 130.39
  L 262.76 172.66
  A 0.54 0.53 -69.3 0 1 262.08 172.97
  L 251.95 169.11
  Q 251.53 168.95 251.53 168.50
  L 251.53 165.27
  Q 251.53 164.80 251.07 164.70
  L 241.42 162.59
  A 0.50 0.50 0.0 0 1 241.04 161.99
  L 241.63 159.29
  A 0.45 0.45 0.0 0 0 240.93 158.82
  Q 234.38 163.45 226.91 161.84
  Q 226.32 161.71 226.43 162.30
  L 227.58 168.20
  A 0.28 0.28 0.0 0 1 227.27 168.53
  L 210.73 166.73
  Q 210.35 166.69 210.27 166.31
  L 209.14 160.46
  Q 208.81 158.77 208.20 160.38
  Z
  M 205.52 135.55
  L 203.11 125.40
  Q 202.98 124.84 202.38 124.88
  L 194.43 125.39
  Q 193.91 125.42 193.85 125.94
  L 190.47 156.94
  Q 190.41 157.51 190.97 157.57
  L 199.02 158.45
  A 0.47 0.46 6.1 0 0 199.54 158.04
  L 200.85 145.98
  Q 200.90 145.52 201.13 145.92
  L 206.53 155.28
  Q 207.06 156.18 207.37 155.19
  L 209.65 147.96
  Q 209.99 146.88 210.23 148.02
  L 213.23 162.34
  Q 213.48 163.52 214.68 163.65
  L 221.88 164.43
  Q 223.13 164.57 222.89 163.33
  L 222.19 159.71
  A 1.44 1.33 -74.2 0 0 221.85 159.04
  Q 216.44 153.08 218.61 145.44
  Q 218.74 144.98 218.65 144.50
  L 214.47 122.89
  Q 214.37 122.37 213.84 122.37
  L 208.39 122.37
  Q 207.76 122.37 207.68 122.99
  L 206.06 135.60
  Q 205.87 137.03 205.52 135.55
  Z
  M 176.88 142.29
  A 0.32 0.32 0.0 0 1 176.65 141.75
  C 179.63 138.61 181.79 134.17 179.73 130.01
  C 177.19 124.85 170.40 123.19 164.99 123.73
  Q 158.33 124.40 152.49 128.62
  Q 151.98 128.99 152.22 129.56
  L 153.83 133.47
  Q 154.04 134.00 154.57 133.78
  L 155.97 133.21
  Q 156.47 133.01 156.57 133.54
  L 163.57 169.71
  A 0.40 0.39 81.3 0 0 164.00 170.03
  Q 170.85 169.19 177.54 166.28
  Q 181.46 164.57 184.66 161.67
  Q 186.47 160.02 186.70 157.98
  Q 186.96 155.71 187.62 149.69
  A 1.51 1.51 0.0 0 0 187.44 148.77
  Q 183.98 142.46 176.88 142.29
  Z
  M 254.99 145.74
  L 254.52 166.38
  Q 254.51 166.99 255.10 167.15
  L 260.36 168.54
  Q 260.72 168.63 260.85 168.28
  L 274.72 131.86
  Q 274.81 131.64 274.58 131.58
  L 266.21 129.37
  Q 265.97 129.31 265.91 129.54
  L 261.69 144.22
  Q 261.22 145.86 260.95 144.19
  L 258.24 127.58
  Q 258.16 127.11 257.70 126.99
  L 247.16 124.21
  Q 246.41 124.01 246.41 124.79
  L 246.41 127.02
  Q 246.41 127.64 247.02 127.78
  L 248.14 128.02
  Q 248.67 128.14 248.61 128.67
  L 247.40 139.79
  Q 247.35 140.25 247.51 140.67
  C 249.44 145.81 247.89 149.52 245.66 153.99
  C 244.79 155.73 244.77 157.19 244.47 158.78
  Q 244.24 159.94 245.39 160.19
  L 250.04 161.20
  Q 251.11 161.44 251.35 160.36
  L 254.56 145.69
  Q 255.04 143.50 254.99 145.74
  Z
  M 232.93 148.93
  L 222.75 153.11
  A 0.63 0.63 0.0 0 0 222.47 154.05
  C 225.89 159.01 231.56 160.00 236.96 157.52
  C 242.60 154.93 247.02 148.07 244.88 141.79
  Q 243.50 137.75 239.76 136.11
  C 235.40 134.20 229.79 135.52 226.06 138.82
  Q 220.99 143.32 221.29 150.01
  Q 221.32 150.56 221.83 150.35
  L 231.71 146.29
  Q 232.50 145.97 232.82 146.76
  L 233.32 147.99
  Q 233.60 148.66 232.93 148.93
  Z"
/>
<path fill="#0053ff" d="
  M 61.96 139.82
  L 65.58 140.77
  A 0.40 0.40 0.0 0 0 66.08 140.38
  L 66.08 128.27
  A 0.49 0.48 85.9 0 1 66.49 127.79
  L 80.93 125.85
  Q 81.53 125.77 81.53 126.38
  L 81.53 150.99
  A 1.04 0.98 71.2 0 0 83.15 151.84
  L 83.51 151.54
  Q 84.70 150.56 84.70 149.02
  L 84.70 124.42
  Q 84.70 123.46 85.62 123.71
  L 97.19 126.76
  A 0.75 0.72 33.5 0 0 97.79 126.65
  L 108.60 119.16
  Q 108.82 119.01 108.96 119.24
  L 114.95 129.62
  A 0.34 0.34 0.0 0 0 115.54 129.62
  L 121.53 119.25
  Q 121.74 118.88 122.10 119.12
  L 135.77 128.24
  Q 136.20 128.53 135.93 128.96
  L 110.81 169.29
  A 0.48 0.48 0.0 0 1 110.10 169.41
  L 99.37 160.61
  A 0.60 0.60 0.0 0 1 99.23 159.84
  L 106.78 146.76
  Q 107.05 146.30 106.75 145.86
  L 101.13 137.75
  Q 100.25 136.47 100.26 138.03
  Q 100.31 144.55 100.07 151.50
  Q 99.96 154.54 98.25 159.03
  C 96.55 163.50 92.97 166.59 88.15 167.61
  Q 77.33 169.89 69.11 162.40
  Q 68.74 162.06 68.39 162.41
  Q 64.28 166.58 58.64 169.13
  Q 51.45 172.39 43.28 174.32
  A 0.48 0.47 76.0 0 1 42.72 173.98
  L 33.81 139.99
  A 0.57 0.56 65.3 0 0 32.94 139.66
  L 32.42 140.02
  Q 31.78 140.47 31.48 139.75
  L 26.95 128.70
  A 1.38 1.37 55.8 0 1 27.23 127.21
  Q 29.09 125.28 31.79 124.04
  Q 41.00 119.79 51.51 120.70
  Q 55.57 121.05 58.27 122.70
  C 64.59 126.56 63.72 132.88 61.53 138.99
  Q 61.29 139.64 61.96 139.82
  Z
  M 115.63 136.91
  A 0.35 0.35 0.0 0 1 115.02 136.92
  L 107.91 124.11
  A 0.35 0.35 0.0 0 0 107.40 123.99
  L 99.89 129.50
  A 0.35 0.35 0.0 0 0 99.81 129.98
  L 110.68 145.66
  A 0.35 0.35 0.0 0 1 110.70 146.03
  L 103.51 159.34
  A 0.35 0.35 0.0 0 0 103.59 159.77
  L 109.39 164.50
  A 0.35 0.35 0.0 0 0 109.91 164.41
  L 131.52 129.77
  A 0.35 0.35 0.0 0 0 131.42 129.29
  L 123.11 123.78
  A 0.35 0.35 0.0 0 0 122.61 123.91
  L 115.63 136.91
  Z
  M 56.59 140.90
  C 59.25 138.01 60.85 133.04 58.80 129.47
  C 55.86 124.35 48.31 123.21 42.97 124.43
  Q 36.66 125.87 32.07 129.74
  Q 31.60 130.14 31.83 130.71
  L 33.50 134.77
  Q 33.74 135.37 34.27 135.00
  L 35.35 134.25
  A 0.61 0.61 0.0 0 1 36.29 134.60
  L 45.38 169.25
  Q 45.52 169.79 46.06 169.69
  Q 53.72 168.25 60.54 164.28
  Q 64.21 162.15 66.76 158.76
  Q 67.06 158.36 66.96 157.88
  Q 65.78 152.41 66.18 146.24
  A 1.23 1.22 27.0 0 0 65.88 145.34
  Q 63.35 142.41 59.85 141.97
  Q 58.94 141.85 56.82 141.54
  Q 56.11 141.43 56.59 140.90
  Z
  M 82.96 155.34
  C 79.72 155.25 78.33 153.59 78.32 150.21
  Q 78.28 140.43 78.30 130.25
  A 0.27 0.26 -3.0 0 0 78.00 129.99
  L 69.69 130.82
  Q 69.35 130.85 69.35 131.21
  Q 69.28 149.41 69.47 152.49
  Q 69.98 160.77 76.65 163.55
  C 79.60 164.77 85.35 164.89 88.15 164.14
  Q 91.87 163.16 94.37 159.52
  C 95.93 157.25 96.46 153.13 96.54 150.50
  Q 96.66 145.87 96.79 131.93
  Q 96.80 130.32 95.25 129.91
  L 89.21 128.32
  Q 88.02 128.00 88.04 129.24
  Q 88.29 145.94 88.26 148.99
  C 88.23 151.78 86.16 155.43 82.96 155.34
  Z"
/>
<path fill="#feffff" d="
  M 205.52 135.55
  Q 205.87 137.03 206.06 135.60
  L 207.68 122.99
  Q 207.76 122.37 208.39 122.37
  L 213.84 122.37
  Q 214.37 122.37 214.47 122.89
  L 218.65 144.50
  Q 218.74 144.98 218.61 145.44
  Q 216.44 153.08 221.85 159.04
  A 1.44 1.33 -74.2 0 1 222.19 159.71
  L 222.89 163.33
  Q 223.13 164.57 221.88 164.43
  L 214.68 163.65
  Q 213.48 163.52 213.23 162.34
  L 210.23 148.02
  Q 209.99 146.88 209.65 147.96
  L 207.37 155.19
  Q 207.06 156.18 206.53 155.28
  L 201.13 145.92
  Q 200.90 145.52 200.85 145.98
  L 199.54 158.04
  A 0.47 0.46 6.1 0 1 199.02 158.45
  L 190.97 157.57
  Q 190.41 157.51 190.47 156.94
  L 193.85 125.94
  Q 193.91 125.42 194.43 125.39
  L 202.38 124.88
  Q 202.98 124.84 203.11 125.40
  L 205.52 135.55
  Z"
/>
<path fill="#feffff" d="
  M 115.63 136.91
  L 122.61 123.91
  A 0.35 0.35 0.0 0 1 123.11 123.78
  L 131.42 129.29
  A 0.35 0.35 0.0 0 1 131.52 129.77
  L 109.91 164.41
  A 0.35 0.35 0.0 0 1 109.39 164.50
  L 103.59 159.77
  A 0.35 0.35 0.0 0 1 103.51 159.34
  L 110.70 146.03
  A 0.35 0.35 0.0 0 0 110.68 145.66
  L 99.81 129.98
  A 0.35 0.35 0.0 0 1 99.89 129.50
  L 107.40 123.99
  A 0.35 0.35 0.0 0 1 107.91 124.11
  L 115.02 136.92
  A 0.35 0.35 0.0 0 0 115.63 136.91
  Z"
/>
<path fill="#feffff" d="
  M 176.88 142.29
  Q 183.98 142.46 187.44 148.77
  A 1.51 1.51 0.0 0 1 187.62 149.69
  Q 186.96 155.71 186.70 157.98
  Q 186.47 160.02 184.66 161.67
  Q 181.46 164.57 177.54 166.28
  Q 170.85 169.19 164.00 170.03
  A 0.40 0.39 81.3 0 1 163.57 169.71
  L 156.57 133.54
  Q 156.47 133.01 155.97 133.21
  L 154.57 133.78
  Q 154.04 134.00 153.83 133.47
  L 152.22 129.56
  Q 151.98 128.99 152.49 128.62
  Q 158.33 124.40 164.99 123.73
  C 170.40 123.19 177.19 124.85 179.73 130.01
  C 181.79 134.17 179.63 138.61 176.65 141.75
  A 0.32 0.32 0.0 0 0 176.88 142.29
  Z
  M 168.43 143.00
  C 172.24 141.06 176.11 135.37 170.63 132.47
  Q 168.20 131.19 165.72 132.63
  Q 165.23 132.92 165.37 133.48
  L 167.80 142.72
  Q 167.94 143.25 168.43 143.00
  Z
  M 170.11 150.30
  L 172.91 162.15
  A 0.50 0.50 0.0 0 0 173.51 162.52
  L 173.91 162.43
  A 8.19 6.50 -13.3 0 0 180.39 154.22
  L 180.35 154.05
  A 8.19 6.50 -13.3 0 0 170.88 149.60
  L 170.48 149.70
  A 0.50 0.50 0.0 0 0 170.11 150.30
  Z"
/>
<path fill="#feffff" d="
  M 56.82 141.54
  Q 58.94 141.85 59.85 141.97
  Q 63.35 142.41 65.88 145.34
  A 1.23 1.22 27.0 0 1 66.18 146.24
  Q 65.78 152.41 66.96 157.88
  Q 67.06 158.36 66.76 158.76
  Q 64.21 162.15 60.54 164.28
  Q 53.72 168.25 46.06 169.69
  Q 45.52 169.79 45.38 169.25
  L 36.29 134.60
  A 0.61 0.61 0.0 0 0 35.35 134.25
  L 34.27 135.00
  Q 33.74 135.37 33.50 134.77
  L 31.83 130.71
  Q 31.60 130.14 32.07 129.74
  Q 36.66 125.87 42.97 124.43
  C 48.31 123.21 55.86 124.35 58.80 129.47
  C 60.85 133.04 59.25 138.01 56.59 140.90
  Q 56.11 141.43 56.82 141.54
  Z
  M 44.79 133.51
  L 47.82 142.74
  Q 47.97 143.18 48.37 142.95
  Q 52.51 140.58 52.66 136.68
  Q 52.78 133.63 50.33 132.65
  Q 47.72 131.61 45.06 132.87
  Q 44.64 133.07 44.79 133.51
  Z
  M 54.50 162.15
  A 0.23 0.22 -24.0 0 0 54.83 162.27
  Q 58.61 160.04 60.06 157.75
  C 62.09 154.54 61.02 150.65 57.51 149.26
  Q 54.47 148.04 50.97 149.72
  Q 50.48 149.96 50.65 150.47
  L 54.50 162.15
  Z"
/>
<path fill="#feffff" d="
  M 254.99 145.74
  Q 255.04 143.50 254.56 145.69
  L 251.35 160.36
  Q 251.11 161.44 250.04 161.20
  L 245.39 160.19
  Q 244.24 159.94 244.47 158.78
  C 244.77 157.19 244.79 155.73 245.66 153.99
  C 247.89 149.52 249.44 145.81 247.51 140.67
  Q 247.35 140.25 247.40 139.79
  L 248.61 128.67
  Q 248.67 128.14 248.14 128.02
  L 247.02 127.78
  Q 246.41 127.64 246.41 127.02
  L 246.41 124.79
  Q 246.41 124.01 247.16 124.21
  L 257.70 126.99
  Q 258.16 127.11 258.24 127.58
  L 260.95 144.19
  Q 261.22 145.86 261.69 144.22
  L 265.91 129.54
  Q 265.97 129.31 266.21 129.37
  L 274.58 131.58
  Q 274.81 131.64 274.72 131.86
  L 260.85 168.28
  Q 260.72 168.63 260.36 168.54
  L 255.10 167.15
  Q 254.51 166.99 254.52 166.38
  L 254.99 145.74
  Z"
/>
<path fill="#feffff" d="
  M 82.96 155.34
  C 86.16 155.43 88.23 151.78 88.26 148.99
  Q 88.29 145.94 88.04 129.24
  Q 88.02 128.00 89.21 128.32
  L 95.25 129.91
  Q 96.80 130.32 96.79 131.93
  Q 96.66 145.87 96.54 150.50
  C 96.46 153.13 95.93 157.25 94.37 159.52
  Q 91.87 163.16 88.15 164.14
  C 85.35 164.89 79.60 164.77 76.65 163.55
  Q 69.98 160.77 69.47 152.49
  Q 69.28 149.41 69.35 131.21
  Q 69.35 130.85 69.69 130.82
  L 78.00 129.99
  A 0.27 0.26 -3.0 0 1 78.30 130.25
  Q 78.28 140.43 78.32 150.21
  C 78.33 153.59 79.72 155.25 82.96 155.34
  Z"
/>
<path fill="#0053ff" d="
  M 168.43 143.00
  Q 167.94 143.25 167.80 142.72
  L 165.37 133.48
  Q 165.23 132.92 165.72 132.63
  Q 168.20 131.19 170.63 132.47
  C 176.11 135.37 172.24 141.06 168.43 143.00
  Z
  M 167.94 134.37
  L 168.96 138.91
  A 0.19 0.19 0.0 0 0 169.19 139.06
  L 169.27 139.04
  A 2.43 2.39 77.4 0 0 171.07 136.15
  L 171.03 135.97
  A 2.43 2.39 77.4 0 0 168.17 134.12
  L 168.09 134.14
  A 0.19 0.19 0.0 0 0 167.94 134.37
  Z"
/>
<path fill="#0053ff" d="
  M 47.82 142.74
  L 44.79 133.51
  Q 44.64 133.07 45.06 132.87
  Q 47.72 131.61 50.33 132.65
  Q 52.78 133.63 52.66 136.68
  Q 52.51 140.58 48.37 142.95
  Q 47.97 143.18 47.82 142.74
  Z
  M 47.24 134.45
  L 48.84 139.10
  A 0.14 0.14 0.0 0 0 49.02 139.19
  L 49.06 139.17
  A 2.47 2.36 71.0 0 0 50.48 136.07
  L 50.40 135.82
  A 2.47 2.36 71.0 0 0 47.36 134.26
  L 47.33 134.27
  A 0.14 0.14 0.0 0 0 47.24 134.45
  Z"
/>
<path fill="#65be5c" d="
  M 47.24 134.45
  A 0.14 0.14 0.0 0 1 47.33 134.27
  L 47.36 134.26
  A 2.47 2.36 71.0 0 1 50.40 135.82
  L 50.48 136.07
  A 2.47 2.36 71.0 0 1 49.06 139.17
  L 49.02 139.19
  A 0.14 0.14 0.0 0 1 48.84 139.10
  L 47.24 134.45
  Z"
/>
<path fill="#65be5c" d="
  M 167.94 134.37
  A 0.19 0.19 0.0 0 1 168.09 134.14
  L 168.17 134.12
  A 2.43 2.39 77.4 0 1 171.03 135.97
  L 171.07 136.15
  A 2.43 2.39 77.4 0 1 169.27 139.04
  L 169.19 139.06
  A 0.19 0.19 0.0 0 1 168.96 138.91
  L 167.94 134.37
  Z"
/>
<path fill="#feffff" d="
  M 232.93 148.93
  Q 233.60 148.66 233.32 147.99
  L 232.82 146.76
  Q 232.50 145.97 231.71 146.29
  L 221.83 150.35
  Q 221.32 150.56 221.29 150.01
  Q 220.99 143.32 226.06 138.82
  C 229.79 135.52 235.40 134.20 239.76 136.11
  Q 243.50 137.75 244.88 141.79
  C 247.02 148.07 242.60 154.93 236.96 157.52
  C 231.56 160.00 225.89 159.01 222.47 154.05
  A 0.63 0.63 0.0 0 1 222.75 153.11
  L 232.93 148.93
  Z"
/>
<path fill="#0053ff" d="
  M 54.50 162.15
  L 50.65 150.47
  Q 50.48 149.96 50.97 149.72
  Q 54.47 148.04 57.51 149.26
  C 61.02 150.65 62.09 154.54 60.06 157.75
  Q 58.61 160.04 54.83 162.27
  A 0.23 0.22 -24.0 0 1 54.50 162.15
  Z
  M 55.66 157.28
  Q 55.92 158.06 56.45 157.43
  Q 57.96 155.67 58.06 153.66
  Q 58.13 152.09 56.60 151.75
  L 55.26 151.46
  Q 53.62 151.10 54.15 152.69
  L 55.66 157.28
  Z"
/>
<path fill="#0053ff" d="
  M 170.11 150.30
  A 0.50 0.50 0.0 0 1 170.48 149.70
  L 170.88 149.60
  A 8.19 6.50 -13.3 0 1 180.35 154.05
  L 180.39 154.22
  A 8.19 6.50 -13.3 0 1 173.91 162.43
  L 173.51 162.52
  A 0.50 0.50 0.0 0 1 172.91 162.15
  L 170.11 150.30
  Z
  M 173.29 152.86
  L 174.64 158.01
  Q 174.83 158.75 175.44 158.29
  C 176.72 157.34 178.31 154.30 177.06 152.97
  Q 175.91 151.76 173.75 152.14
  Q 173.13 152.25 173.29 152.86
  Z"
/>
<path fill="#65be5c" d="
  M 55.66 157.28
  L 54.15 152.69
  Q 53.62 151.10 55.26 151.46
  L 56.60 151.75
  Q 58.13 152.09 58.06 153.66
  Q 57.96 155.67 56.45 157.43
  Q 55.92 158.06 55.66 157.28
  Z"
/>
<path fill="#65be5c" d="
  M 173.29 152.86
  Q 173.13 152.25 173.75 152.14
  Q 175.91 151.76 177.06 152.97
  C 178.31 154.30 176.72 157.34 175.44 158.29
  Q 174.83 158.75 174.64 158.01
  L 173.29 152.86
  Z"
/>
</svg>
