<?xml version="1.0" encoding="UTF-8" standalone="no"?>
<!DOCTYPE svg PUBLIC "-//W3C//DTD SVG 1.1//EN" "http://www.w3.org/Graphics/SVG/1.1/DTD/svg11.dtd">
<svg xmlns="http://www.w3.org/2000/svg" version="1.1" viewBox="0.00 0.00 1633.00 1224.00">
<g stroke-width="2.00" fill="none" stroke-linecap="butt">
<path stroke="#ff8080" vector-effect="non-scaling-stroke" d="
  M 1399.19 465.49
  L 1393.72 460.65
  Q 1393.09 460.09 1392.67 460.82
  L 1391.34 463.13
  Q 1391.11 463.52 1391.45 463.82
  L 1397.37 469.07
  A 0.44 0.43 37.4 0 1 1397.45 469.63
  Q 1393.52 475.57 1387.69 478.74
  Q 1387.22 479.00 1387.45 479.49
  L 1388.92 482.64
  A 0.42 0.41 -28.0 0 0 1389.51 482.81
  C 1399.69 476.58 1404.90 465.49 1406.39 453.87
  A 2.39 2.39 0.0 0 0 1404.00 451.17
  L 1395.54 451.23
  Q 1395.03 451.24 1395.17 450.74
  L 1395.87 448.21
  Q 1396.05 447.59 1395.46 447.31
  L 1393.45 446.34
  Q 1392.91 446.08 1392.77 446.66
  Q 1390.37 456.53 1383.76 464.17
  A 0.51 0.50 47.6 0 0 1383.74 464.80
  L 1385.54 467.26
  Q 1385.80 467.61 1386.09 467.28
  Q 1390.42 462.32 1393.22 456.09
  Q 1393.42 455.65 1393.91 455.64
  L 1402.05 455.58
  Q 1402.71 455.58 1402.60 456.23
  Q 1401.76 461.31 1399.71 465.39
  Q 1399.52 465.78 1399.19 465.49"
/>
<path stroke="#ff8080" vector-effect="non-scaling-stroke" d="
  M 1223.77 454.77
  A 0.49 0.49 0.0 0 0 1224.59 454.83
  L 1225.57 453.52
  A 0.49 0.49 0.0 0 0 1225.60 452.98
  L 1222.84 448.28
  A 0.49 0.49 0.0 0 0 1222.07 448.18
  L 1221.10 449.14
  A 0.49 0.49 0.0 0 0 1221.02 449.72
  L 1223.77 454.77"
/>
<path stroke="#ff8080" vector-effect="non-scaling-stroke" d="
  M 1325.48 449.04
  A 0.45 0.45 0.0 0 0 1324.77 449.19
  L 1323.40 452.33
  A 0.45 0.45 0.0 0 0 1323.51 452.85
  L 1332.02 460.56
  A 0.45 0.45 0.0 0 0 1332.72 460.45
  L 1334.35 457.57
  A 0.45 0.45 0.0 0 0 1334.26 457.02
  L 1325.48 449.04"
/>
<path stroke="#ff8080" vector-effect="non-scaling-stroke" d="
  M 1305.72 453.88
  L 1315.21 453.81
  Q 1315.73 453.81 1315.73 453.28
  L 1315.70 449.88
  Q 1315.70 449.33 1315.15 449.33
  L 1294.84 449.48
  A 0.51 0.51 0.0 0 0 1294.33 450.00
  L 1294.35 453.31
  A 0.57 0.57 0.0 0 0 1294.92 453.88
  L 1301.46 453.83
  Q 1301.84 453.83 1301.84 454.21
  L 1301.89 460.44
  A 0.34 0.34 0.0 0 1 1301.55 460.78
  L 1293.68 460.84
  Q 1293.20 460.84 1293.20 461.33
  L 1293.22 464.79
  Q 1293.23 465.34 1293.78 465.34
  L 1301.27 465.28
  Q 1301.86 465.28 1301.85 465.86
  Q 1301.83 471.82 1301.94 476.24
  Q 1302.08 481.71 1307.23 481.85
  Q 1309.25 481.91 1316.31 481.62
  Q 1316.89 481.60 1316.89 481.02
  L 1316.86 477.54
  A 0.50 0.49 -5.0 0 0 1316.28 477.06
  Q 1313.02 477.62 1307.80 477.52
  A 2.48 2.48 0.0 0 1 1305.37 475.06
  L 1305.30 465.79
  A 0.44 0.43 -0.7 0 1 1305.73 465.36
  L 1317.01 465.28
  Q 1317.30 465.28 1317.30 464.99
  L 1317.27 461.15
  Q 1317.27 460.77 1316.89 460.77
  L 1305.86 460.85
  Q 1305.35 460.86 1305.35 460.35
  L 1305.31 454.30
  Q 1305.30 453.89 1305.72 453.88"
/>
<path stroke="#ff8080" vector-effect="non-scaling-stroke" d="
  M 1279.15 455.35
  Q 1274.09 470.46 1262.14 478.80
  Q 1261.59 479.19 1261.91 479.79
  L 1263.34 482.45
  A 0.53 0.52 58.6 0 0 1264.11 482.64
  Q 1270.84 477.91 1275.65 470.86
  Q 1275.95 470.43 1276.32 470.80
  Q 1281.92 476.35 1286.30 482.47
  Q 1286.61 482.90 1286.93 482.49
  L 1288.86 480.07
  A 0.59 0.57 -43.2 0 0 1288.89 479.38
  Q 1284.52 473.11 1278.58 467.45
  A 1.03 1.02 35.1 0 1 1278.37 466.26
  Q 1281.50 459.99 1283.47 453.42
  A 2.40 2.40 0.0 0 0 1281.16 450.33
  L 1265.37 450.45
  Q 1264.81 450.45 1264.82 451.01
  L 1264.84 454.24
  Q 1264.84 454.85 1265.46 454.85
  L 1278.72 454.75
  Q 1279.35 454.75 1279.15 455.35"
/>
<path stroke="#ff8080" vector-effect="non-scaling-stroke" d="
  M 1369.94 455.36
  Q 1365.02 470.31 1353.08 478.77
  Q 1352.53 479.16 1352.83 479.77
  L 1354.12 482.39
  Q 1354.45 483.04 1355.04 482.61
  Q 1361.86 477.68 1366.57 470.78
  A 0.34 0.33 38.9 0 1 1367.08 470.73
  Q 1372.66 476.17 1377.05 482.33
  Q 1377.40 482.81 1377.79 482.37
  L 1379.61 480.32
  A 0.83 0.82 -41.9 0 0 1379.67 479.30
  Q 1375.46 473.19 1369.41 467.42
  Q 1369.06 467.08 1369.23 466.62
  Q 1369.64 465.49 1370.74 463.05
  Q 1372.80 458.47 1374.34 453.29
  A 2.31 2.30 8.1 0 0 1372.11 450.33
  L 1356.22 450.44
  Q 1355.65 450.45 1355.65 451.02
  L 1355.68 454.27
  Q 1355.68 454.85 1356.26 454.85
  L 1369.50 454.75
  Q 1370.15 454.75 1369.94 455.36"
/>
<path stroke="#ff8080" vector-effect="non-scaling-stroke" d="
  M 1219.81 451.14
  A 0.37 0.37 0.0 0 0 1219.23 451.07
  L 1218.13 452.19
  A 0.37 0.37 0.0 0 0 1218.07 452.62
  L 1220.93 457.96
  A 0.37 0.37 0.0 0 0 1221.54 458.01
  L 1222.69 456.59
  A 0.37 0.37 0.0 0 0 1222.72 456.17
  L 1219.81 451.14"
/>
<path stroke="#ff8080" vector-effect="non-scaling-stroke" d="
  M 1212.11 458.80
  Q 1219.54 469.88 1226.86 479.07
  Q 1226.97 479.21 1227.07 479.05
  L 1229.16 475.78
  Q 1229.30 475.55 1229.13 475.34
  Q 1221.40 465.58 1214.30 455.25
  Q 1212.69 452.90 1210.68 453.62
  Q 1209.43 454.06 1208.30 455.91
  Q 1203.91 463.14 1200.33 467.91
  Q 1200.13 468.17 1200.33 468.42
  L 1202.71 471.46
  A 0.19 0.19 0.0 0 0 1203.02 471.44
  L 1211.07 458.81
  A 0.62 0.62 0.0 0 1 1212.11 458.80"
/>
<path stroke="#ff8080" vector-effect="non-scaling-stroke" d="
  M 1325.58 478.55
  Q 1324.85 478.84 1325.11 479.57
  L 1326.08 482.43
  Q 1326.31 483.11 1326.98 482.85
  C 1338.27 478.51 1344.96 468.14 1348.05 456.79
  Q 1348.12 456.55 1347.90 456.42
  L 1345.32 454.93
  Q 1345.10 454.80 1345.02 455.05
  C 1342.02 465.10 1335.51 474.71 1325.58 478.55"
/>
<path stroke="#ff8080" vector-effect="non-scaling-stroke" d="
  M 1256.80 463.04
  A 0.37 0.37 0.0 0 0 1256.43 462.67
  L 1234.07 462.67
  A 0.37 0.37 0.0 0 0 1233.70 463.04
  L 1233.70 466.80
  A 0.37 0.37 0.0 0 0 1234.07 467.17
  L 1256.43 467.17
  A 0.37 0.37 0.0 0 0 1256.80 466.80
  L 1256.80 463.04"
/>
<path stroke="#ff8080" vector-effect="non-scaling-stroke" d="
  M 1437.93 463.09
  A 0.42 0.42 0.0 0 0 1437.51 462.67
  L 1415.23 462.67
  A 0.42 0.42 0.0 0 0 1414.81 463.09
  L 1414.81 466.75
  A 0.42 0.42 0.0 0 0 1415.23 467.17
  L 1437.51 467.17
  A 0.42 0.42 0.0 0 0 1437.93 466.75
  L 1437.93 463.09"
/>
<path stroke="#7fa9ff" vector-effect="non-scaling-stroke" d="
  M 939.35 541.28
  Q 939.76 538.85 939.87 541.31
  L 943.68 627.40
  A 0.59 0.58 7.1 0 0 944.10 627.93
  L 967.91 634.54
  A 0.27 0.27 0.0 0 0 968.24 634.36
  L 976.54 607.63
  A 1.93 1.93 0.0 0 0 975.98 605.60
  L 971.72 601.82
  A 0.66 0.65 44.1 0 1 971.70 600.85
  Q 975.43 597.27 980.07 592.56
  Q 981.60 591.01 982.64 587.63
  Q 990.18 562.99 997.82 538.06
  A 4.26 4.25 43.6 0 0 997.75 535.38
  Q 996.42 531.72 995.82 529.73
  C 991.71 515.98 995.10 503.02 1005.72 493.70
  Q 1007.22 492.38 1011.72 489.19
  Q 1013.24 488.10 1013.77 486.31
  A 1.06 1.05 -76.4 0 0 1012.96 484.98
  L 979.48 478.38
  A 0.49 0.48 11.5 0 0 978.91 478.75
  L 965.04 542.22
  Q 964.87 543.01 964.45 542.32
  Q 964.25 541.99 964.07 541.21
  Q 956.00 506.42 947.92 471.82
  A 0.66 0.66 0.0 0 0 947.40 471.33
  L 902.45 463.26
  A 0.35 0.35 0.0 0 0 902.04 463.59
  L 901.22 475.02
  A 1.04 1.04 0.0 0 0 902.05 476.11
  L 910.28 477.73
  A 1.46 1.46 0.0 0 1 911.46 479.29
  Q 910.71 488.63 909.59 505.25
  Q 909.50 506.62 909.85 507.13
  Q 922.80 525.74 918.86 548.03
  C 916.92 558.98 912.06 568.06 905.33 576.99
  A 6.87 6.83 65.6 0 0 903.97 580.64
  L 902.34 603.59
  Q 902.29 604.26 902.96 604.34
  L 928.63 607.37
  A 0.50 0.49 7.8 0 0 929.18 606.96
  Q 935.95 561.54 939.35 541.28"
/>
<path stroke="#7fa9ff" vector-effect="non-scaling-stroke" d="
  M 765.06 524.18
  L 749.07 480.90
  Q 748.67 479.82 747.53 480.01
  L 714.21 485.80
  A 0.79 0.78 85.3 0 0 713.56 486.58
  L 714.48 612.31
  A 0.65 0.65 0.0 0 0 715.13 612.96
  L 749.80 612.70
  A 0.55 0.55 0.0 0 0 750.35 612.13
  Q 749.72 587.58 749.51 561.52
  Q 749.51 560.93 749.70 560.59
  A 0.29 0.28 -46.9 0 1 750.18 560.57
  L 777.86 600.13
  A 0.33 0.33 0.0 0 0 778.46 600.00
  L 785.56 564.01
  Q 785.69 563.35 786.01 563.94
  Q 787.08 565.89 788.53 570.21
  Q 798.00 598.46 806.80 624.98
  A 0.98 0.98 0.0 0 0 807.76 625.65
  L 844.54 624.82
  A 0.41 0.41 0.0 0 0 844.92 624.27
  L 837.93 603.78
  A 2.01 2.00 87.7 0 0 836.54 602.49
  C 819.08 597.87 807.26 586.01 802.74 568.93
  C 798.56 553.16 801.65 536.39 809.68 522.48
  A 2.55 2.53 -39.4 0 0 809.89 520.39
  L 790.98 465.00
  A 0.53 0.52 75.2 0 0 790.39 464.65
  L 766.29 468.83
  Q 765.52 468.97 765.52 469.75
  L 765.92 524.03
  A 0.45 0.44 34.8 0 1 765.06 524.18"
/>
<path stroke="#7fa9ff" vector-effect="non-scaling-stroke" d="
  M 1121.45 532.26
  L 1071.54 636.05
  A 0.59 0.59 0.0 0 0 1071.91 636.88
  L 1107.83 646.85
  Q 1108.41 647.02 1108.61 646.45
  L 1117.03 622.98
  A 4.16 3.96 -36.5 0 0 1117.27 621.61
  Q 1117.26 616.32 1117.54 613.02
  Q 1118.86 597.05 1127.59 584.67
  Q 1128.84 582.90 1131.99 579.38
  Q 1135.27 575.71 1136.00 573.74
  Q 1141.71 558.38 1147.51 543.32
  Q 1147.79 542.60 1148.52 542.86
  L 1186.27 556.40
  A 0.86 0.85 22.4 0 0 1187.33 555.96
  L 1204.07 521.16
  A 0.53 0.53 0.0 0 0 1203.77 520.43
  L 1103.24 484.39
  A 0.37 0.37 0.0 0 0 1102.78 484.59
  L 1091.49 509.23
  A 1.12 1.11 41.0 0 0 1091.57 510.31
  L 1098.40 520.94
  Q 1099.21 522.20 1100.60 522.77
  L 1121.04 531.20
  A 0.79 0.78 24.1 0 1 1121.45 532.26"
/>
<path stroke="#7fa9ff" vector-effect="non-scaling-stroke" d="
  M 1036.96 519.99
  C 1038.69 516.34 1043.11 516.24 1046.55 517.51
  C 1056.41 521.18 1064.58 531.38 1069.93 540.36
  A 0.46 0.45 50.3 0 0 1070.66 540.43
  L 1085.57 523.61
  A 1.63 1.62 52.4 0 0 1085.80 521.81
  Q 1072.82 496.36 1044.87 494.12
  C 1036.37 493.43 1027.50 494.97 1019.94 498.93
  C 1004.50 507.00 1001.39 522.39 1010.39 536.90
  Q 1017.74 548.75 1030.25 558.29
  Q 1036.74 563.23 1038.78 564.99
  C 1046.80 571.92 1053.80 585.03 1043.53 592.99
  C 1038.92 596.56 1031.25 596.36 1025.92 594.56
  Q 1015.51 591.06 1006.90 582.99
  A 0.84 0.83 -45.7 0 0 1005.73 583.01
  L 988.28 600.46
  Q 987.70 601.04 988.29 601.60
  Q 998.40 611.18 1010.43 617.32
  C 1025.57 625.05 1043.38 626.57 1057.37 616.45
  C 1070.52 606.93 1076.66 590.74 1073.81 574.66
  Q 1072.08 564.91 1064.08 555.93
  Q 1063.02 554.73 1055.03 548.56
  Q 1046.95 542.33 1041.33 534.77
  C 1038.68 531.20 1034.86 524.46 1036.96 519.99"
/>
<path stroke="#7fa9ff" vector-effect="non-scaling-stroke" d="
  M 861.64 550.06
  A 0.88 0.88 0.0 0 1 861.13 551.16
  L 817.87 568.14
  Q 816.90 568.52 817.38 569.45
  Q 826.64 587.24 846.93 590.27
  Q 856.56 591.71 866.47 588.96
  Q 888.30 582.88 900.69 563.23
  C 909.18 549.77 911.61 532.10 903.92 518.04
  C 892.18 496.55 864.68 493.67 844.47 504.21
  C 825.21 514.26 812.29 533.60 813.33 555.71
  A 1.07 1.06 78.5 0 0 814.76 556.66
  L 855.98 541.43
  A 1.77 1.76 -24.9 0 1 858.13 542.21
  Q 860.21 545.86 861.64 550.06"
/>
<path stroke="#7fa9ff" vector-effect="non-scaling-stroke" d="
  M 1307.18 652.45
  Q 1314.07 651.13 1318.96 649.94
  Q 1332.71 646.60 1343.37 639.14
  Q 1346.94 636.64 1347.88 634.87
  C 1349.89 631.13 1351.41 628.55 1353.87 625.35
  Q 1356.52 621.91 1356.74 621.20
  C 1363.51 599.47 1346.59 575.93 1331.10 562.20
  Q 1304.96 539.05 1270.12 528.28
  A 0.54 0.54 0.0 0 0 1269.46 528.59
  L 1259.55 552.60
  Q 1259.38 553.02 1259.77 553.25
  L 1275.39 562.27
  A 0.64 0.63 30.0 0 1 1275.63 563.14
  L 1235.50 632.65
  Q 1235.16 633.23 1235.58 633.76
  L 1248.18 649.82
  Q 1248.87 650.71 1247.93 651.34
  Q 1232.14 661.96 1214.73 668.86
  A 1.32 1.28 -15.7 0 0 1213.91 670.27
  Q 1213.93 670.40 1214.48 670.78
  Q 1224.84 677.93 1235.08 685.00
  A 0.41 0.40 -53.0 0 0 1235.63 684.92
  L 1268.14 644.22
  A 0.44 0.44 0.0 0 1 1268.64 644.08
  L 1282.78 649.15
  Q 1283.29 649.33 1283.16 649.86
  L 1268.65 705.99
  Q 1268.54 706.41 1268.97 706.51
  L 1303.78 714.81
  A 0.19 0.19 0.0 0 0 1303.99 714.53
  L 1298.90 705.34
  Q 1298.44 704.51 1299.31 704.10
  L 1306.94 700.54
  A 1.32 1.32 0.0 0 0 1307.70 699.33
  L 1306.65 653.10
  Q 1306.64 652.55 1307.18 652.45"
/>
<path stroke="#7fa9ff" vector-effect="non-scaling-stroke" d="
  M 1179.81 631.77
  L 1228.26 597.89
  A 0.88 0.88 0.0 0 0 1228.52 596.73
  Q 1218.25 578.46 1198.08 573.06
  C 1169.23 565.33 1135.22 578.98 1130.86 611.50
  Q 1128.03 632.54 1142.07 646.77
  C 1152.24 657.07 1166.67 661.94 1181.01 662.01
  C 1198.58 662.08 1214.87 658.18 1229.03 648.45
  A 0.59 0.58 54.7 0 0 1229.17 647.62
  L 1212.62 625.02
  A 0.68 0.67 -37.8 0 0 1211.65 624.90
  Q 1198.06 636.12 1180.02 632.73
  A 0.54 0.53 32.9 0 1 1179.81 631.77"
/>
<path stroke="#7fa9ff" vector-effect="non-scaling-stroke" d="
  M 1392.26 649.67
  C 1396.64 650.34 1400.45 654.60 1402.71 658.28
  Q 1409.18 668.76 1411.20 681.28
  A 0.57 0.57 0.0 0 0 1412.03 681.69
  L 1431.98 671.01
  A 0.83 0.81 -16.9 0 0 1432.42 670.21
  Q 1430.89 649.66 1415.24 636.77
  C 1404.80 628.17 1390.18 623.49 1376.81 626.04
  C 1357.93 629.64 1353.10 646.38 1358.21 663.03
  Q 1361.25 672.94 1366.58 681.73
  Q 1371.66 690.12 1374.02 694.00
  C 1377.61 699.88 1379.56 709.59 1375.92 715.80
  C 1370.90 724.36 1360.41 722.92 1353.16 717.82
  C 1346.51 713.15 1341.77 706.65 1337.87 699.38
  Q 1337.57 698.82 1336.99 699.09
  L 1314.30 709.66
  Q 1313.96 709.83 1314.12 710.17
  C 1321.42 725.13 1333.52 740.57 1349.04 746.53
  Q 1368.47 753.98 1385.61 742.34
  Q 1394.49 736.32 1399.24 726.77
  Q 1407.38 710.39 1400.68 694.23
  Q 1399.94 692.44 1395.11 684.52
  C 1389.83 675.86 1384.99 666.37 1385.43 656.63
  Q 1385.62 652.29 1389.08 650.07
  Q 1390.19 649.35 1392.26 649.67"
/>
<path stroke="#7fa9ff" vector-effect="non-scaling-stroke" d="
  M 466.57 644.90
  Q 466.96 645.63 466.22 646.00
  Q 455.28 651.44 454.99 651.58
  Q 452.46 652.81 451.60 654.56
  Q 450.32 657.15 449.41 659.49
  A 0.71 0.71 0.0 0 0 449.80 660.41
  C 470.33 668.70 496.56 673.46 517.30 663.05
  Q 535.34 654.00 541.52 634.39
  Q 547.91 614.12 537.65 594.16
  Q 531.43 582.06 517.51 574.73
  Q 513.62 572.68 506.10 570.71
  C 495.27 567.86 483.82 563.29 475.70 556.40
  Q 472.14 553.38 470.70 550.54
  Q 467.54 544.31 471.29 540.87
  C 475.90 536.66 485.43 538.11 491.01 540.01
  Q 504.24 544.53 516.00 553.78
  A 0.67 0.67 0.0 0 0 517.05 553.48
  L 526.55 526.98
  Q 526.73 526.46 526.34 526.07
  Q 513.85 513.80 497.18 510.31
  C 475.31 505.74 449.11 514.65 436.57 533.71
  C 428.70 545.65 430.00 559.82 439.75 570.43
  C 450.85 582.51 467.71 589.26 483.29 593.56
  Q 492.09 595.98 494.44 597.04
  C 502.28 600.57 509.98 606.38 511.60 614.88
  C 513.32 623.88 507.10 631.02 498.98 633.72
  C 487.46 637.55 474.21 635.20 463.05 630.83
  A 0.81 0.81 0.0 0 0 462.02 631.24
  L 460.79 633.93
  Q 460.55 634.45 460.67 635.01
  Q 460.92 636.20 461.97 637.73
  Q 465.28 642.55 466.57 644.90"
/>
<path stroke="#7fa9ff" vector-effect="non-scaling-stroke" d="
  M 596.39 575.74
  A 0.83 0.81 59.5 0 1 596.56 575.05
  L 633.05 529.36
  Q 633.77 528.46 632.94 527.66
  Q 617.16 512.52 595.32 513.88
  C 577.19 515.02 558.18 524.32 548.96 540.40
  Q 541.12 554.08 543.87 570.76
  Q 547.03 589.89 562.76 599.34
  Q 580.76 610.15 603.49 604.58
  Q 615.97 601.53 626.72 595.46
  Q 639.07 588.49 648.12 577.62
  A 0.59 0.58 -50.8 0 0 648.04 576.79
  L 626.21 559.35
  A 0.77 0.77 0.0 0 0 625.10 559.52
  Q 615.52 573.78 598.09 576.02
  Q 597.85 576.05 597.33 576.22
  Q 596.53 576.48 596.39 575.74"
/>
<path stroke="#7fa9ff" vector-effect="non-scaling-stroke" d="
  M 389.53 651.16
  A 0.71 0.71 0.0 0 1 390.09 650.53
  L 419.62 644.26
  A 0.71 0.71 0.0 0 1 420.41 644.64
  L 425.06 654.29
  A 0.71 0.71 0.0 0 0 426.02 654.61
  L 451.26 641.82
  A 0.71 0.71 0.0 0 0 451.53 640.80
  L 390.74 546.30
  A 0.71 0.71 0.0 0 0 389.90 546.02
  L 368.08 554.01
  A 0.71 0.71 0.0 0 0 367.61 554.69
  L 369.48 637.78
  A 0.71 0.71 0.0 0 1 369.11 638.42
  L 353.71 646.96
  A 0.71 0.71 0.0 0 0 353.42 647.91
  L 358.01 656.61
  A 0.71 0.71 0.0 0 0 358.76 656.98
  L 369.15 655.11
  A 0.71 0.71 0.0 0 1 369.98 655.80
  L 370.10 664.69
  A 0.71 0.71 0.0 0 0 370.89 665.39
  L 387.81 663.53
  A 0.71 0.71 0.0 0 0 388.44 662.89
  L 389.53 651.16"
/>
<path stroke="#7fa9ff" vector-effect="non-scaling-stroke" d="
  M 314.23 622.50
  Q 314.69 621.47 316.69 617.21
  C 324.90 599.65 325.51 578.98 307.76 567.01
  C 288.68 554.14 261.48 558.47 242.23 568.28
  Q 222.94 578.12 209.29 594.93
  A 0.87 0.86 48.0 0 0 209.24 595.93
  L 220.22 613.00
  A 0.67 0.67 0.0 0 0 221.18 613.18
  L 228.66 607.70
  A 0.72 0.72 0.0 0 1 229.74 607.97
  L 291.84 741.17
  A 0.53 0.53 0.0 0 0 292.53 741.43
  Q 313.61 732.67 332.36 720.12
  Q 346.08 710.94 356.46 699.23
  Q 365.01 689.59 369.72 676.92
  Q 370.03 676.09 369.15 676.19
  L 360.69 677.12
  A 0.76 0.75 -3.5 0 1 359.85 676.38
  L 359.66 668.20
  A 0.48 0.48 0.0 0 0 359.08 667.74
  L 353.30 668.97
  A 1.28 1.27 70.8 0 1 351.90 668.29
  L 339.57 643.37
  Q 339.36 642.95 339.77 642.73
  L 356.95 633.21
  A 0.48 0.48 0.0 0 0 357.02 632.42
  Q 338.24 617.25 314.61 622.95
  Q 313.96 623.11 314.23 622.50"
/>
<path stroke="#7fa9ff" vector-effect="non-scaling-stroke" d="
  M 579.14 575.07
  L 606.44 538.44
  A 0.91 0.91 0.0 0 0 606.25 537.17
  L 604.78 536.07
  A 23.71 23.44 36.7 0 0 571.76 540.69
  L 571.39 541.19
  A 23.71 23.44 36.7 0 0 576.39 574.16
  L 577.86 575.25
  A 0.91 0.91 0.0 0 0 579.14 575.07"
/>
<path stroke="#7fa9ff" vector-effect="non-scaling-stroke" d="
  M 1308.86 588.92
  Q 1308.04 588.52 1307.50 589.26
  L 1280.73 626.25
  Q 1280.30 626.84 1280.98 627.12
  Q 1288.36 630.12 1296.20 631.31
  Q 1310.39 633.45 1319.67 624.12
  C 1324.07 619.70 1325.77 614.51 1324.79 608.48
  C 1323.39 599.82 1316.84 592.75 1308.86 588.92"
/>
<path stroke="#7fa9ff" vector-effect="non-scaling-stroke" d="
  M 392.30 624.77
  A 0.39 0.39 0.0 0 0 392.87 625.15
  L 406.65 617.48
  A 0.39 0.39 0.0 0 0 406.81 616.97
  L 396.05 594.84
  A 0.39 0.39 0.0 0 0 395.31 594.97
  L 392.30 624.77"
/>
<path stroke="#7fa9ff" vector-effect="non-scaling-stroke" d="
  M 289.30 628.05
  Q 294.87 621.57 296.57 614.32
  C 297.91 608.56 296.32 599.79 291.43 595.57
  Q 287.20 591.93 283.08 591.36
  Q 271.90 589.80 262.67 597.50
  A 0.70 0.69 -34.7 0 0 262.51 598.37
  L 282.46 634.40
  A 0.57 0.57 0.0 0 0 283.36 634.52
  Q 286.08 631.79 289.30 628.05"
/>
<path stroke="#7fa9ff" vector-effect="non-scaling-stroke" d="
  M 334.90 692.90
  Q 345.27 680.79 340.83 666.52
  C 337.27 655.09 326.29 649.83 314.91 651.66
  Q 305.32 653.21 297.69 659.54
  Q 297.26 659.89 297.53 660.39
  L 321.70 705.55
  A 0.45 0.44 54.8 0 0 322.39 705.67
  Q 329.38 699.35 334.90 692.90"
/>
<path stroke="#7fa9ff" vector-effect="non-scaling-stroke" d="
  M 1163.51 626.60
  L 1199.76 599.37
  A 1.06 1.06 0.0 0 0 1199.98 597.89
  L 1198.88 596.43
  A 23.62 23.61 -36.9 0 0 1165.81 591.73
  L 1165.64 591.86
  A 23.62 23.61 -36.9 0 0 1160.92 624.92
  L 1162.02 626.39
  A 1.06 1.06 0.0 0 0 1163.51 626.60"
/>
</g>
<path fill="#ff0000" d="
  M 1444.86 491.12
  A 0.45 0.45 0.0 0 1 1444.41 491.57
  L 1194.87 491.57
  A 0.45 0.45 0.0 0 1 1194.42 491.12
  L 1194.42 440.48
  A 0.45 0.45 0.0 0 1 1194.87 440.03
  L 1444.41 440.03
  A 0.45 0.45 0.0 0 1 1444.86 440.48
  L 1444.86 491.12
  Z
  M 1399.19 465.49
  L 1393.72 460.65
  Q 1393.09 460.09 1392.67 460.82
  L 1391.34 463.13
  Q 1391.11 463.52 1391.45 463.82
  L 1397.37 469.07
  A 0.44 0.43 37.4 0 1 1397.45 469.63
  Q 1393.52 475.57 1387.69 478.74
  Q 1387.22 479.00 1387.45 479.49
  L 1388.92 482.64
  A 0.42 0.41 -28.0 0 0 1389.51 482.81
  C 1399.69 476.58 1404.90 465.49 1406.39 453.87
  A 2.39 2.39 0.0 0 0 1404.00 451.17
  L 1395.54 451.23
  Q 1395.03 451.24 1395.17 450.74
  L 1395.87 448.21
  Q 1396.05 447.59 1395.46 447.31
  L 1393.45 446.34
  Q 1392.91 446.08 1392.77 446.66
  Q 1390.37 456.53 1383.76 464.17
  A 0.51 0.50 47.6 0 0 1383.74 464.80
  L 1385.54 467.26
  Q 1385.80 467.61 1386.09 467.28
  Q 1390.42 462.32 1393.22 456.09
  Q 1393.42 455.65 1393.91 455.64
  L 1402.05 455.58
  Q 1402.71 455.58 1402.60 456.23
  Q 1401.76 461.31 1399.71 465.39
  Q 1399.52 465.78 1399.19 465.49
  Z
  M 1223.77 454.77
  A 0.49 0.49 0.0 0 0 1224.59 454.83
  L 1225.57 453.52
  A 0.49 0.49 0.0 0 0 1225.60 452.98
  L 1222.84 448.28
  A 0.49 0.49 0.0 0 0 1222.07 448.18
  L 1221.10 449.14
  A 0.49 0.49 0.0 0 0 1221.02 449.72
  L 1223.77 454.77
  Z
  M 1325.48 449.04
  A 0.45 0.45 0.0 0 0 1324.77 449.19
  L 1323.40 452.33
  A 0.45 0.45 0.0 0 0 1323.51 452.85
  L 1332.02 460.56
  A 0.45 0.45 0.0 0 0 1332.72 460.45
  L 1334.35 457.57
  A 0.45 0.45 0.0 0 0 1334.26 457.02
  L 1325.48 449.04
  Z
  M 1305.72 453.88
  L 1315.21 453.81
  Q 1315.73 453.81 1315.73 453.28
  L 1315.70 449.88
  Q 1315.70 449.33 1315.15 449.33
  L 1294.84 449.48
  A 0.51 0.51 0.0 0 0 1294.33 450.00
  L 1294.35 453.31
  A 0.57 0.57 0.0 0 0 1294.92 453.88
  L 1301.46 453.83
  Q 1301.84 453.83 1301.84 454.21
  L 1301.89 460.44
  A 0.34 0.34 0.0 0 1 1301.55 460.78
  L 1293.68 460.84
  Q 1293.20 460.84 1293.20 461.33
  L 1293.22 464.79
  Q 1293.23 465.34 1293.78 465.34
  L 1301.27 465.28
  Q 1301.86 465.28 1301.85 465.86
  Q 1301.83 471.82 1301.94 476.24
  Q 1302.08 481.71 1307.23 481.85
  Q 1309.25 481.91 1316.31 481.62
  Q 1316.89 481.60 1316.89 481.02
  L 1316.86 477.54
  A 0.50 0.49 -5.0 0 0 1316.28 477.06
  Q 1313.02 477.62 1307.80 477.52
  A 2.48 2.48 0.0 0 1 1305.37 475.06
  L 1305.30 465.79
  A 0.44 0.43 -0.7 0 1 1305.73 465.36
  L 1317.01 465.28
  Q 1317.30 465.28 1317.30 464.99
  L 1317.27 461.15
  Q 1317.27 460.77 1316.89 460.77
  L 1305.86 460.85
  Q 1305.35 460.86 1305.35 460.35
  L 1305.31 454.30
  Q 1305.30 453.89 1305.72 453.88
  Z
  M 1279.15 455.35
  Q 1274.09 470.46 1262.14 478.80
  Q 1261.59 479.19 1261.91 479.79
  L 1263.34 482.45
  A 0.53 0.52 58.6 0 0 1264.11 482.64
  Q 1270.84 477.91 1275.65 470.86
  Q 1275.95 470.43 1276.32 470.80
  Q 1281.92 476.35 1286.30 482.47
  Q 1286.61 482.90 1286.93 482.49
  L 1288.86 480.07
  A 0.59 0.57 -43.2 0 0 1288.89 479.38
  Q 1284.52 473.11 1278.58 467.45
  A 1.03 1.02 35.1 0 1 1278.37 466.26
  Q 1281.50 459.99 1283.47 453.42
  A 2.40 2.40 0.0 0 0 1281.16 450.33
  L 1265.37 450.45
  Q 1264.81 450.45 1264.82 451.01
  L 1264.84 454.24
  Q 1264.84 454.85 1265.46 454.85
  L 1278.72 454.75
  Q 1279.35 454.75 1279.15 455.35
  Z
  M 1369.94 455.36
  Q 1365.02 470.31 1353.08 478.77
  Q 1352.53 479.16 1352.83 479.77
  L 1354.12 482.39
  Q 1354.45 483.04 1355.04 482.61
  Q 1361.86 477.68 1366.57 470.78
  A 0.34 0.33 38.9 0 1 1367.08 470.73
  Q 1372.66 476.17 1377.05 482.33
  Q 1377.40 482.81 1377.79 482.37
  L 1379.61 480.32
  A 0.83 0.82 -41.9 0 0 1379.67 479.30
  Q 1375.46 473.19 1369.41 467.42
  Q 1369.06 467.08 1369.23 466.62
  Q 1369.64 465.49 1370.74 463.05
  Q 1372.80 458.47 1374.34 453.29
  A 2.31 2.30 8.1 0 0 1372.11 450.33
  L 1356.22 450.44
  Q 1355.65 450.45 1355.65 451.02
  L 1355.68 454.27
  Q 1355.68 454.85 1356.26 454.85
  L 1369.50 454.75
  Q 1370.15 454.75 1369.94 455.36
  Z
  M 1219.81 451.14
  A 0.37 0.37 0.0 0 0 1219.23 451.07
  L 1218.13 452.19
  A 0.37 0.37 0.0 0 0 1218.07 452.62
  L 1220.93 457.96
  A 0.37 0.37 0.0 0 0 1221.54 458.01
  L 1222.69 456.59
  A 0.37 0.37 0.0 0 0 1222.72 456.17
  L 1219.81 451.14
  Z
  M 1212.11 458.80
  Q 1219.54 469.88 1226.86 479.07
  Q 1226.97 479.21 1227.07 479.05
  L 1229.16 475.78
  Q 1229.30 475.55 1229.13 475.34
  Q 1221.40 465.58 1214.30 455.25
  Q 1212.69 452.90 1210.68 453.62
  Q 1209.43 454.06 1208.30 455.91
  Q 1203.91 463.14 1200.33 467.91
  Q 1200.13 468.17 1200.33 468.42
  L 1202.71 471.46
  A 0.19 0.19 0.0 0 0 1203.02 471.44
  L 1211.07 458.81
  A 0.62 0.62 0.0 0 1 1212.11 458.80
  Z
  M 1325.58 478.55
  Q 1324.85 478.84 1325.11 479.57
  L 1326.08 482.43
  Q 1326.31 483.11 1326.98 482.85
  C 1338.27 478.51 1344.96 468.14 1348.05 456.79
  Q 1348.12 456.55 1347.90 456.42
  L 1345.32 454.93
  Q 1345.10 454.80 1345.02 455.05
  C 1342.02 465.10 1335.51 474.71 1325.58 478.55
  Z
  M 1256.80 463.04
  A 0.37 0.37 0.0 0 0 1256.43 462.67
  L 1234.07 462.67
  A 0.37 0.37 0.0 0 0 1233.70 463.04
  L 1233.70 466.80
  A 0.37 0.37 0.0 0 0 1234.07 467.17
  L 1256.43 467.17
  A 0.37 0.37 0.0 0 0 1256.80 466.80
  L 1256.80 463.04
  Z
  M 1437.93 463.09
  A 0.42 0.42 0.0 0 0 1437.51 462.67
  L 1415.23 462.67
  A 0.42 0.42 0.0 0 0 1414.81 463.09
  L 1414.81 466.75
  A 0.42 0.42 0.0 0 0 1415.23 467.17
  L 1437.51 467.17
  A 0.42 0.42 0.0 0 0 1437.93 466.75
  L 1437.93 463.09
  Z"
/>
<path fill="#feffff" d="
  M 1399.71 465.39
  Q 1401.76 461.31 1402.60 456.23
  Q 1402.71 455.58 1402.05 455.58
  L 1393.91 455.64
  Q 1393.42 455.65 1393.22 456.09
  Q 1390.42 462.32 1386.09 467.28
  Q 1385.80 467.61 1385.54 467.26
  L 1383.74 464.80
  A 0.51 0.50 47.6 0 1 1383.76 464.17
  Q 1390.37 456.53 1392.77 446.66
  Q 1392.91 446.08 1393.45 446.34
  L 1395.46 447.31
  Q 1396.05 447.59 1395.87 448.21
  L 1395.17 450.74
  Q 1395.03 451.24 1395.54 451.23
  L 1404.00 451.17
  A 2.39 2.39 0.0 0 1 1406.39 453.87
  C 1404.90 465.49 1399.69 476.58 1389.51 482.81
  A 0.42 0.41 -28.0 0 1 1388.92 482.64
  L 1387.45 479.49
  Q 1387.22 479.00 1387.69 478.74
  Q 1393.52 475.57 1397.45 469.63
  A 0.44 0.43 37.4 0 0 1397.37 469.07
  L 1391.45 463.82
  Q 1391.11 463.52 1391.34 463.13
  L 1392.67 460.82
  Q 1393.09 460.09 1393.72 460.65
  L 1399.19 465.49
  Q 1399.52 465.78 1399.71 465.39
  Z"
/>
<path fill="#0053ff" d="
  M 1063.98 626.39
  C 1043.00 640.90 1016.13 633.22 996.38 620.75
  Q 991.08 617.40 988.28 615.36
  Q 987.83 615.03 987.66 615.56
  L 976.94 650.09
  A 0.47 0.47 0.0 0 1 976.36 650.40
  L 933.05 637.75
  A 0.75 0.75 0.0 0 1 932.51 637.06
  L 931.80 621.05
  A 0.86 0.85 -88.1 0 0 931.04 620.23
  L 889.97 615.38
  Q 889.15 615.28 889.24 614.46
  L 892.06 590.64
  A 0.41 0.41 0.0 0 0 891.41 590.27
  Q 874.32 602.91 853.44 604.06
  Q 852.82 604.10 853.02 604.68
  L 864.72 638.93
  A 0.21 0.21 0.0 0 1 864.52 639.21
  L 796.60 639.70
  Q 795.96 639.71 795.77 639.09
  L 787.79 612.10
  Q 787.43 610.89 787.00 612.08
  L 780.78 629.42
  A 0.21 0.21 0.0 0 1 780.41 629.48
  L 761.30 605.13
  Q 760.75 604.41 760.77 605.32
  L 761.22 625.62
  A 0.38 0.38 0.0 0 1 760.85 626.01
  L 700.73 627.36
  A 0.45 0.45 0.0 0 1 700.27 626.91
  L 699.17 475.50
  Q 699.16 474.89 699.76 474.78
  L 749.78 466.09
  A 0.98 0.98 0.0 0 0 750.60 465.10
  L 750.45 458.23
  Q 750.43 457.60 751.05 457.49
  L 799.09 449.15
  Q 799.84 449.02 800.08 449.73
  L 819.90 507.77
  A 0.44 0.44 0.0 0 0 820.63 507.94
  Q 840.37 487.67 868.50 487.15
  Q 885.67 486.83 900.01 497.39
  Q 900.17 497.51 900.19 497.31
  L 901.15 489.16
  Q 901.18 488.90 901.00 488.72
  Q 900.62 488.36 899.60 488.14
  Q 893.85 486.92 891.04 486.25
  Q 890.62 486.15 890.60 485.72
  L 888.92 447.78
  Q 888.90 447.19 889.48 447.31
  Q 891.92 447.82 903.59 450.21
  Q 934.31 456.53 958.98 461.03
  A 0.96 0.96 0.0 0 1 959.75 461.77
  Q 962.87 476.50 965.09 484.89
  Q 965.40 486.09 965.67 484.88
  L 970.21 464.07
  Q 970.34 463.49 970.93 463.62
  L 1030.17 476.56
  A 0.42 0.42 0.0 0 1 1030.48 477.09
  L 1028.77 482.96
  A 0.25 0.25 0.0 0 0 1029.07 483.27
  Q 1033.57 482.20 1039.02 482.32
  Q 1064.57 482.91 1082.96 500.63
  Q 1083.32 500.98 1083.53 500.53
  L 1098.07 468.78
  A 0.59 0.58 -67.5 0 1 1098.80 468.47
  L 1220.04 511.94
  A 0.39 0.39 0.0 0 1 1220.26 512.47
  L 1197.58 559.62
  Q 1197.35 560.10 1197.87 560.23
  Q 1227.05 568.12 1241.98 594.48
  A 0.30 0.30 0.0 0 0 1242.50 594.48
  L 1257.98 567.67
  Q 1258.12 567.44 1257.88 567.32
  L 1244.82 561.05
  A 0.48 0.48 0.0 0 1 1244.59 560.44
  L 1264.85 511.35
  A 0.92 0.91 -70.2 0 1 1265.97 510.82
  Q 1299.54 521.29 1327.97 542.89
  C 1344.84 555.71 1360.59 571.91 1369.20 591.08
  Q 1373.95 601.65 1374.17 613.62
  Q 1374.18 614.01 1374.56 613.95
  Q 1391.98 611.18 1407.93 619.17
  C 1430.43 630.43 1442.10 651.87 1444.67 676.53
  A 0.73 0.73 0.0 0 1 1444.26 677.26
  L 1412.47 692.99
  Q 1412.02 693.21 1412.16 693.70
  Q 1417.11 710.55 1411.24 726.71
  Q 1403.67 747.55 1384.20 756.90
  C 1370.36 763.55 1354.00 761.58 1340.59 753.89
  Q 1329.88 747.76 1321.21 738.13
  Q 1318.53 735.16 1315.98 732.14
  Q 1314.95 730.92 1313.39 730.55
  L 1252.98 716.14
  Q 1252.59 716.05 1252.69 715.67
  L 1264.27 670.89
  Q 1264.51 669.95 1263.91 670.71
  L 1238.32 702.74
  A 0.43 0.37 -53.1 0 1 1237.79 702.86
  L 1196.80 674.27
  Q 1196.18 673.84 1195.44 673.98
  Q 1165.73 679.35 1141.41 663.11
  Q 1128.74 654.64 1122.33 641.28
  Q 1122.07 640.74 1121.87 641.27
  L 1114.10 662.00
  Q 1113.92 662.47 1113.44 662.34
  L 1055.43 646.22
  Q 1054.79 646.05 1055.08 645.45
  L 1064.17 626.55
  Q 1064.38 626.12 1063.98 626.39
  Z
  M 939.35 541.28
  Q 939.76 538.85 939.87 541.31
  L 943.68 627.40
  A 0.59 0.58 7.1 0 0 944.10 627.93
  L 967.91 634.54
  A 0.27 0.27 0.0 0 0 968.24 634.36
  L 976.54 607.63
  A 1.93 1.93 0.0 0 0 975.98 605.60
  L 971.72 601.82
  A 0.66 0.65 44.1 0 1 971.70 600.85
  Q 975.43 597.27 980.07 592.56
  Q 981.60 591.01 982.64 587.63
  Q 990.18 562.99 997.82 538.06
  A 4.26 4.25 43.6 0 0 997.75 535.38
  Q 996.42 531.72 995.82 529.73
  C 991.71 515.98 995.10 503.02 1005.72 493.70
  Q 1007.22 492.38 1011.72 489.19
  Q 1013.24 488.10 1013.77 486.31
  A 1.06 1.05 -76.4 0 0 1012.96 484.98
  L 979.48 478.38
  A 0.49 0.48 11.5 0 0 978.91 478.75
  L 965.04 542.22
  Q 964.87 543.01 964.45 542.32
  Q 964.25 541.99 964.07 541.21
  Q 956.00 506.42 947.92 471.82
  A 0.66 0.66 0.0 0 0 947.40 471.33
  L 902.45 463.26
  A 0.35 0.35 0.0 0 0 902.04 463.59
  L 901.22 475.02
  A 1.04 1.04 0.0 0 0 902.05 476.11
  L 910.28 477.73
  A 1.46 1.46 0.0 0 1 911.46 479.29
  Q 910.71 488.63 909.59 505.25
  Q 909.50 506.62 909.85 507.13
  Q 922.80 525.74 918.86 548.03
  C 916.92 558.98 912.06 568.06 905.33 576.99
  A 6.87 6.83 65.6 0 0 903.97 580.64
  L 902.34 603.59
  Q 902.29 604.26 902.96 604.34
  L 928.63 607.37
  A 0.50 0.49 7.8 0 0 929.18 606.96
  Q 935.95 561.54 939.35 541.28
  Z
  M 765.06 524.18
  L 749.07 480.90
  Q 748.67 479.82 747.53 480.01
  L 714.21 485.80
  A 0.79 0.78 85.3 0 0 713.56 486.58
  L 714.48 612.31
  A 0.65 0.65 0.0 0 0 715.13 612.96
  L 749.80 612.70
  A 0.55 0.55 0.0 0 0 750.35 612.13
  Q 749.72 587.58 749.51 561.52
  Q 749.51 560.93 749.70 560.59
  A 0.29 0.28 -46.9 0 1 750.18 560.57
  L 777.86 600.13
  A 0.33 0.33 0.0 0 0 778.46 600.00
  L 785.56 564.01
  Q 785.69 563.35 786.01 563.94
  Q 787.08 565.89 788.53 570.21
  Q 798.00 598.46 806.80 624.98
  A 0.98 0.98 0.0 0 0 807.76 625.65
  L 844.54 624.82
  A 0.41 0.41 0.0 0 0 844.92 624.27
  L 837.93 603.78
  A 2.01 2.00 87.7 0 0 836.54 602.49
  C 819.08 597.87 807.26 586.01 802.74 568.93
  C 798.56 553.16 801.65 536.39 809.68 522.48
  A 2.55 2.53 -39.4 0 0 809.89 520.39
  L 790.98 465.00
  A 0.53 0.52 75.2 0 0 790.39 464.65
  L 766.29 468.83
  Q 765.52 468.97 765.52 469.75
  L 765.92 524.03
  A 0.45 0.44 34.8 0 1 765.06 524.18
  Z
  M 1121.45 532.26
  L 1071.54 636.05
  A 0.59 0.59 0.0 0 0 1071.91 636.88
  L 1107.83 646.85
  Q 1108.41 647.02 1108.61 646.45
  L 1117.03 622.98
  A 4.16 3.96 -36.5 0 0 1117.27 621.61
  Q 1117.26 616.32 1117.54 613.02
  Q 1118.86 597.05 1127.59 584.67
  Q 1128.84 582.90 1131.99 579.38
  Q 1135.27 575.71 1136.00 573.74
  Q 1141.71 558.38 1147.51 543.32
  Q 1147.79 542.60 1148.52 542.86
  L 1186.27 556.40
  A 0.86 0.85 22.4 0 0 1187.33 555.96
  L 1204.07 521.16
  A 0.53 0.53 0.0 0 0 1203.77 520.43
  L 1103.24 484.39
  A 0.37 0.37 0.0 0 0 1102.78 484.59
  L 1091.49 509.23
  A 1.12 1.11 41.0 0 0 1091.57 510.31
  L 1098.40 520.94
  Q 1099.21 522.20 1100.60 522.77
  L 1121.04 531.20
  A 0.79 0.78 24.1 0 1 1121.45 532.26
  Z
  M 1036.96 519.99
  C 1038.69 516.34 1043.11 516.24 1046.55 517.51
  C 1056.41 521.18 1064.58 531.38 1069.93 540.36
  A 0.46 0.45 50.3 0 0 1070.66 540.43
  L 1085.57 523.61
  A 1.63 1.62 52.4 0 0 1085.80 521.81
  Q 1072.82 496.36 1044.87 494.12
  C 1036.37 493.43 1027.50 494.97 1019.94 498.93
  C 1004.50 507.00 1001.39 522.39 1010.39 536.90
  Q 1017.74 548.75 1030.25 558.29
  Q 1036.74 563.23 1038.78 564.99
  C 1046.80 571.92 1053.80 585.03 1043.53 592.99
  C 1038.92 596.56 1031.25 596.36 1025.92 594.56
  Q 1015.51 591.06 1006.90 582.99
  A 0.84 0.83 -45.7 0 0 1005.73 583.01
  L 988.28 600.46
  Q 987.70 601.04 988.29 601.60
  Q 998.40 611.18 1010.43 617.32
  C 1025.57 625.05 1043.38 626.57 1057.37 616.45
  C 1070.52 606.93 1076.66 590.74 1073.81 574.66
  Q 1072.08 564.91 1064.08 555.93
  Q 1063.02 554.73 1055.03 548.56
  Q 1046.95 542.33 1041.33 534.77
  C 1038.68 531.20 1034.86 524.46 1036.96 519.99
  Z
  M 861.64 550.06
  A 0.88 0.88 0.0 0 1 861.13 551.16
  L 817.87 568.14
  Q 816.90 568.52 817.38 569.45
  Q 826.64 587.24 846.93 590.27
  Q 856.56 591.71 866.47 588.96
  Q 888.30 582.88 900.69 563.23
  C 909.18 549.77 911.61 532.10 903.92 518.04
  C 892.18 496.55 864.68 493.67 844.47 504.21
  C 825.21 514.26 812.29 533.60 813.33 555.71
  A 1.07 1.06 78.5 0 0 814.76 556.66
  L 855.98 541.43
  A 1.77 1.76 -24.9 0 1 858.13 542.21
  Q 860.21 545.86 861.64 550.06
  Z
  M 1307.18 652.45
  Q 1314.07 651.13 1318.96 649.94
  Q 1332.71 646.60 1343.37 639.14
  Q 1346.94 636.64 1347.88 634.87
  C 1349.89 631.13 1351.41 628.55 1353.87 625.35
  Q 1356.52 621.91 1356.74 621.20
  C 1363.51 599.47 1346.59 575.93 1331.10 562.20
  Q 1304.96 539.05 1270.12 528.28
  A 0.54 0.54 0.0 0 0 1269.46 528.59
  L 1259.55 552.60
  Q 1259.38 553.02 1259.77 553.25
  L 1275.39 562.27
  A 0.64 0.63 30.0 0 1 1275.63 563.14
  L 1235.50 632.65
  Q 1235.16 633.23 1235.58 633.76
  L 1248.18 649.82
  Q 1248.87 650.71 1247.93 651.34
  Q 1232.14 661.96 1214.73 668.86
  A 1.32 1.28 -15.7 0 0 1213.91 670.27
  Q 1213.93 670.40 1214.48 670.78
  Q 1224.84 677.93 1235.08 685.00
  A 0.41 0.40 -53.0 0 0 1235.63 684.92
  L 1268.14 644.22
  A 0.44 0.44 0.0 0 1 1268.64 644.08
  L 1282.78 649.15
  Q 1283.29 649.33 1283.16 649.86
  L 1268.65 705.99
  Q 1268.54 706.41 1268.97 706.51
  L 1303.78 714.81
  A 0.19 0.19 0.0 0 0 1303.99 714.53
  L 1298.90 705.34
  Q 1298.44 704.51 1299.31 704.10
  L 1306.94 700.54
  A 1.32 1.32 0.0 0 0 1307.70 699.33
  L 1306.65 653.10
  Q 1306.64 652.55 1307.18 652.45
  Z
  M 1105.74 540.03
  A 0.46 0.46 0.0 0 0 1105.50 539.40
  L 1092.09 533.87
  A 1.02 1.01 32.9 0 0 1090.96 534.11
  L 1075.01 550.98
  Q 1074.66 551.35 1074.96 551.76
  Q 1085.20 565.45 1085.52 582.31
  A 0.14 0.14 0.0 0 0 1085.79 582.35
  Q 1086.81 579.45 1087.67 577.66
  Q 1097.34 557.40 1105.74 540.03
  Z
  M 1005.76 567.31
  A 0.41 0.40 -47.5 0 1 1006.34 567.28
  C 1011.95 572.55 1028.57 586.83 1035.98 584.65
  Q 1037.16 584.31 1037.36 583.23
  C 1038.18 578.85 1032.28 574.08 1028.87 571.44
  Q 1016.52 561.85 1007.95 551.44
  Q 1007.62 551.04 1007.47 551.53
  L 1001.33 571.31
  Q 1000.84 572.86 1001.92 571.64
  L 1005.76 567.31
  Z
  M 1159.53 561.64
  A 0.35 0.35 0.0 0 0 1159.49 560.98
  L 1153.46 559.27
  A 0.35 0.35 0.0 0 0 1153.04 559.47
  L 1150.87 564.52
  A 0.35 0.35 0.0 0 0 1151.32 564.98
  L 1159.53 561.64
  Z
  M 1179.81 631.77
  L 1228.26 597.89
  A 0.88 0.88 0.0 0 0 1228.52 596.73
  Q 1218.25 578.46 1198.08 573.06
  C 1169.23 565.33 1135.22 578.98 1130.86 611.50
  Q 1128.03 632.54 1142.07 646.77
  C 1152.24 657.07 1166.67 661.94 1181.01 662.01
  C 1198.58 662.08 1214.87 658.18 1229.03 648.45
  A 0.59 0.58 54.7 0 0 1229.17 647.62
  L 1212.62 625.02
  A 0.68 0.67 -37.8 0 0 1211.65 624.90
  Q 1198.06 636.12 1180.02 632.73
  A 0.54 0.53 32.9 0 1 1179.81 631.77
  Z
  M 1233.27 610.38
  Q 1233.51 609.98 1233.13 610.26
  Q 1226.99 614.83 1223.69 616.86
  Q 1223.19 617.17 1223.48 617.68
  Q 1224.54 619.59 1226.36 621.32
  Q 1226.75 621.69 1227.01 621.23
  L 1233.27 610.38
  Z
  M 1392.26 649.67
  C 1396.64 650.34 1400.45 654.60 1402.71 658.28
  Q 1409.18 668.76 1411.20 681.28
  A 0.57 0.57 0.0 0 0 1412.03 681.69
  L 1431.98 671.01
  A 0.83 0.81 -16.9 0 0 1432.42 670.21
  Q 1430.89 649.66 1415.24 636.77
  C 1404.80 628.17 1390.18 623.49 1376.81 626.04
  C 1357.93 629.64 1353.10 646.38 1358.21 663.03
  Q 1361.25 672.94 1366.58 681.73
  Q 1371.66 690.12 1374.02 694.00
  C 1377.61 699.88 1379.56 709.59 1375.92 715.80
  C 1370.90 724.36 1360.41 722.92 1353.16 717.82
  C 1346.51 713.15 1341.77 706.65 1337.87 699.38
  Q 1337.57 698.82 1336.99 699.09
  L 1314.30 709.66
  Q 1313.96 709.83 1314.12 710.17
  C 1321.42 725.13 1333.52 740.57 1349.04 746.53
  Q 1368.47 753.98 1385.61 742.34
  Q 1394.49 736.32 1399.24 726.77
  Q 1407.38 710.39 1400.68 694.23
  Q 1399.94 692.44 1395.11 684.52
  C 1389.83 675.86 1384.99 666.37 1385.43 656.63
  Q 1385.62 652.29 1389.08 650.07
  Q 1390.19 649.35 1392.26 649.67
  Z
  M 1343.07 685.00
  Q 1348.84 696.76 1356.55 705.75
  C 1357.82 707.23 1364.18 713.50 1366.32 710.13
  C 1368.27 707.07 1365.55 701.27 1363.94 698.76
  Q 1354.64 684.29 1349.71 670.34
  Q 1347.07 662.86 1346.13 654.35
  Q 1346.07 653.82 1345.60 654.08
  Q 1334.39 660.40 1320.51 664.77
  Q 1319.97 664.95 1319.98 665.52
  L 1320.63 694.22
  Q 1320.64 694.67 1321.04 694.48
  L 1342.10 684.66
  A 0.74 0.74 0.0 0 1 1343.07 685.00
  Z"
/>
<path fill="#feffff" d="
  M 1223.77 454.77
  L 1221.02 449.72
  A 0.49 0.49 0.0 0 1 1221.10 449.14
  L 1222.07 448.18
  A 0.49 0.49 0.0 0 1 1222.84 448.28
  L 1225.60 452.98
  A 0.49 0.49 0.0 0 1 1225.57 453.52
  L 1224.59 454.83
  A 0.49 0.49 0.0 0 1 1223.77 454.77
  Z"
/>
<path fill="#feffff" d="
  M 1325.48 449.04
  L 1334.26 457.02
  A 0.45 0.45 0.0 0 1 1334.35 457.57
  L 1332.72 460.45
  A 0.45 0.45 0.0 0 1 1332.02 460.56
  L 1323.51 452.85
  A 0.45 0.45 0.0 0 1 1323.40 452.33
  L 1324.77 449.19
  A 0.45 0.45 0.0 0 1 1325.48 449.04
  Z"
/>
<path fill="#feffff" d="
  M 1305.72 453.88
  Q 1305.30 453.89 1305.31 454.30
  L 1305.35 460.35
  Q 1305.35 460.86 1305.86 460.85
  L 1316.89 460.77
  Q 1317.27 460.77 1317.27 461.15
  L 1317.30 464.99
  Q 1317.30 465.28 1317.01 465.28
  L 1305.73 465.36
  A 0.44 0.43 -0.7 0 0 1305.30 465.79
  L 1305.37 475.06
  A 2.48 2.48 0.0 0 0 1307.80 477.52
  Q 1313.02 477.62 1316.28 477.06
  A 0.50 0.49 -5.0 0 1 1316.86 477.54
  L 1316.89 481.02
  Q 1316.89 481.60 1316.31 481.62
  Q 1309.25 481.91 1307.23 481.85
  Q 1302.08 481.71 1301.94 476.24
  Q 1301.83 471.82 1301.85 465.86
  Q 1301.86 465.28 1301.27 465.28
  L 1293.78 465.34
  Q 1293.23 465.34 1293.22 464.79
  L 1293.20 461.33
  Q 1293.20 460.84 1293.68 460.84
  L 1301.55 460.78
  A 0.34 0.34 0.0 0 0 1301.89 460.44
  L 1301.84 454.21
  Q 1301.84 453.83 1301.46 453.83
  L 1294.92 453.88
  A 0.57 0.57 0.0 0 1 1294.35 453.31
  L 1294.33 450.00
  A 0.51 0.51 0.0 0 1 1294.84 449.48
  L 1315.15 449.33
  Q 1315.70 449.33 1315.70 449.88
  L 1315.73 453.28
  Q 1315.73 453.81 1315.21 453.81
  L 1305.72 453.88
  Z"
/>
<path fill="#feffff" d="
  M 1278.72 454.75
  L 1265.46 454.85
  Q 1264.84 454.85 1264.84 454.24
  L 1264.82 451.01
  Q 1264.81 450.45 1265.37 450.45
  L 1281.16 450.33
  A 2.40 2.40 0.0 0 1 1283.47 453.42
  Q 1281.50 459.99 1278.37 466.26
  A 1.03 1.02 35.1 0 0 1278.58 467.45
  Q 1284.52 473.11 1288.89 479.38
  A 0.59 0.57 -43.2 0 1 1288.86 480.07
  L 1286.93 482.49
  Q 1286.61 482.90 1286.30 482.47
  Q 1281.92 476.35 1276.32 470.80
  Q 1275.95 470.43 1275.65 470.86
  Q 1270.84 477.91 1264.11 482.64
  A 0.53 0.52 58.6 0 1 1263.34 482.45
  L 1261.91 479.79
  Q 1261.59 479.19 1262.14 478.80
  Q 1274.09 470.46 1279.15 455.35
  Q 1279.35 454.75 1278.72 454.75
  Z"
/>
<path fill="#feffff" d="
  M 1369.50 454.75
  L 1356.26 454.85
  Q 1355.68 454.85 1355.68 454.27
  L 1355.65 451.02
  Q 1355.65 450.45 1356.22 450.44
  L 1372.11 450.33
  A 2.31 2.30 8.1 0 1 1374.34 453.29
  Q 1372.80 458.47 1370.74 463.05
  Q 1369.64 465.49 1369.23 466.62
  Q 1369.06 467.08 1369.41 467.42
  Q 1375.46 473.19 1379.67 479.30
  A 0.83 0.82 -41.9 0 1 1379.61 480.32
  L 1377.79 482.37
  Q 1377.40 482.81 1377.05 482.33
  Q 1372.66 476.17 1367.08 470.73
  A 0.34 0.33 38.9 0 0 1366.57 470.78
  Q 1361.86 477.68 1355.04 482.61
  Q 1354.45 483.04 1354.12 482.39
  L 1352.83 479.77
  Q 1352.53 479.16 1353.08 478.77
  Q 1365.02 470.31 1369.94 455.36
  Q 1370.15 454.75 1369.50 454.75
  Z"
/>
<path fill="#feffff" d="
  M 1219.81 451.14
  L 1222.72 456.17
  A 0.37 0.37 0.0 0 1 1222.69 456.59
  L 1221.54 458.01
  A 0.37 0.37 0.0 0 1 1220.93 457.96
  L 1218.07 452.62
  A 0.37 0.37 0.0 0 1 1218.13 452.19
  L 1219.23 451.07
  A 0.37 0.37 0.0 0 1 1219.81 451.14
  Z"
/>
<path fill="#feffff" d="
  M 1212.11 458.80
  A 0.62 0.62 0.0 0 0 1211.07 458.81
  L 1203.02 471.44
  A 0.19 0.19 0.0 0 1 1202.71 471.46
  L 1200.33 468.42
  Q 1200.13 468.17 1200.33 467.91
  Q 1203.91 463.14 1208.30 455.91
  Q 1209.43 454.06 1210.68 453.62
  Q 1212.69 452.90 1214.30 455.25
  Q 1221.40 465.58 1229.13 475.34
  Q 1229.30 475.55 1229.16 475.78
  L 1227.07 479.05
  Q 1226.97 479.21 1226.86 479.07
  Q 1219.54 469.88 1212.11 458.80
  Z"
/>
<path fill="#feffff" d="
  M 1325.58 478.55
  C 1335.51 474.71 1342.02 465.10 1345.02 455.05
  Q 1345.10 454.80 1345.32 454.93
  L 1347.90 456.42
  Q 1348.12 456.55 1348.05 456.79
  C 1344.96 468.14 1338.27 478.51 1326.98 482.85
  Q 1326.31 483.11 1326.08 482.43
  L 1325.11 479.57
  Q 1324.85 478.84 1325.58 478.55
  Z"
/>
<rect fill="#feffff" x="1233.70" y="462.67" width="23.10" height="4.50" rx="0.37"/>
<rect fill="#feffff" x="1414.81" y="462.67" width="23.12" height="4.50" rx="0.42"/>
<path fill="#feffff" d="
  M 939.35 541.28
  Q 935.95 561.54 929.18 606.96
  A 0.50 0.49 7.8 0 1 928.63 607.37
  L 902.96 604.34
  Q 902.29 604.26 902.34 603.59
  L 903.97 580.64
  A 6.87 6.83 65.6 0 1 905.33 576.99
  C 912.06 568.06 916.92 558.98 918.86 548.03
  Q 922.80 525.74 909.85 507.13
  Q 909.50 506.62 909.59 505.25
  Q 910.71 488.63 911.46 479.29
  A 1.46 1.46 0.0 0 0 910.28 477.73
  L 902.05 476.11
  A 1.04 1.04 0.0 0 1 901.22 475.02
  L 902.04 463.59
  A 0.35 0.35 0.0 0 1 902.45 463.26
  L 947.40 471.33
  A 0.66 0.66 0.0 0 1 947.92 471.82
  Q 956.00 506.42 964.07 541.21
  Q 964.25 541.99 964.45 542.32
  Q 964.87 543.01 965.04 542.22
  L 978.91 478.75
  A 0.49 0.48 11.5 0 1 979.48 478.38
  L 1012.96 484.98
  A 1.06 1.05 -76.4 0 1 1013.77 486.31
  Q 1013.24 488.10 1011.72 489.19
  Q 1007.22 492.38 1005.72 493.70
  C 995.10 503.02 991.71 515.98 995.82 529.73
  Q 996.42 531.72 997.75 535.38
  A 4.26 4.25 43.6 0 1 997.82 538.06
  Q 990.18 562.99 982.64 587.63
  Q 981.60 591.01 980.07 592.56
  Q 975.43 597.27 971.70 600.85
  A 0.66 0.65 44.1 0 0 971.72 601.82
  L 975.98 605.60
  A 1.93 1.93 0.0 0 1 976.54 607.63
  L 968.24 634.36
  A 0.27 0.27 0.0 0 1 967.91 634.54
  L 944.10 627.93
  A 0.59 0.58 7.1 0 1 943.68 627.40
  L 939.87 541.31
  Q 939.76 538.85 939.35 541.28
  Z"
/>
<path fill="#feffff" d="
  M 765.06 524.18
  A 0.45 0.44 34.8 0 0 765.92 524.03
  L 765.52 469.75
  Q 765.52 468.97 766.29 468.83
  L 790.39 464.65
  A 0.53 0.52 75.2 0 1 790.98 465.00
  L 809.89 520.39
  A 2.55 2.53 -39.4 0 1 809.68 522.48
  C 801.65 536.39 798.56 553.16 802.74 568.93
  C 807.26 586.01 819.08 597.87 836.54 602.49
  A 2.01 2.00 87.7 0 1 837.93 603.78
  L 844.92 624.27
  A 0.41 0.41 0.0 0 1 844.54 624.82
  L 807.76 625.65
  A 0.98 0.98 0.0 0 1 806.80 624.98
  Q 798.00 598.46 788.53 570.21
  Q 787.08 565.89 786.01 563.94
  Q 785.69 563.35 785.56 564.01
  L 778.46 600.00
  A 0.33 0.33 0.0 0 1 777.86 600.13
  L 750.18 560.57
  A 0.29 0.28 -46.9 0 0 749.70 560.59
  Q 749.51 560.93 749.51 561.52
  Q 749.72 587.58 750.35 612.13
  A 0.55 0.55 0.0 0 1 749.80 612.70
  L 715.13 612.96
  A 0.65 0.65 0.0 0 1 714.48 612.31
  L 713.56 486.58
  A 0.79 0.78 85.3 0 1 714.21 485.80
  L 747.53 480.01
  Q 748.67 479.82 749.07 480.90
  L 765.06 524.18
  Z"
/>
<path fill="#feffff" d="
  M 1121.45 532.26
  A 0.79 0.78 24.1 0 0 1121.04 531.20
  L 1100.60 522.77
  Q 1099.21 522.20 1098.40 520.94
  L 1091.57 510.31
  A 1.12 1.11 41.0 0 1 1091.49 509.23
  L 1102.78 484.59
  A 0.37 0.37 0.0 0 1 1103.24 484.39
  L 1203.77 520.43
  A 0.53 0.53 0.0 0 1 1204.07 521.16
  L 1187.33 555.96
  A 0.86 0.85 22.4 0 1 1186.27 556.40
  L 1148.52 542.86
  Q 1147.79 542.60 1147.51 543.32
  Q 1141.71 558.38 1136.00 573.74
  Q 1135.27 575.71 1131.99 579.38
  Q 1128.84 582.90 1127.59 584.67
  Q 1118.86 597.05 1117.54 613.02
  Q 1117.26 616.32 1117.27 621.61
  A 4.16 3.96 -36.5 0 1 1117.03 622.98
  L 1108.61 646.45
  Q 1108.41 647.02 1107.83 646.85
  L 1071.91 636.88
  A 0.59 0.59 0.0 0 1 1071.54 636.05
  L 1121.45 532.26
  Z"
/>
<path fill="#feffff" d="
  M 1036.96 519.99
  C 1034.86 524.46 1038.68 531.20 1041.33 534.77
  Q 1046.95 542.33 1055.03 548.56
  Q 1063.02 554.73 1064.08 555.93
  Q 1072.08 564.91 1073.81 574.66
  C 1076.66 590.74 1070.52 606.93 1057.37 616.45
  C 1043.38 626.57 1025.57 625.05 1010.43 617.32
  Q 998.40 611.18 988.29 601.60
  Q 987.70 601.04 988.28 600.46
  L 1005.73 583.01
  A 0.84 0.83 -45.7 0 1 1006.90 582.99
  Q 1015.51 591.06 1025.92 594.56
  C 1031.25 596.36 1038.92 596.56 1043.53 592.99
  C 1053.80 585.03 1046.80 571.92 1038.78 564.99
  Q 1036.74 563.23 1030.25 558.29
  Q 1017.74 548.75 1010.39 536.90
  C 1001.39 522.39 1004.50 507.00 1019.94 498.93
  C 1027.50 494.97 1036.37 493.43 1044.87 494.12
  Q 1072.82 496.36 1085.80 521.81
  A 1.63 1.62 52.4 0 1 1085.57 523.61
  L 1070.66 540.43
  A 0.46 0.45 50.3 0 1 1069.93 540.36
  C 1064.58 531.38 1056.41 521.18 1046.55 517.51
  C 1043.11 516.24 1038.69 516.34 1036.96 519.99
  Z"
/>
<path fill="#0053ff" d="
  M 539.26 532.34
  C 540.36 530.75 541.47 528.74 542.47 527.43
  C 552.23 514.71 567.57 505.83 583.37 502.88
  C 609.28 498.04 633.95 507.68 650.75 527.53
  Q 650.96 527.78 650.75 528.04
  L 634.16 548.82
  Q 633.77 549.31 634.27 549.67
  L 667.17 573.48
  Q 667.84 573.96 667.31 574.60
  C 653.81 590.87 637.72 605.30 618.58 613.53
  Q 594.93 623.69 570.47 616.84
  Q 564.12 615.06 557.99 611.74
  Q 557.52 611.49 557.60 612.01
  C 559.73 627.48 556.42 643.35 547.30 655.98
  C 535.66 672.10 516.57 679.85 496.83 680.85
  C 474.77 681.96 452.53 676.31 431.35 668.16
  Q 430.65 667.89 430.97 667.21
  L 432.83 663.15
  Q 433.02 662.73 432.61 662.94
  L 420.92 668.72
  Q 420.50 668.93 420.30 668.50
  L 414.79 656.68
  A 0.97 0.97 0.0 0 0 413.72 656.14
  L 399.89 659.09
  Q 399.36 659.20 399.30 659.74
  L 397.81 672.36
  Q 397.75 672.88 397.23 672.93
  L 386.20 674.14
  Q 385.68 674.20 385.53 674.70
  Q 385.06 676.23 383.82 680.58
  Q 382.40 685.58 378.34 692.85
  Q 371.64 704.81 359.20 716.21
  Q 344.45 729.74 324.53 741.28
  Q 305.76 752.17 284.85 761.03
  A 0.39 0.39 0.0 0 1 284.33 760.83
  L 223.63 630.66
  A 0.60 0.59 -30.3 0 0 222.74 630.43
  L 217.04 634.61
  A 0.52 0.52 0.0 0 1 216.29 634.47
  L 188.24 590.86
  A 1.38 1.36 -47.4 0 1 188.19 589.46
  Q 191.11 584.14 194.98 580.22
  Q 203.64 571.41 216.72 563.93
  C 236.68 552.52 260.81 544.60 284.50 543.81
  Q 296.41 543.42 307.18 546.84
  C 336.28 556.08 337.75 586.03 332.40 610.94
  Q 332.28 611.48 332.84 611.45
  Q 343.61 610.79 352.96 615.62
  Q 355.52 616.94 358.21 618.26
  Q 358.65 618.48 358.64 617.99
  L 357.05 547.54
  Q 357.04 547.04 357.51 546.87
  L 394.06 533.36
  A 0.81 0.79 -25.9 0 1 395.01 533.68
  L 451.08 620.82
  Q 451.42 621.35 451.68 620.78
  L 454.90 613.75
  Q 455.22 613.07 455.91 613.34
  Q 467.28 617.81 478.94 620.34
  Q 484.61 621.56 490.50 621.61
  C 493.02 621.63 498.87 620.61 498.12 617.03
  C 497.35 613.31 489.91 609.73 486.87 608.89
  C 462.65 602.21 433.85 590.17 421.63 567.29
  C 409.49 544.56 421.86 520.28 441.95 507.71
  Q 464.47 493.62 491.29 496.72
  C 510.74 498.97 528.69 508.52 542.96 521.98
  A 0.83 0.82 -56.6 0 1 543.15 522.92
  L 539.06 532.23
  Q 538.56 533.37 539.26 532.34
  Z
  M 466.57 644.90
  Q 466.96 645.63 466.22 646.00
  Q 455.28 651.44 454.99 651.58
  Q 452.46 652.81 451.60 654.56
  Q 450.32 657.15 449.41 659.49
  A 0.71 0.71 0.0 0 0 449.80 660.41
  C 470.33 668.70 496.56 673.46 517.30 663.05
  Q 535.34 654.00 541.52 634.39
  Q 547.91 614.12 537.65 594.16
  Q 531.43 582.06 517.51 574.73
  Q 513.62 572.68 506.10 570.71
  C 495.27 567.86 483.82 563.29 475.70 556.40
  Q 472.14 553.38 470.70 550.54
  Q 467.54 544.31 471.29 540.87
  C 475.90 536.66 485.43 538.11 491.01 540.01
  Q 504.24 544.53 516.00 553.78
  A 0.67 0.67 0.0 0 0 517.05 553.48
  L 526.55 526.98
  Q 526.73 526.46 526.34 526.07
  Q 513.85 513.80 497.18 510.31
  C 475.31 505.74 449.11 514.65 436.57 533.71
  C 428.70 545.65 430.00 559.82 439.75 570.43
  C 450.85 582.51 467.71 589.26 483.29 593.56
  Q 492.09 595.98 494.44 597.04
  C 502.28 600.57 509.98 606.38 511.60 614.88
  C 513.32 623.88 507.10 631.02 498.98 633.72
  C 487.46 637.55 474.21 635.20 463.05 630.83
  A 0.81 0.81 0.0 0 0 462.02 631.24
  L 460.79 633.93
  Q 460.55 634.45 460.67 635.01
  Q 460.92 636.20 461.97 637.73
  Q 465.28 642.55 466.57 644.90
  Z
  M 596.39 575.74
  A 0.83 0.81 59.5 0 1 596.56 575.05
  L 633.05 529.36
  Q 633.77 528.46 632.94 527.66
  Q 617.16 512.52 595.32 513.88
  C 577.19 515.02 558.18 524.32 548.96 540.40
  Q 541.12 554.08 543.87 570.76
  Q 547.03 589.89 562.76 599.34
  Q 580.76 610.15 603.49 604.58
  Q 615.97 601.53 626.72 595.46
  Q 639.07 588.49 648.12 577.62
  A 0.59 0.58 -50.8 0 0 648.04 576.79
  L 626.21 559.35
  A 0.77 0.77 0.0 0 0 625.10 559.52
  Q 615.52 573.78 598.09 576.02
  Q 597.85 576.05 597.33 576.22
  Q 596.53 576.48 596.39 575.74
  Z
  M 389.53 651.16
  A 0.71 0.71 0.0 0 1 390.09 650.53
  L 419.62 644.26
  A 0.71 0.71 0.0 0 1 420.41 644.64
  L 425.06 654.29
  A 0.71 0.71 0.0 0 0 426.02 654.61
  L 451.26 641.82
  A 0.71 0.71 0.0 0 0 451.53 640.80
  L 390.74 546.30
  A 0.71 0.71 0.0 0 0 389.90 546.02
  L 368.08 554.01
  A 0.71 0.71 0.0 0 0 367.61 554.69
  L 369.48 637.78
  A 0.71 0.71 0.0 0 1 369.11 638.42
  L 353.71 646.96
  A 0.71 0.71 0.0 0 0 353.42 647.91
  L 358.01 656.61
  A 0.71 0.71 0.0 0 0 358.76 656.98
  L 369.15 655.11
  A 0.71 0.71 0.0 0 1 369.98 655.80
  L 370.10 664.69
  A 0.71 0.71 0.0 0 0 370.89 665.39
  L 387.81 663.53
  A 0.71 0.71 0.0 0 0 388.44 662.89
  L 389.53 651.16
  Z
  M 531.22 552.50
  Q 531.73 550.34 530.94 552.41
  L 526.66 563.59
  Q 526.43 564.18 526.96 564.52
  L 529.90 566.39
  Q 530.35 566.68 530.30 566.15
  Q 529.67 559.07 531.22 552.50
  Z
  M 314.23 622.50
  Q 314.69 621.47 316.69 617.21
  C 324.90 599.65 325.51 578.98 307.76 567.01
  C 288.68 554.14 261.48 558.47 242.23 568.28
  Q 222.94 578.12 209.29 594.93
  A 0.87 0.86 48.0 0 0 209.24 595.93
  L 220.22 613.00
  A 0.67 0.67 0.0 0 0 221.18 613.18
  L 228.66 607.70
  A 0.72 0.72 0.0 0 1 229.74 607.97
  L 291.84 741.17
  A 0.53 0.53 0.0 0 0 292.53 741.43
  Q 313.61 732.67 332.36 720.12
  Q 346.08 710.94 356.46 699.23
  Q 365.01 689.59 369.72 676.92
  Q 370.03 676.09 369.15 676.19
  L 360.69 677.12
  A 0.76 0.75 -3.5 0 1 359.85 676.38
  L 359.66 668.20
  A 0.48 0.48 0.0 0 0 359.08 667.74
  L 353.30 668.97
  A 1.28 1.27 70.8 0 1 351.90 668.29
  L 339.57 643.37
  Q 339.36 642.95 339.77 642.73
  L 356.95 633.21
  A 0.48 0.48 0.0 0 0 357.02 632.42
  Q 338.24 617.25 314.61 622.95
  Q 313.96 623.11 314.23 622.50
  Z"
/>
<path fill="#feffff" d="
  M 861.64 550.06
  Q 860.21 545.86 858.13 542.21
  A 1.77 1.76 -24.9 0 0 855.98 541.43
  L 814.76 556.66
  A 1.07 1.06 78.5 0 1 813.33 555.71
  C 812.29 533.60 825.21 514.26 844.47 504.21
  C 864.68 493.67 892.18 496.55 903.92 518.04
  C 911.61 532.10 909.18 549.77 900.69 563.23
  Q 888.30 582.88 866.47 588.96
  Q 856.56 591.71 846.93 590.27
  Q 826.64 587.24 817.38 569.45
  Q 816.90 568.52 817.87 568.14
  L 861.13 551.16
  A 0.88 0.88 0.0 0 0 861.64 550.06
  Z"
/>
<path fill="#feffff" d="
  M 466.57 644.90
  Q 465.28 642.55 461.97 637.73
  Q 460.92 636.20 460.67 635.01
  Q 460.55 634.45 460.79 633.93
  L 462.02 631.24
  A 0.81 0.81 0.0 0 1 463.05 630.83
  C 474.21 635.20 487.46 637.55 498.98 633.72
  C 507.10 631.02 513.32 623.88 511.60 614.88
  C 509.98 606.38 502.28 600.57 494.44 597.04
  Q 492.09 595.98 483.29 593.56
  C 467.71 589.26 450.85 582.51 439.75 570.43
  C 430.00 559.82 428.70 545.65 436.57 533.71
  C 449.11 514.65 475.31 505.74 497.18 510.31
  Q 513.85 513.80 526.34 526.07
  Q 526.73 526.46 526.55 526.98
  L 517.05 553.48
  A 0.67 0.67 0.0 0 1 516.00 553.78
  Q 504.24 544.53 491.01 540.01
  C 485.43 538.11 475.90 536.66 471.29 540.87
  Q 467.54 544.31 470.70 550.54
  Q 472.14 553.38 475.70 556.40
  C 483.82 563.29 495.27 567.86 506.10 570.71
  Q 513.62 572.68 517.51 574.73
  Q 531.43 582.06 537.65 594.16
  Q 547.91 614.12 541.52 634.39
  Q 535.34 654.00 517.30 663.05
  C 496.56 673.46 470.33 668.70 449.80 660.41
  A 0.71 0.71 0.0 0 1 449.41 659.49
  Q 450.32 657.15 451.60 654.56
  Q 452.46 652.81 454.99 651.58
  Q 455.28 651.44 466.22 646.00
  Q 466.96 645.63 466.57 644.90
  Z"
/>
<path fill="#feffff" d="
  M 596.39 575.74
  Q 596.53 576.48 597.33 576.22
  Q 597.85 576.05 598.09 576.02
  Q 615.52 573.78 625.10 559.52
  A 0.77 0.77 0.0 0 1 626.21 559.35
  L 648.04 576.79
  A 0.59 0.58 -50.8 0 1 648.12 577.62
  Q 639.07 588.49 626.72 595.46
  Q 615.97 601.53 603.49 604.58
  Q 580.76 610.15 562.76 599.34
  Q 547.03 589.89 543.87 570.76
  Q 541.12 554.08 548.96 540.40
  C 558.18 524.32 577.19 515.02 595.32 513.88
  Q 617.16 512.52 632.94 527.66
  Q 633.77 528.46 633.05 529.36
  L 596.56 575.05
  A 0.83 0.81 59.5 0 0 596.39 575.74
  Z
  M 579.14 575.07
  L 606.44 538.44
  A 0.91 0.91 0.0 0 0 606.25 537.17
  L 604.78 536.07
  A 23.71 23.44 36.7 0 0 571.76 540.69
  L 571.39 541.19
  A 23.71 23.44 36.7 0 0 576.39 574.16
  L 577.86 575.25
  A 0.91 0.91 0.0 0 0 579.14 575.07
  Z"
/>
<path fill="#feffff" d="
  M 1306.65 653.10
  L 1307.70 699.33
  A 1.32 1.32 0.0 0 1 1306.94 700.54
  L 1299.31 704.10
  Q 1298.44 704.51 1298.90 705.34
  L 1303.99 714.53
  A 0.19 0.19 0.0 0 1 1303.78 714.81
  L 1268.97 706.51
  Q 1268.54 706.41 1268.65 705.99
  L 1283.16 649.86
  Q 1283.29 649.33 1282.78 649.15
  L 1268.64 644.08
  A 0.44 0.44 0.0 0 0 1268.14 644.22
  L 1235.63 684.92
  A 0.41 0.40 -53.0 0 1 1235.08 685.00
  Q 1224.84 677.93 1214.48 670.78
  Q 1213.93 670.40 1213.91 670.27
  A 1.32 1.28 -15.7 0 1 1214.73 668.86
  Q 1232.14 661.96 1247.93 651.34
  Q 1248.87 650.71 1248.18 649.82
  L 1235.58 633.76
  Q 1235.16 633.23 1235.50 632.65
  L 1275.63 563.14
  A 0.64 0.63 30.0 0 0 1275.39 562.27
  L 1259.77 553.25
  Q 1259.38 553.02 1259.55 552.60
  L 1269.46 528.59
  A 0.54 0.54 0.0 0 1 1270.12 528.28
  Q 1304.96 539.05 1331.10 562.20
  C 1346.59 575.93 1363.51 599.47 1356.74 621.20
  Q 1356.52 621.91 1353.87 625.35
  C 1351.41 628.55 1349.89 631.13 1347.88 634.87
  Q 1346.94 636.64 1343.37 639.14
  Q 1332.71 646.60 1318.96 649.94
  Q 1314.07 651.13 1307.18 652.45
  Q 1306.64 652.55 1306.65 653.10
  Z
  M 1308.86 588.92
  Q 1308.04 588.52 1307.50 589.26
  L 1280.73 626.25
  Q 1280.30 626.84 1280.98 627.12
  Q 1288.36 630.12 1296.20 631.31
  Q 1310.39 633.45 1319.67 624.12
  C 1324.07 619.70 1325.77 614.51 1324.79 608.48
  C 1323.39 599.82 1316.84 592.75 1308.86 588.92
  Z"
/>
<path fill="#0053ff" d="
  M 579.14 575.07
  A 0.91 0.91 0.0 0 1 577.86 575.25
  L 576.39 574.16
  A 23.71 23.44 36.7 0 1 571.39 541.19
  L 571.76 540.69
  A 23.71 23.44 36.7 0 1 604.78 536.07
  L 606.25 537.17
  A 0.91 0.91 0.0 0 1 606.44 538.44
  L 579.14 575.07
  Z
  M 578.56 545.97
  C 574.79 550.88 574.19 557.38 577.25 562.74
  A 0.57 0.53 -41.5 0 0 578.17 562.76
  L 586.42 552.00
  L 594.68 541.23
  A 0.57 0.53 -63.6 0 0 594.42 540.35
  C 588.45 538.78 582.32 541.05 578.56 545.97
  Z"
/>
<path fill="#feffff" d="
  M 389.53 651.16
  L 388.44 662.89
  A 0.71 0.71 0.0 0 1 387.81 663.53
  L 370.89 665.39
  A 0.71 0.71 0.0 0 1 370.10 664.69
  L 369.98 655.80
  A 0.71 0.71 0.0 0 0 369.15 655.11
  L 358.76 656.98
  A 0.71 0.71 0.0 0 1 358.01 656.61
  L 353.42 647.91
  A 0.71 0.71 0.0 0 1 353.71 646.96
  L 369.11 638.42
  A 0.71 0.71 0.0 0 0 369.48 637.78
  L 367.61 554.69
  A 0.71 0.71 0.0 0 1 368.08 554.01
  L 389.90 546.02
  A 0.71 0.71 0.0 0 1 390.74 546.30
  L 451.53 640.80
  A 0.71 0.71 0.0 0 1 451.26 641.82
  L 426.02 654.61
  A 0.71 0.71 0.0 0 1 425.06 654.29
  L 420.41 644.64
  A 0.71 0.71 0.0 0 0 419.62 644.26
  L 390.09 650.53
  A 0.71 0.71 0.0 0 0 389.53 651.16
  Z
  M 392.30 624.77
  A 0.39 0.39 0.0 0 0 392.87 625.15
  L 406.65 617.48
  A 0.39 0.39 0.0 0 0 406.81 616.97
  L 396.05 594.84
  A 0.39 0.39 0.0 0 0 395.31 594.97
  L 392.30 624.77
  Z"
/>
<path fill="#feffff" d="
  M 314.61 622.95
  Q 338.24 617.25 357.02 632.42
  A 0.48 0.48 0.0 0 1 356.95 633.21
  L 339.77 642.73
  Q 339.36 642.95 339.57 643.37
  L 351.90 668.29
  A 1.28 1.27 70.8 0 0 353.30 668.97
  L 359.08 667.74
  A 0.48 0.48 0.0 0 1 359.66 668.20
  L 359.85 676.38
  A 0.76 0.75 -3.5 0 0 360.69 677.12
  L 369.15 676.19
  Q 370.03 676.09 369.72 676.92
  Q 365.01 689.59 356.46 699.23
  Q 346.08 710.94 332.36 720.12
  Q 313.61 732.67 292.53 741.43
  A 0.53 0.53 0.0 0 1 291.84 741.17
  L 229.74 607.97
  A 0.72 0.72 0.0 0 0 228.66 607.70
  L 221.18 613.18
  A 0.67 0.67 0.0 0 1 220.22 613.00
  L 209.24 595.93
  A 0.87 0.86 48.0 0 1 209.29 594.93
  Q 222.94 578.12 242.23 568.28
  C 261.48 558.47 288.68 554.14 307.76 567.01
  C 325.51 578.98 324.90 599.65 316.69 617.21
  Q 314.69 621.47 314.23 622.50
  Q 313.96 623.11 314.61 622.95
  Z
  M 289.30 628.05
  Q 294.87 621.57 296.57 614.32
  C 297.91 608.56 296.32 599.79 291.43 595.57
  Q 287.20 591.93 283.08 591.36
  Q 271.90 589.80 262.67 597.50
  A 0.70 0.69 -34.7 0 0 262.51 598.37
  L 282.46 634.40
  A 0.57 0.57 0.0 0 0 283.36 634.52
  Q 286.08 631.79 289.30 628.05
  Z
  M 334.90 692.90
  Q 345.27 680.79 340.83 666.52
  C 337.27 655.09 326.29 649.83 314.91 651.66
  Q 305.32 653.21 297.69 659.54
  Q 297.26 659.89 297.53 660.39
  L 321.70 705.55
  A 0.45 0.44 54.8 0 0 322.39 705.67
  Q 329.38 699.35 334.90 692.90
  Z"
/>
<path fill="#feffff" d="
  M 1179.81 631.77
  A 0.54 0.53 32.9 0 0 1180.02 632.73
  Q 1198.06 636.12 1211.65 624.90
  A 0.68 0.67 -37.8 0 1 1212.62 625.02
  L 1229.17 647.62
  A 0.59 0.58 54.7 0 1 1229.03 648.45
  C 1214.87 658.18 1198.58 662.08 1181.01 662.01
  C 1166.67 661.94 1152.24 657.07 1142.07 646.77
  Q 1128.03 632.54 1130.86 611.50
  C 1135.22 578.98 1169.23 565.33 1198.08 573.06
  Q 1218.25 578.46 1228.52 596.73
  A 0.88 0.88 0.0 0 1 1228.26 597.89
  L 1179.81 631.77
  Z
  M 1163.51 626.60
  L 1199.76 599.37
  A 1.06 1.06 0.0 0 0 1199.98 597.89
  L 1198.88 596.43
  A 23.62 23.61 -36.9 0 0 1165.81 591.73
  L 1165.64 591.86
  A 23.62 23.61 -36.9 0 0 1160.92 624.92
  L 1162.02 626.39
  A 1.06 1.06 0.0 0 0 1163.51 626.60
  Z"
/>
<path fill="#0053ff" d="
  M 1163.51 626.60
  A 1.06 1.06 0.0 0 1 1162.02 626.39
  L 1160.92 624.92
  A 23.62 23.61 -36.9 0 1 1165.64 591.86
  L 1165.81 591.73
  A 23.62 23.61 -36.9 0 1 1198.88 596.43
  L 1199.98 597.89
  A 1.06 1.06 0.0 0 1 1199.76 599.37
  L 1163.51 626.60
  Z
  M 1171.01 598.62
  C 1166.13 602.16 1163.47 608.51 1164.92 614.42
  A 0.52 0.52 0.0 0 0 1165.72 614.72
  Q 1166.61 614.08 1176.84 606.64
  Q 1187.07 599.19 1187.95 598.54
  A 0.52 0.52 0.0 0 0 1187.91 597.69
  C 1182.74 594.49 1175.88 595.07 1171.01 598.62
  Z"
/>
<path fill="#0053ff" d="
  M 1308.86 588.92
  C 1316.84 592.75 1323.39 599.82 1324.79 608.48
  C 1325.77 614.51 1324.07 619.70 1319.67 624.12
  Q 1310.39 633.45 1296.20 631.31
  Q 1288.36 630.12 1280.98 627.12
  Q 1280.30 626.84 1280.73 626.25
  L 1307.50 589.26
  Q 1308.04 588.52 1308.86 588.92
  Z
  M 1296.50 621.60
  C 1297.41 621.95 1299.17 621.78 1300.45 621.78
  Q 1305.64 621.78 1309.64 619.67
  C 1315.40 616.63 1317.98 611.44 1313.94 605.54
  Q 1312.53 603.47 1311.09 601.59
  A 0.62 0.62 0.0 0 0 1310.10 601.60
  L 1296.24 620.75
  Q 1295.81 621.35 1296.50 621.60
  Z"
/>
<path fill="#0053ff" d="
  M 289.30 628.05
  Q 286.08 631.79 283.36 634.52
  A 0.57 0.57 0.0 0 1 282.46 634.40
  L 262.51 598.37
  A 0.70 0.69 -34.7 0 1 262.67 597.50
  Q 271.90 589.80 283.08 591.36
  Q 287.20 591.93 291.43 595.57
  C 296.32 599.79 297.91 608.56 296.57 614.32
  Q 294.87 621.57 289.30 628.05
  Z
  M 273.55 600.99
  L 283.89 619.66
  A 0.50 0.50 0.0 0 0 284.74 619.69
  C 288.19 614.42 290.45 605.07 284.51 600.62
  C 281.66 598.48 276.78 599.37 273.64 600.72
  Q 273.45 600.81 273.55 600.99
  Z"
/>
<path fill="#0053ff" d="
  M 392.30 624.77
  L 395.31 594.97
  A 0.39 0.39 0.0 0 1 396.05 594.84
  L 406.81 616.97
  A 0.39 0.39 0.0 0 1 406.65 617.48
  L 392.87 625.15
  A 0.39 0.39 0.0 0 1 392.30 624.77
  Z"
/>
<path fill="#feffff" d="
  M 1389.08 650.07
  Q 1385.62 652.29 1385.43 656.63
  C 1384.99 666.37 1389.83 675.86 1395.11 684.52
  Q 1399.94 692.44 1400.68 694.23
  Q 1407.38 710.39 1399.24 726.77
  Q 1394.49 736.32 1385.61 742.34
  Q 1368.47 753.98 1349.04 746.53
  C 1333.52 740.57 1321.42 725.13 1314.12 710.17
  Q 1313.96 709.83 1314.30 709.66
  L 1336.99 699.09
  Q 1337.57 698.82 1337.87 699.38
  C 1341.77 706.65 1346.51 713.15 1353.16 717.82
  C 1360.41 722.92 1370.90 724.36 1375.92 715.80
  C 1379.56 709.59 1377.61 699.88 1374.02 694.00
  Q 1371.66 690.12 1366.58 681.73
  Q 1361.25 672.94 1358.21 663.03
  C 1353.10 646.38 1357.93 629.64 1376.81 626.04
  C 1390.18 623.49 1404.80 628.17 1415.24 636.77
  Q 1430.89 649.66 1432.42 670.21
  A 0.83 0.81 -16.9 0 1 1431.98 671.01
  L 1412.03 681.69
  A 0.57 0.57 0.0 0 1 1411.20 681.28
  Q 1409.18 668.76 1402.71 658.28
  C 1400.45 654.60 1396.64 650.34 1392.26 649.67
  Q 1390.19 649.35 1389.08 650.07
  Z"
/>
<path fill="#0053ff" d="
  M 334.90 692.90
  Q 329.38 699.35 322.39 705.67
  A 0.45 0.44 54.8 0 1 321.70 705.55
  L 297.53 660.39
  Q 297.26 659.89 297.69 659.54
  Q 305.32 653.21 314.91 651.66
  C 326.29 649.83 337.27 655.09 340.83 666.52
  Q 345.27 680.79 334.90 692.90
  Z
  M 324.74 686.33
  Q 329.97 678.42 329.87 671.66
  Q 329.76 664.74 324.48 662.58
  C 320.94 661.13 315.68 662.49 312.00 663.73
  A 0.29 0.28 67.6 0 0 311.84 664.13
  L 323.70 686.28
  Q 324.18 687.18 324.74 686.33
  Z"
/>
<path fill="#feffff" d="
  M 626.11 713.14
  Q 627.62 709.15 625.53 712.87
  Q 613.90 733.55 612.01 736.78
  Q 608.00 743.62 602.85 750.34
  Q 599.90 754.19 597.45 755.38
  Q 595.23 756.46 593.03 754.96
  C 588.49 751.87 595.48 731.37 597.34 726.31
  Q 597.43 726.05 597.15 726.03
  L 583.86 725.08
  A 0.56 0.56 0.0 0 0 583.26 725.64
  Q 583.30 735.05 577.05 741.74
  Q 573.20 745.87 568.05 745.75
  C 564.15 745.67 563.05 742.50 563.14 739.02
  Q 563.33 731.92 567.65 725.51
  A 0.34 0.34 0.0 0 0 567.33 724.98
  L 553.61 726.48
  Q 552.92 726.56 553.21 727.19
  C 553.61 728.06 553.81 729.36 553.64 730.30
  Q 552.61 736.09 550.74 741.26
  Q 546.74 752.37 541.24 766.37
  Q 540.41 768.49 538.16 768.73
  L 537.73 768.78
  Q 535.75 769.00 536.40 767.12
  Q 538.26 761.78 540.41 754.77
  Q 541.88 749.97 546.41 734.65
  Q 546.94 732.84 545.73 734.29
  C 538.78 742.55 530.57 752.68 521.85 760.05
  Q 516.89 764.24 511.38 763.66
  C 504.74 762.96 505.39 753.25 506.16 748.47
  C 509.38 728.42 520.10 708.65 532.62 692.66
  C 539.04 684.48 550.22 672.83 560.71 675.85
  Q 566.30 677.46 567.76 683.99
  Q 570.59 696.62 563.63 708.90
  Q 562.91 710.19 561.49 710.61
  L 560.75 710.83
  Q 559.21 711.28 559.86 709.81
  Q 565.04 698.06 563.29 688.02
  Q 562.24 682.05 558.36 678.42
  Q 557.33 677.45 555.56 678.23
  C 549.97 680.71 545.40 685.33 541.27 690.03
  C 527.69 705.52 516.47 726.57 511.91 747.46
  C 511.14 750.96 510.26 758.25 512.70 761.14
  Q 513.05 761.55 513.55 761.35
  Q 516.04 760.31 518.24 758.48
  Q 523.97 753.72 529.18 747.45
  Q 529.38 747.21 545.10 728.60
  Q 545.81 727.76 544.73 727.98
  C 538.62 729.25 532.25 730.67 526.32 729.56
  A 0.85 0.85 0.0 0 1 525.83 728.18
  C 527.63 726.05 532.35 725.94 534.62 726.41
  Q 536.75 726.85 538.95 726.48
  Q 554.01 724.00 568.77 722.66
  Q 569.25 722.62 569.60 722.28
  Q 571.22 720.67 570.58 718.52
  A 1.28 1.27 -13.7 0 1 571.56 716.92
  Q 574.39 716.38 576.74 713.67
  Q 578.39 711.77 580.90 711.95
  L 582.11 712.04
  Q 584.48 712.20 582.90 713.98
  L 579.50 717.82
  Q 579.33 718.01 579.48 718.22
  L 582.86 722.84
  Q 583.12 723.18 583.55 723.23
  Q 590.64 724.09 597.65 724.12
  Q 598.14 724.12 598.31 723.67
  Q 601.98 713.74 605.68 706.14
  A 0.55 0.54 11.9 0 0 605.17 705.36
  Q 599.20 705.53 594.93 704.15
  Q 593.84 703.80 593.22 703.35
  A 2.09 2.09 0.0 0 1 593.32 699.87
  Q 597.54 697.23 602.19 698.91
  A 0.57 0.57 0.0 0 1 602.55 699.58
  L 602.48 699.90
  A 0.42 0.41 14.7 0 1 601.96 700.20
  Q 599.20 699.43 597.57 700.24
  Q 594.70 701.66 597.87 702.42
  Q 601.06 703.18 606.54 703.12
  A 0.70 0.70 0.0 0 0 607.17 702.72
  L 612.48 691.11
  Q 613.77 688.31 616.84 688.53
  L 617.32 688.56
  Q 620.09 688.76 618.93 691.29
  L 613.85 702.39
  A 0.49 0.48 -78.9 0 0 614.31 703.08
  L 628.33 702.46
  A 0.48 0.47 -76.7 0 0 628.73 702.21
  L 638.29 685.54
  Q 639.60 683.26 641.98 683.99
  Q 642.06 684.02 642.08 684.02
  Q 644.60 684.67 643.63 687.08
  L 637.76 701.64
  A 0.38 0.38 0.0 0 0 638.13 702.17
  L 653.64 701.49
  A 0.61 0.61 0.0 0 1 654.28 702.09
  L 654.28 702.51
  A 0.62 0.62 0.0 0 1 653.73 703.14
  L 636.54 705.02
  A 0.63 0.63 0.0 0 0 636.04 705.38
  Q 628.87 721.25 622.95 736.70
  Q 619.90 744.68 617.63 752.41
  Q 616.27 757.04 616.61 761.81
  A 0.40 0.40 0.0 0 0 617.28 762.08
  C 622.70 757.03 625.98 751.44 630.47 743.88
  Q 631.98 741.35 633.89 735.90
  Q 638.82 721.91 649.08 712.59
  C 653.85 708.25 665.38 705.27 666.10 715.34
  Q 666.18 716.49 667.29 716.76
  Q 670.68 717.62 669.20 720.74
  Q 661.62 736.63 660.23 741.28
  Q 659.35 744.23 659.68 745.97
  A 0.76 0.76 0.0 0 0 660.90 746.42
  Q 664.81 743.33 668.45 739.21
  Q 673.93 733.00 681.01 724.52
  A 0.93 0.93 0.0 0 1 682.23 724.34
  L 682.66 724.61
  A 0.40 0.40 0.0 0 1 682.77 725.18
  Q 676.55 733.55 669.95 741.21
  C 667.72 743.79 663.60 748.24 659.89 748.41
  Q 655.30 748.63 655.54 743.56
  C 655.79 738.07 657.49 733.42 659.63 728.25
  Q 660.92 725.12 658.78 727.75
  Q 657.99 728.73 648.82 740.30
  Q 644.41 745.86 640.48 748.98
  Q 638.64 750.43 635.52 750.39
  Q 633.24 750.35 631.93 747.81
  Q 631.82 747.61 631.71 747.80
  Q 628.63 752.78 625.56 757.07
  Q 622.03 762.00 619.70 763.73
  Q 619.06 764.21 616.70 764.55
  C 603.32 766.47 624.44 717.54 626.11 713.14
  Z
  M 626.82 705.72
  A 0.36 0.35 13.7 0 0 626.50 705.20
  L 612.94 705.51
  A 0.99 0.98 11.9 0 0 612.06 706.08
  Q 605.42 720.35 600.48 733.24
  C 598.18 739.23 595.59 746.45 595.62 752.92
  A 0.38 0.38 0.0 0 0 596.22 753.22
  C 601.46 749.32 605.44 742.66 608.98 736.72
  Q 619.78 718.59 626.82 705.72
  Z
  M 657.89 711.92
  Q 650.92 717.09 646.77 723.94
  C 643.53 729.28 641.02 733.87 638.72 739.74
  Q 637.48 742.90 637.33 745.79
  Q 637.23 747.53 638.43 746.26
  C 646.12 738.16 654.69 727.09 659.28 721.60
  Q 660.95 719.59 660.87 718.11
  Q 660.70 714.71 659.06 712.14
  A 0.81 0.81 0.0 0 0 657.89 711.92
  Z
  M 577.4056 721.2177
  A 0.62 0.48 39.9 0 0 577.2379 720.4518
  A 0.62 0.48 39.9 0 0 576.4544 720.4223
  A 0.62 0.48 39.9 0 0 576.6221 721.1882
  A 0.62 0.48 39.9 0 0 577.4056 721.2177
  Z
  M 575.25 723.21
  Q 574.59 722.98 574.22 723.56
  Q 570.82 728.84 568.56 734.97
  C 567.72 737.25 567.67 739.92 568.06 742.47
  A 1.44 1.44 0.0 0 0 570.21 743.49
  C 576.37 739.86 580.15 732.04 579.26 725.20
  Q 579.18 724.62 578.63 724.42
  L 575.25 723.21
  Z"
/>
<path fill="#feffff" d="
  M 912.67 679.92
  L 904.93 694.13
  A 1.81 1.81 0.0 0 1 902.89 695.02
  L 901.43 694.64
  A 1.81 1.81 0.0 0 1 900.29 692.02
  L 907.83 678.27
  A 1.81 1.81 0.0 0 1 909.32 677.34
  L 910.98 677.25
  A 1.81 1.81 0.0 0 1 912.67 679.92
  Z"
/>
<path fill="#feffff" d="
  M 1130.77 702.78
  Q 1115.32 737.45 1109.40 749.64
  A 2.02 2.00 14.8 0 1 1107.44 750.77
  L 1107.02 750.74
  Q 1105.19 750.61 1105.88 748.92
  Q 1119.75 714.72 1135.61 680.29
  Q 1136.75 677.81 1138.83 678.60
  Q 1138.89 678.62 1138.97 678.63
  Q 1141.14 678.84 1140.29 680.95
  Q 1138.44 685.58 1130.77 702.78
  Z"
/>
<path fill="#feffff" d="
  M 1081.93 731.05
  Q 1075.25 741.96 1066.99 752.99
  Q 1063.20 758.05 1059.41 761.39
  C 1057.12 763.40 1051.94 763.92 1051.60 759.55
  Q 1051.27 755.40 1052.88 749.16
  Q 1054.94 741.15 1058.07 732.97
  Q 1058.65 731.47 1057.66 732.74
  Q 1054.33 737.00 1050.73 741.21
  C 1047.94 744.47 1042.12 750.56 1037.85 747.73
  Q 1036.13 746.59 1036.27 743.64
  Q 1036.56 738.05 1038.57 732.82
  Q 1040.20 728.59 1041.05 726.89
  Q 1041.09 726.80 1041.01 726.75
  L 1040.76 726.61
  Q 1040.44 726.42 1040.22 726.72
  Q 1033.36 736.04 1023.81 746.77
  Q 1020.33 750.70 1015.83 750.36
  C 1011.72 750.05 1012.33 744.27 1012.96 741.57
  Q 1016.22 727.82 1025.82 716.55
  Q 1028.79 713.06 1032.17 710.91
  Q 1036.99 707.85 1041.86 708.82
  Q 1046.64 709.76 1046.87 715.89
  Q 1046.89 716.41 1047.39 716.54
  Q 1049.17 717.01 1049.90 717.66
  Q 1050.28 717.99 1050.26 718.50
  Q 1050.15 720.47 1049.52 721.76
  Q 1044.81 731.38 1041.44 739.73
  Q 1040.13 742.95 1040.45 745.98
  A 0.68 0.68 0.0 0 0 1041.52 746.46
  Q 1044.03 744.66 1045.80 742.80
  Q 1053.22 735.02 1059.31 727.32
  Q 1060.53 725.77 1061.19 724.22
  Q 1070.42 702.44 1078.05 687.10
  Q 1078.92 685.36 1080.48 683.35
  A 1.45 1.44 -77.9 0 1 1081.28 682.83
  Q 1083.26 682.34 1085.14 683.36
  A 0.92 0.91 -66.1 0 1 1085.56 684.47
  Q 1084.85 686.44 1083.98 688.26
  C 1074.06 708.98 1065.70 725.97 1058.74 746.27
  Q 1056.29 753.41 1055.63 758.75
  Q 1055.27 761.63 1057.39 759.65
  Q 1061.86 755.47 1065.72 750.21
  Q 1073.44 739.70 1081.33 727.35
  Q 1085.95 720.13 1087.72 715.99
  C 1092.12 705.77 1096.31 696.05 1102.18 687.26
  C 1103.17 685.78 1104.41 685.36 1105.90 685.55
  A 1.42 1.42 0.0 0 1 1107.00 687.58
  Q 1097.38 707.10 1093.25 716.00
  Q 1088.70 725.79 1084.81 736.84
  Q 1081.71 745.65 1081.67 753.74
  A 0.65 0.64 69.4 0 0 1082.74 754.23
  Q 1086.55 750.86 1089.24 747.50
  Q 1096.14 738.90 1107.89 723.54
  Q 1108.32 722.98 1109.47 722.72
  Q 1109.78 722.64 1110.07 722.85
  A 0.51 0.51 0.0 0 1 1110.19 723.55
  Q 1100.97 737.17 1091.11 749.11
  Q 1088.20 752.63 1084.36 755.60
  Q 1081.43 757.86 1079.07 755.31
  Q 1078.05 754.22 1078.17 751.05
  Q 1078.56 740.76 1082.58 731.31
  Q 1082.60 731.26 1082.56 731.22
  L 1082.32 730.99
  Q 1082.10 730.78 1081.93 731.05
  Z
  M 1018.06 745.18
  Q 1017.94 745.84 1018.01 746.25
  A 0.50 0.50 0.0 0 0 1018.86 746.51
  Q 1021.75 743.45 1022.56 742.60
  Q 1024.46 740.61 1026.11 738.59
  Q 1038.87 722.91 1041.21 720.15
  Q 1041.52 719.78 1041.55 719.29
  Q 1041.75 715.61 1039.99 712.31
  A 0.95 0.95 0.0 0 0 1038.59 711.98
  Q 1030.90 717.59 1025.95 726.49
  C 1022.17 733.27 1019.25 738.48 1018.06 745.18
  Z"
/>
<path fill="#feffff" d="
  M 796.91 689.57
  L 792.83 698.79
  A 1.84 1.84 0.0 0 1 791.33 699.88
  L 789.62 700.05
  A 1.84 1.84 0.0 0 1 787.75 697.47
  L 791.82 688.28
  A 1.84 1.84 0.0 0 1 793.29 687.20
  L 795.01 687.00
  A 1.84 1.84 0.0 0 1 796.91 689.57
  Z"
/>
<path fill="#feffff" d="
  M 735.34 732.19
  Q 734.67 734.10 735.89 732.48
  Q 739.89 727.16 745.85 720.86
  C 749.15 717.38 753.11 713.65 757.37 714.37
  A 1.78 1.77 -89.8 0 1 758.83 715.85
  Q 759.15 717.78 758.48 720.26
  C 756.69 726.86 753.91 734.50 753.95 741.24
  Q 753.95 741.98 754.05 742.46
  A 1.50 1.50 0.0 0 0 756.50 743.29
  Q 762.99 737.67 772.75 727.33
  Q 775.41 724.51 776.58 721.75
  Q 778.54 717.13 782.05 710.81
  A 2.79 2.78 16.5 0 1 784.69 709.38
  L 786.86 709.54
  Q 788.52 709.65 787.80 711.15
  Q 785.89 715.11 783.58 718.92
  Q 776.51 730.64 773.58 742.05
  Q 772.95 744.52 773.18 747.03
  A 1.03 1.03 0.0 0 0 774.88 747.72
  Q 784.43 739.55 794.47 728.73
  Q 795.90 727.18 796.49 726.04
  Q 801.38 716.45 804.10 712.04
  Q 805.25 710.16 807.44 710.42
  L 808.73 710.57
  Q 810.63 710.80 809.81 712.53
  Q 804.13 724.62 797.67 736.69
  Q 797.66 736.70 797.67 736.71
  L 797.79 736.93
  A 0.16 0.15 48.6 0 0 798.05 736.95
  Q 803.10 730.11 804.38 728.36
  Q 807.56 723.98 811.00 720.02
  C 814.12 716.44 819.32 711.32 823.78 714.72
  A 1.21 1.18 15.7 0 1 824.25 715.53
  Q 824.62 718.51 823.82 720.55
  Q 819.33 732.03 818.11 735.62
  Q 817.13 738.48 817.07 741.49
  A 0.61 0.60 70.8 0 0 818.06 741.97
  Q 822.98 737.84 829.17 730.72
  Q 831.87 727.62 833.84 723.06
  Q 834.46 721.63 841.38 706.40
  A 0.44 0.44 0.0 0 0 840.94 705.78
  L 828.37 707.16
  Q 826.76 707.34 825.65 706.17
  Q 825.19 705.69 825.08 705.51
  Q 824.16 704.11 825.78 703.97
  L 842.73 702.57
  A 0.96 0.83 -77.2 0 0 843.45 702.04
  L 847.67 693.17
  Q 849.07 690.22 852.36 690.71
  L 852.61 690.75
  Q 855.79 691.23 854.49 694.28
  L 851.40 701.52
  Q 851.21 701.96 851.69 701.95
  L 866.12 701.85
  Q 867.06 701.84 867.62 702.60
  L 867.87 702.94
  A 0.78 0.77 70.7 0 1 867.28 704.17
  L 849.87 704.94
  A 1.19 1.17 -64.8 0 0 849.22 705.18
  Q 846.16 707.58 843.64 712.91
  Q 837.37 726.18 830.64 742.13
  Q 824.90 755.70 823.44 761.29
  A 1.09 0.87 -71.2 0 1 822.17 762.10
  Q 822.10 762.07 821.94 761.97
  A 2.58 2.20 -70.2 0 1 820.93 759.29
  Q 823.66 747.24 828.62 735.42
  Q 829.29 733.83 828.15 735.12
  C 825.31 738.32 822.13 742.50 817.94 744.14
  Q 816.94 744.53 815.03 743.91
  C 809.72 742.18 816.88 722.61 818.27 718.71
  Q 819.04 716.58 817.31 718.05
  Q 811.67 722.84 806.78 729.27
  Q 797.20 741.86 794.55 746.01
  Q 793.41 747.79 791.38 747.85
  Q 789.09 747.93 789.36 745.65
  Q 789.83 741.74 792.26 736.09
  Q 793.13 734.07 791.62 735.66
  Q 785.83 741.74 781.42 745.67
  Q 777.91 748.78 775.52 749.46
  C 772.68 750.25 769.25 749.91 769.11 746.31
  Q 768.86 739.78 771.76 733.34
  Q 773.14 730.28 770.88 732.76
  Q 767.47 736.51 761.73 741.98
  Q 757.68 745.85 753.02 745.38
  C 749.58 745.03 750.11 738.55 750.57 736.05
  Q 752.06 727.89 754.45 718.64
  Q 755.03 716.40 753.31 717.95
  Q 744.13 726.18 736.49 736.99
  Q 734.73 739.48 729.87 746.37
  Q 728.79 747.89 726.89 747.50
  Q 725.25 747.17 725.81 745.60
  Q 731.34 730.11 735.89 715.91
  Q 736.84 712.91 737.08 709.77
  A 0.49 0.49 0.0 0 0 736.28 709.35
  Q 727.93 716.11 721.35 725.10
  Q 711.19 738.99 704.53 754.48
  Q 703.73 756.34 701.84 755.78
  Q 701.77 755.76 701.76 755.75
  Q 699.78 755.14 700.40 753.19
  Q 702.03 747.99 705.20 740.70
  Q 714.99 718.15 721.80 704.35
  Q 722.87 702.20 725.26 702.37
  L 725.67 702.40
  Q 727.76 702.55 726.88 704.45
  L 719.34 720.62
  Q 717.29 725.01 720.22 721.15
  Q 724.85 715.07 731.13 709.64
  C 734.02 707.14 741.43 703.95 741.46 710.75
  Q 741.48 714.63 739.45 720.43
  Q 736.52 728.79 735.34 732.19
  Z"
/>
<path fill="#feffff" d="
  M 949.31 732.16
  Q 948.56 734.24 949.89 732.48
  Q 955.78 724.69 962.27 718.53
  C 965.11 715.83 967.82 713.86 971.30 714.38
  A 1.90 1.87 -87.8 0 1 972.90 716.13
  Q 973.03 718.25 972.47 720.24
  Q 969.11 732.21 968.50 735.25
  C 967.98 737.86 967.47 741.24 968.34 743.08
  A 1.15 1.15 0.0 0 0 970.10 743.48
  C 976.84 738.11 983.83 730.28 988.49 725.50
  Q 989.13 724.84 990.37 724.87
  Q 990.76 724.88 990.97 725.58
  Q 991.06 725.89 990.86 726.13
  Q 983.99 734.38 974.78 742.77
  Q 971.57 745.70 967.41 745.39
  C 962.96 745.05 964.24 737.40 964.80 734.54
  Q 966.18 727.53 968.46 718.53
  Q 968.98 716.48 967.39 717.88
  C 958.33 725.87 951.27 735.50 944.09 746.08
  Q 942.49 748.45 940.20 747.21
  A 1.11 1.11 0.0 0 1 939.68 745.86
  Q 945.48 729.87 950.27 714.56
  Q 950.85 712.69 951.06 709.87
  A 0.53 0.53 0.0 0 0 950.20 709.42
  Q 942.74 715.45 936.97 722.97
  Q 925.78 737.54 918.42 754.70
  A 2.06 2.05 13.8 0 1 916.38 755.93
  Q 915.90 755.89 915.81 755.85
  Q 913.68 755.02 914.42 752.89
  Q 918.19 742.08 922.79 732.74
  A 0.42 0.31 -58.6 0 0 922.75 732.29
  Q 922.72 732.26 922.52 732.20
  Q 922.50 732.20 922.49 732.21
  Q 914.24 740.87 905.84 747.80
  C 899.31 753.20 885.61 757.18 886.23 743.06
  C 886.71 732.15 892.12 721.36 898.92 712.67
  C 902.21 708.47 906.49 704.75 912.08 704.91
  Q 916.20 705.03 916.05 709.24
  Q 915.92 712.84 914.53 715.52
  Q 911.21 721.90 906.99 725.46
  C 903.46 728.43 900.34 728.97 896.01 728.17
  Q 895.29 728.04 894.98 728.71
  C 892.54 734.06 888.64 745.82 892.77 750.52
  A 1.09 1.08 -21.5 0 0 893.63 750.89
  C 897.95 750.72 903.10 746.83 906.13 744.13
  Q 914.30 736.86 925.88 725.05
  A 1.76 0.67 -77.8 0 0 926.20 724.56
  L 935.82 704.28
  Q 936.87 702.08 939.22 702.39
  Q 939.49 702.43 939.62 702.43
  Q 941.87 702.39 940.90 704.41
  Q 936.95 712.67 933.06 721.28
  Q 931.57 724.58 933.76 721.70
  Q 938.79 715.07 945.54 709.29
  Q 948.03 707.15 951.26 706.76
  C 957.90 705.97 955.04 715.27 953.81 719.06
  Q 952.02 724.58 949.31 732.16
  Z
  M 909.98 707.87
  C 904.89 711.78 900.51 717.82 897.65 723.00
  Q 896.98 724.19 897.19 724.71
  C 897.75 726.17 899.22 726.84 900.77 725.96
  C 906.11 722.91 911.77 714.27 910.90 708.25
  A 0.58 0.57 67.2 0 0 909.98 707.87
  Z"
/>
<ellipse fill="#feffff" cx="0.00" cy="0.00" transform="translate(1103.70,758.28) rotate(-31.1)" rx="3.84" ry="2.69"/>
</svg>
