<?xml version="1.0" encoding="UTF-8" standalone="no"?>
<!DOCTYPE svg PUBLIC "-//W3C//DTD SVG 1.1//EN" "http://www.w3.org/Graphics/SVG/1.1/DTD/svg11.dtd">
<svg xmlns="http://www.w3.org/2000/svg" version="1.1" viewBox="0.00 0.00 300.00 300.00">
<g stroke-width="2.00" fill="none" stroke-linecap="butt">
<path stroke="#655bb3" vector-effect="non-scaling-stroke" d="
  M 7.62 147.30
  Q 7.62 149.93 8.26 153.83
  Q 10.23 165.86 18.43 174.77
  Q 30.54 187.92 48.81 188.08
  Q 49.94 188.09 150.48 188.09
  Q 251.03 188.09 252.15 188.08
  Q 270.43 187.92 282.54 174.77
  Q 290.74 165.86 292.71 153.83
  Q 293.34 149.93 293.34 147.30
  Q 293.34 144.67 292.71 140.77
  Q 290.74 128.74 282.54 119.83
  Q 270.43 106.68 252.15 106.52
  Q 251.03 106.51 150.48 106.51
  Q 49.94 106.51 48.81 106.52
  Q 30.54 106.68 18.43 119.83
  Q 10.23 128.74 8.26 140.77
  Q 7.62 144.67 7.62 147.30"
/>
<path stroke="#655bb3" vector-effect="non-scaling-stroke" d="
  M 203.15 157.85
  L 206.24 163.21
  A 0.47 0.47 0.0 0 0 207.08 163.16
  L 208.43 160.14
  Q 209.00 158.87 209.21 160.25
  L 210.12 166.11
  A 0.92 0.92 0.0 0 0 210.94 166.88
  L 227.02 168.39
  Q 227.61 168.45 227.50 167.86
  L 226.43 162.26
  Q 226.32 161.68 226.89 161.81
  Q 234.19 163.43 240.61 159.04
  Q 241.49 158.44 241.39 159.50
  L 241.14 162.22
  Q 241.09 162.79 241.65 162.89
  L 250.95 164.44
  Q 251.55 164.54 251.54 165.15
  L 251.47 168.41
  Q 251.46 168.91 251.93 169.09
  L 262.10 172.97
  A 0.52 0.51 -68.6 0 0 262.77 172.67
  L 278.89 130.38
  A 0.81 0.81 0.0 0 0 278.34 129.31
  L 264.62 125.70
  Q 263.81 125.49 263.63 126.30
  L 262.91 129.43
  Q 262.49 131.25 262.14 129.42
  L 261.32 125.13
  Q 261.22 124.61 260.71 124.47
  L 244.37 120.17
  Q 243.60 119.97 243.59 120.76
  L 243.41 129.26
  Q 243.39 130.07 244.19 130.19
  Q 244.99 130.31 245.48 130.55
  A 0.82 0.81 18.2 0 1 245.92 131.41
  L 245.16 135.97
  A 0.33 0.33 0.0 0 1 244.60 136.15
  C 237.79 129.64 227.33 132.16 221.96 139.01
  A 0.55 0.55 0.0 0 1 220.98 138.77
  L 217.21 119.08
  A 0.71 0.71 0.0 0 0 216.47 118.51
  L 204.76 119.23
  Q 204.14 119.26 204.04 119.88
  L 203.90 120.75
  Q 203.80 121.31 203.23 121.35
  L 190.99 122.10
  Q 190.43 122.13 190.38 122.69
  L 188.41 143.67
  A 0.35 0.35 0.0 0 1 187.81 143.89
  Q 185.38 141.43 182.27 140.53
  Q 181.67 140.35 181.96 139.80
  C 183.95 135.97 185.07 129.93 182.84 126.20
  Q 181.07 123.22 177.73 122.03
  Q 164.66 117.35 150.64 123.65
  Q 149.46 124.18 147.80 125.66
  A 1.27 1.27 0.0 0 0 147.45 127.01
  L 151.37 138.37
  A 0.64 0.64 0.0 0 0 152.18 138.76
  L 152.92 138.51
  Q 153.60 138.27 153.74 138.98
  L 160.43 173.97
  A 0.62 0.62 0.0 0 0 161.14 174.47
  Q 168.20 173.32 174.86 171.06
  C 180.40 169.18 185.89 166.39 189.40 161.80
  A 1.45 1.44 -68.4 0 1 190.69 161.24
  L 201.14 162.22
  A 0.85 0.85 0.0 0 0 202.07 161.45
  L 202.39 158.02
  Q 202.51 156.74 203.15 157.85"
/>
<path stroke="#655bb3" vector-effect="non-scaling-stroke" d="
  M 93.98 130.93
  L 93.13 125.45
  Q 93.05 124.93 92.53 124.81
  L 73.85 120.60
  Q 73.19 120.45 73.23 121.13
  L 73.65 128.05
  Q 73.69 128.61 73.19 128.34
  Q 69.29 126.21 65.23 127.48
  Q 62.08 128.46 60.93 131.19
  Q 60.18 132.95 60.79 136.37
  Q 61.24 138.85 61.14 144.20
  Q 61.12 145.22 61.39 146.26
  Q 61.84 147.99 61.79 148.33
  Q 61.28 151.50 60.84 148.41
  L 56.94 121.28
  Q 56.86 120.73 56.30 120.71
  L 44.41 120.46
  A 0.75 0.74 -84.5 0 0 43.67 121.08
  L 43.48 122.23
  Q 43.38 122.83 42.77 122.82
  L 30.58 122.56
  Q 29.96 122.55 29.86 123.16
  L 23.55 161.00
  A 0.54 0.54 0.0 0 0 23.99 161.61
  L 38.28 163.99
  A 0.69 0.69 0.0 0 0 39.07 163.43
  L 39.78 159.17
  Q 39.86 158.68 40.11 159.11
  L 43.58 165.12
  Q 43.95 165.76 44.28 165.10
  L 45.97 161.80
  Q 46.17 161.40 46.24 161.84
  L 47.23 168.20
  A 1.17 1.17 0.0 0 0 48.19 169.17
  L 64.51 171.89
  Q 64.86 171.95 64.80 171.60
  L 64.04 166.67
  Q 63.87 165.59 64.96 165.62
  L 71.62 165.76
  A 0.98 0.96 -16.1 0 1 72.41 166.19
  C 72.85 166.87 73.18 167.16 74.05 167.29
  Q 78.01 167.93 83.55 168.49
  A 0.93 0.92 3.7 0 1 84.38 169.43
  L 84.31 173.00
  Q 84.29 173.76 85.02 173.95
  L 96.43 176.95
  A 0.23 0.23 0.0 0 0 96.71 176.80
  Q 106.32 148.00 107.18 145.09
  Q 108.19 141.69 111.29 142.71
  Q 111.77 142.86 111.76 143.37
  L 111.11 174.44
  A 0.57 0.52 -4.2 0 0 111.76 174.96
  L 127.12 172.57
  A 0.68 0.67 -6.6 0 0 127.69 171.86
  L 125.88 142.40
  Q 125.85 141.87 126.38 141.84
  L 136.39 141.22
  A 0.63 0.61 89.0 0 0 136.97 140.60
  L 137.33 123.29
  Q 137.35 122.47 136.53 122.56
  Q 121.01 124.29 104.00 125.41
  Q 102.11 125.53 101.47 126.43
  Q 101.19 126.83 100.71 126.71
  L 96.69 125.65
  A 0.93 0.93 0.0 0 0 95.55 126.31
  L 94.33 130.95
  Q 94.11 131.79 93.98 130.93"
/>
<path stroke="#7fa9ff" vector-effect="non-scaling-stroke" d="
  M 205.56 135.72
  L 203.11 125.42
  Q 202.98 124.84 202.39 124.88
  L 194.31 125.38
  Q 193.66 125.42 193.60 126.06
  L 190.66 157.37
  A 0.23 0.22 7.6 0 0 190.86 157.62
  L 199.36 158.42
  A 0.23 0.23 0.0 0 0 199.61 158.21
  L 200.76 145.98
  Q 200.82 145.38 201.12 145.90
  L 206.46 155.15
  Q 207.06 156.18 207.42 155.04
  L 209.64 147.97
  Q 209.99 146.85 210.24 148.02
  L 213.23 162.38
  Q 213.49 163.59 214.71 163.71
  L 221.95 164.39
  Q 223.09 164.49 222.87 163.37
  L 222.19 159.80
  Q 222.10 159.31 221.76 158.93
  Q 216.33 152.85 218.72 145.11
  Q 218.88 144.58 218.77 144.07
  L 214.24 122.74
  Q 214.12 122.17 213.53 122.21
  L 208.20 122.53
  Q 207.73 122.56 207.67 123.02
  L 206.02 135.81
  Q 205.87 137.00 205.56 135.72"
/>
<path stroke="#7fa9ff" vector-effect="non-scaling-stroke" d="
  M 176.78 141.62
  C 181.13 136.74 182.52 130.50 176.47 126.37
  C 169.22 121.41 159.24 123.70 152.57 128.59
  Q 152.12 128.92 152.30 129.45
  L 153.63 133.31
  Q 153.86 133.98 154.54 133.75
  L 155.94 133.27
  Q 156.47 133.08 156.58 133.64
  Q 160.08 151.68 163.56 169.67
  A 0.43 0.43 0.0 0 0 164.03 170.02
  Q 170.19 169.29 176.32 166.81
  Q 180.83 164.99 184.25 162.01
  Q 186.37 160.15 186.52 159.01
  Q 187.27 153.07 187.63 149.75
  Q 187.69 149.25 187.45 148.80
  C 185.62 145.36 182.42 142.78 178.48 142.46
  Q 177.23 142.36 176.92 142.24
  Q 176.41 142.03 176.78 141.62"
/>
<path stroke="#7fa9ff" vector-effect="non-scaling-stroke" d="
  M 254.99 145.21
  L 254.54 166.32
  Q 254.53 167.00 255.18 167.17
  L 260.46 168.56
  Q 260.70 168.62 260.79 168.39
  L 274.74 131.81
  Q 274.80 131.65 274.63 131.61
  L 266.23 129.39
  Q 265.99 129.33 265.92 129.57
  L 261.55 144.59
  Q 261.16 145.93 260.95 144.56
  L 258.32 127.65
  Q 258.24 127.13 257.73 127.00
  L 247.18 124.22
  Q 246.45 124.03 246.44 124.78
  L 246.39 126.97
  Q 246.38 127.57 246.96 127.73
  L 248.39 128.10
  A 0.69 0.69 0.0 0 1 248.89 128.88
  L 247.17 139.18
  Q 247.09 139.66 247.28 140.12
  Q 249.45 145.30 247.55 150.03
  Q 247.16 150.99 245.66 153.99
  C 244.78 155.74 244.83 157.15 244.47 158.74
  Q 244.23 159.78 245.27 160.05
  L 249.87 161.26
  Q 251.06 161.58 251.36 160.38
  Q 253.44 151.93 254.44 144.97
  A 0.08 0.07 12.7 0 1 254.54 144.91
  L 254.82 144.98
  A 0.24 0.24 0.0 0 1 254.99 145.21"
/>
<path stroke="#7fa9ff" vector-effect="non-scaling-stroke" d="
  M 232.94 148.95
  L 222.60 153.16
  A 0.47 0.47 0.0 0 0 222.38 153.85
  C 226.99 161.06 236.32 159.81 241.59 154.12
  Q 246.19 149.18 245.22 143.51
  Q 243.86 135.57 235.48 135.30
  C 227.50 135.04 220.78 142.09 221.31 150.09
  A 0.32 0.32 0.0 0 0 221.75 150.36
  L 231.73 146.30
  Q 232.51 145.98 232.83 146.76
  L 233.34 148.01
  A 0.72 0.72 0.0 0 1 232.94 148.95"
/>
<path stroke="#7fa9ff" vector-effect="non-scaling-stroke" d="
  M 39.31 147.29
  L 44.25 157.80
  A 0.27 0.27 0.0 0 0 44.75 157.78
  L 47.76 149.88
  Q 48.11 148.98 48.26 149.94
  L 50.70 165.66
  Q 50.73 165.86 50.97 165.90
  L 60.17 167.44
  A 0.23 0.23 0.0 0 0 60.43 167.18
  L 53.83 124.77
  Q 53.77 124.36 53.36 124.35
  L 47.58 124.23
  Q 47.09 124.22 47.01 124.70
  L 45.05 136.50
  Q 44.55 139.49 44.08 136.49
  L 42.59 126.93
  Q 42.51 126.36 41.93 126.35
  L 33.78 126.18
  Q 33.12 126.16 33.01 126.82
  L 27.77 158.23
  Q 27.71 158.58 28.07 158.64
  L 36.48 160.05
  Q 36.78 160.10 36.83 159.79
  L 38.90 147.35
  Q 39.02 146.66 39.31 147.29"
/>
<path stroke="#7fa9ff" vector-effect="non-scaling-stroke" d="
  M 87.10 147.63
  L 87.44 170.17
  Q 87.45 170.71 87.96 170.88
  L 93.63 172.75
  Q 94.20 172.94 94.39 172.37
  L 103.93 143.58
  Q 104.10 143.05 103.54 143.05
  L 102.08 143.05
  A 0.45 0.45 0.0 0 1 101.63 142.60
  L 101.63 130.79
  Q 101.63 130.19 101.04 130.10
  L 98.78 129.72
  A 0.81 0.81 0.0 0 0 97.85 130.34
  L 94.31 146.05
  Q 93.87 148.00 93.46 146.04
  L 89.60 127.89
  Q 89.48 127.31 88.89 127.21
  L 77.37 125.29
  Q 77.01 125.23 76.97 125.59
  L 76.73 128.18
  Q 76.68 128.75 77.24 128.84
  L 78.97 129.13
  A 0.53 0.53 0.0 0 1 79.41 129.71
  L 76.23 163.56
  Q 76.19 163.97 76.57 164.03
  L 83.30 165.15
  Q 83.53 165.19 83.57 164.96
  L 86.75 147.58
  Q 87.07 145.84 87.10 147.63"
/>
<path stroke="#7fa9ff" vector-effect="non-scaling-stroke" d="
  M 114.41 138.85
  A 0.36 0.36 0.0 0 1 114.78 139.21
  L 114.13 170.48
  A 0.36 0.36 0.0 0 0 114.55 170.84
  L 124.20 169.31
  A 0.36 0.36 0.0 0 0 124.50 168.93
  L 122.67 139.09
  A 0.36 0.36 0.0 0 1 122.99 138.71
  L 133.58 137.55
  A 0.36 0.36 0.0 0 0 133.90 137.21
  L 134.17 126.99
  A 0.36 0.36 0.0 0 0 133.78 126.63
  L 104.94 129.17
  A 0.36 0.36 0.0 0 0 104.61 129.53
  L 104.61 138.90
  A 0.36 0.36 0.0 0 0 104.99 139.26
  L 114.41 138.85"
/>
<path stroke="#7fa9ff" vector-effect="non-scaling-stroke" d="
  M 72.6653 133.0600
  A 4.67 3.67 -5.9 0 0 67.6428 129.8894
  A 4.67 3.67 -5.9 0 0 63.3747 134.0200
  A 4.67 3.67 -5.9 0 0 68.3972 137.1906
  A 4.67 3.67 -5.9 0 0 72.6653 133.0600"
/>
<path stroke="#655bb3" vector-effect="non-scaling-stroke" d="
  M 74.58 137.02
  C 74.49 137.89 74.92 138.97 74.83 139.67
  Q 74.71 140.61 74.56 142.20
  A 0.22 0.22 0.0 0 0 74.82 142.44
  L 75.22 142.36
  Q 75.38 142.33 75.40 142.18
  Q 75.79 139.63 76.01 137.17
  Q 76.29 134.71 76.42 132.13
  Q 76.43 131.98 76.28 131.92
  L 75.90 131.76
  A 0.22 0.22 0.0 0 0 75.60 131.94
  Q 75.43 133.53 75.36 134.48
  C 75.30 135.18 74.67 136.16 74.58 137.02"
/>
<path stroke="#7fa9ff" vector-effect="non-scaling-stroke" d="
  M 72.12 140.61
  A 0.36 0.36 0.0 0 0 71.79 140.26
  L 64.57 139.67
  A 0.36 0.36 0.0 0 0 64.18 140.04
  L 64.54 162.52
  A 0.36 0.36 0.0 0 0 64.91 162.87
  L 72.30 162.75
  A 0.36 0.36 0.0 0 0 72.65 162.38
  L 72.12 140.61"
/>
<path stroke="#7fa9ff" vector-effect="non-scaling-stroke" d="
  M 168.49 143.02
  Q 170.38 141.86 171.71 140.31
  C 174.08 137.56 174.03 133.77 170.21 132.30
  Q 167.85 131.38 165.74 132.60
  Q 165.25 132.89 165.39 133.44
  L 167.79 142.73
  Q 167.94 143.35 168.49 143.02"
/>
<path stroke="#7fa9ff" vector-effect="non-scaling-stroke" d="
  M 170.09 150.31
  L 172.94 162.15
  A 0.50 0.50 0.0 0 0 173.54 162.52
  L 173.93 162.43
  A 8.20 6.50 -13.5 0 0 180.39 154.20
  L 180.34 154.02
  A 8.20 6.50 -13.5 0 0 170.85 149.61
  L 170.46 149.71
  A 0.50 0.50 0.0 0 0 170.09 150.31"
/>
<path stroke="#655bb3" vector-effect="non-scaling-stroke" d="
  M 167.92 134.39
  L 169.00 138.96
  A 0.19 0.19 0.0 0 0 169.22 139.10
  L 169.30 139.09
  A 2.44 2.39 76.7 0 0 171.07 136.16
  L 171.02 135.97
  A 2.44 2.39 76.7 0 0 168.13 134.14
  L 168.06 134.16
  A 0.19 0.19 0.0 0 0 167.92 134.39"
/>
<path stroke="#655bb3" vector-effect="non-scaling-stroke" d="
  M 174.71 157.96
  Q 174.90 158.70 175.50 158.22
  Q 176.86 157.15 177.43 154.72
  A 1.96 1.95 19.8 0 0 176.38 152.50
  Q 175.53 152.09 173.88 152.19
  Q 173.23 152.22 173.39 152.85
  L 174.71 157.96"
/>
</g>
<path fill="#0053ff" d="
  M 150.49 102.33
  Q 248.05 102.33 252.23 102.33
  Q 266.06 102.32 277.14 109.74
  Q 293.31 120.57 296.90 140.24
  Q 297.55 143.84 297.55 147.29
  Q 297.55 150.74 296.90 154.34
  Q 293.31 174.01 277.14 184.84
  Q 266.06 192.26 252.23 192.25
  Q 248.05 192.25 150.49 192.25
  Q 52.92 192.25 48.75 192.25
  Q 34.91 192.26 23.83 184.84
  Q 7.66 174.01 4.08 154.33
  Q 3.42 150.74 3.42 147.29
  Q 3.42 143.84 4.08 140.24
  Q 7.66 120.57 23.83 109.74
  Q 34.91 102.32 48.75 102.33
  Q 52.93 102.33 150.49 102.33
  Z
  M 7.62 147.30
  Q 7.62 149.93 8.26 153.83
  Q 10.23 165.86 18.43 174.77
  Q 30.54 187.92 48.81 188.08
  Q 49.94 188.09 150.48 188.09
  Q 251.03 188.09 252.15 188.08
  Q 270.43 187.92 282.54 174.77
  Q 290.74 165.86 292.71 153.83
  Q 293.34 149.93 293.34 147.30
  Q 293.34 144.67 292.71 140.77
  Q 290.74 128.74 282.54 119.83
  Q 270.43 106.68 252.15 106.52
  Q 251.03 106.51 150.48 106.51
  Q 49.94 106.51 48.81 106.52
  Q 30.54 106.68 18.43 119.83
  Q 10.23 128.74 8.26 140.77
  Q 7.62 144.67 7.62 147.30
  Z"
/>
<path fill="#c96366" d="
  M 150.48 106.51
  Q 251.03 106.51 252.15 106.52
  Q 270.43 106.68 282.54 119.83
  Q 290.74 128.74 292.71 140.77
  Q 293.34 144.67 293.34 147.30
  Q 293.34 149.93 292.71 153.83
  Q 290.74 165.86 282.54 174.77
  Q 270.43 187.92 252.15 188.08
  Q 251.03 188.09 150.48 188.09
  Q 49.94 188.09 48.81 188.08
  Q 30.54 187.92 18.43 174.77
  Q 10.23 165.86 8.26 153.83
  Q 7.62 149.93 7.62 147.30
  Q 7.62 144.67 8.26 140.77
  Q 10.23 128.74 18.43 119.83
  Q 30.54 106.68 48.81 106.52
  Q 49.94 106.51 150.48 106.51
  Z
  M 203.15 157.85
  L 206.24 163.21
  A 0.47 0.47 0.0 0 0 207.08 163.16
  L 208.43 160.14
  Q 209.00 158.87 209.21 160.25
  L 210.12 166.11
  A 0.92 0.92 0.0 0 0 210.94 166.88
  L 227.02 168.39
  Q 227.61 168.45 227.50 167.86
  L 226.43 162.26
  Q 226.32 161.68 226.89 161.81
  Q 234.19 163.43 240.61 159.04
  Q 241.49 158.44 241.39 159.50
  L 241.14 162.22
  Q 241.09 162.79 241.65 162.89
  L 250.95 164.44
  Q 251.55 164.54 251.54 165.15
  L 251.47 168.41
  Q 251.46 168.91 251.93 169.09
  L 262.10 172.97
  A 0.52 0.51 -68.6 0 0 262.77 172.67
  L 278.89 130.38
  A 0.81 0.81 0.0 0 0 278.34 129.31
  L 264.62 125.70
  Q 263.81 125.49 263.63 126.30
  L 262.91 129.43
  Q 262.49 131.25 262.14 129.42
  L 261.32 125.13
  Q 261.22 124.61 260.71 124.47
  L 244.37 120.17
  Q 243.60 119.97 243.59 120.76
  L 243.41 129.26
  Q 243.39 130.07 244.19 130.19
  Q 244.99 130.31 245.48 130.55
  A 0.82 0.81 18.2 0 1 245.92 131.41
  L 245.16 135.97
  A 0.33 0.33 0.0 0 1 244.60 136.15
  C 237.79 129.64 227.33 132.16 221.96 139.01
  A 0.55 0.55 0.0 0 1 220.98 138.77
  L 217.21 119.08
  A 0.71 0.71 0.0 0 0 216.47 118.51
  L 204.76 119.23
  Q 204.14 119.26 204.04 119.88
  L 203.90 120.75
  Q 203.80 121.31 203.23 121.35
  L 190.99 122.10
  Q 190.43 122.13 190.38 122.69
  L 188.41 143.67
  A 0.35 0.35 0.0 0 1 187.81 143.89
  Q 185.38 141.43 182.27 140.53
  Q 181.67 140.35 181.96 139.80
  C 183.95 135.97 185.07 129.93 182.84 126.20
  Q 181.07 123.22 177.73 122.03
  Q 164.66 117.35 150.64 123.65
  Q 149.46 124.18 147.80 125.66
  A 1.27 1.27 0.0 0 0 147.45 127.01
  L 151.37 138.37
  A 0.64 0.64 0.0 0 0 152.18 138.76
  L 152.92 138.51
  Q 153.60 138.27 153.74 138.98
  L 160.43 173.97
  A 0.62 0.62 0.0 0 0 161.14 174.47
  Q 168.20 173.32 174.86 171.06
  C 180.40 169.18 185.89 166.39 189.40 161.80
  A 1.45 1.44 -68.4 0 1 190.69 161.24
  L 201.14 162.22
  A 0.85 0.85 0.0 0 0 202.07 161.45
  L 202.39 158.02
  Q 202.51 156.74 203.15 157.85
  Z
  M 93.98 130.93
  L 93.13 125.45
  Q 93.05 124.93 92.53 124.81
  L 73.85 120.60
  Q 73.19 120.45 73.23 121.13
  L 73.65 128.05
  Q 73.69 128.61 73.19 128.34
  Q 69.29 126.21 65.23 127.48
  Q 62.08 128.46 60.93 131.19
  Q 60.18 132.95 60.79 136.37
  Q 61.24 138.85 61.14 144.20
  Q 61.12 145.22 61.39 146.26
  Q 61.84 147.99 61.79 148.33
  Q 61.28 151.50 60.84 148.41
  L 56.94 121.28
  Q 56.86 120.73 56.30 120.71
  L 44.41 120.46
  A 0.75 0.74 -84.5 0 0 43.67 121.08
  L 43.48 122.23
  Q 43.38 122.83 42.77 122.82
  L 30.58 122.56
  Q 29.96 122.55 29.86 123.16
  L 23.55 161.00
  A 0.54 0.54 0.0 0 0 23.99 161.61
  L 38.28 163.99
  A 0.69 0.69 0.0 0 0 39.07 163.43
  L 39.78 159.17
  Q 39.86 158.68 40.11 159.11
  L 43.58 165.12
  Q 43.95 165.76 44.28 165.10
  L 45.97 161.80
  Q 46.17 161.40 46.24 161.84
  L 47.23 168.20
  A 1.17 1.17 0.0 0 0 48.19 169.17
  L 64.51 171.89
  Q 64.86 171.95 64.80 171.60
  L 64.04 166.67
  Q 63.87 165.59 64.96 165.62
  L 71.62 165.76
  A 0.98 0.96 -16.1 0 1 72.41 166.19
  C 72.85 166.87 73.18 167.16 74.05 167.29
  Q 78.01 167.93 83.55 168.49
  A 0.93 0.92 3.7 0 1 84.38 169.43
  L 84.31 173.00
  Q 84.29 173.76 85.02 173.95
  L 96.43 176.95
  A 0.23 0.23 0.0 0 0 96.71 176.80
  Q 106.32 148.00 107.18 145.09
  Q 108.19 141.69 111.29 142.71
  Q 111.77 142.86 111.76 143.37
  L 111.11 174.44
  A 0.57 0.52 -4.2 0 0 111.76 174.96
  L 127.12 172.57
  A 0.68 0.67 -6.6 0 0 127.69 171.86
  L 125.88 142.40
  Q 125.85 141.87 126.38 141.84
  L 136.39 141.22
  A 0.63 0.61 89.0 0 0 136.97 140.60
  L 137.33 123.29
  Q 137.35 122.47 136.53 122.56
  Q 121.01 124.29 104.00 125.41
  Q 102.11 125.53 101.47 126.43
  Q 101.19 126.83 100.71 126.71
  L 96.69 125.65
  A 0.93 0.93 0.0 0 0 95.55 126.31
  L 94.33 130.95
  Q 94.11 131.79 93.98 130.93
  Z"
/>
<path fill="#0053ff" d="
  M 202.39 158.02
  L 202.07 161.45
  A 0.85 0.85 0.0 0 1 201.14 162.22
  L 190.69 161.24
  A 1.45 1.44 -68.4 0 0 189.40 161.80
  C 185.89 166.39 180.40 169.18 174.86 171.06
  Q 168.20 173.32 161.14 174.47
  A 0.62 0.62 0.0 0 1 160.43 173.97
  L 153.74 138.98
  Q 153.60 138.27 152.92 138.51
  L 152.18 138.76
  A 0.64 0.64 0.0 0 1 151.37 138.37
  L 147.45 127.01
  A 1.27 1.27 0.0 0 1 147.80 125.66
  Q 149.46 124.18 150.64 123.65
  Q 164.66 117.35 177.73 122.03
  Q 181.07 123.22 182.84 126.20
  C 185.07 129.93 183.95 135.97 181.96 139.80
  Q 181.67 140.35 182.27 140.53
  Q 185.38 141.43 187.81 143.89
  A 0.35 0.35 0.0 0 0 188.41 143.67
  L 190.38 122.69
  Q 190.43 122.13 190.99 122.10
  L 203.23 121.35
  Q 203.80 121.31 203.90 120.75
  L 204.04 119.88
  Q 204.14 119.26 204.76 119.23
  L 216.47 118.51
  A 0.71 0.71 0.0 0 1 217.21 119.08
  L 220.98 138.77
  A 0.55 0.55 0.0 0 0 221.96 139.01
  C 227.33 132.16 237.79 129.64 244.60 136.15
  A 0.33 0.33 0.0 0 0 245.16 135.97
  L 245.92 131.41
  A 0.82 0.81 18.2 0 0 245.48 130.55
  Q 244.99 130.31 244.19 130.19
  Q 243.39 130.07 243.41 129.26
  L 243.59 120.76
  Q 243.60 119.97 244.37 120.17
  L 260.71 124.47
  Q 261.22 124.61 261.32 125.13
  L 262.14 129.42
  Q 262.49 131.25 262.91 129.43
  L 263.63 126.30
  Q 263.81 125.49 264.62 125.70
  L 278.34 129.31
  A 0.81 0.81 0.0 0 1 278.89 130.38
  L 262.77 172.67
  A 0.52 0.51 -68.6 0 1 262.10 172.97
  L 251.93 169.09
  Q 251.46 168.91 251.47 168.41
  L 251.54 165.15
  Q 251.55 164.54 250.95 164.44
  L 241.65 162.89
  Q 241.09 162.79 241.14 162.22
  L 241.39 159.50
  Q 241.49 158.44 240.61 159.04
  Q 234.19 163.43 226.89 161.81
  Q 226.32 161.68 226.43 162.26
  L 227.50 167.86
  Q 227.61 168.45 227.02 168.39
  L 210.94 166.88
  A 0.92 0.92 0.0 0 1 210.12 166.11
  L 209.21 160.25
  Q 209.00 158.87 208.43 160.14
  L 207.08 163.16
  A 0.47 0.47 0.0 0 1 206.24 163.21
  L 203.15 157.85
  Q 202.51 156.74 202.39 158.02
  Z
  M 205.56 135.72
  L 203.11 125.42
  Q 202.98 124.84 202.39 124.88
  L 194.31 125.38
  Q 193.66 125.42 193.60 126.06
  L 190.66 157.37
  A 0.23 0.22 7.6 0 0 190.86 157.62
  L 199.36 158.42
  A 0.23 0.23 0.0 0 0 199.61 158.21
  L 200.76 145.98
  Q 200.82 145.38 201.12 145.90
  L 206.46 155.15
  Q 207.06 156.18 207.42 155.04
  L 209.64 147.97
  Q 209.99 146.85 210.24 148.02
  L 213.23 162.38
  Q 213.49 163.59 214.71 163.71
  L 221.95 164.39
  Q 223.09 164.49 222.87 163.37
  L 222.19 159.80
  Q 222.10 159.31 221.76 158.93
  Q 216.33 152.85 218.72 145.11
  Q 218.88 144.58 218.77 144.07
  L 214.24 122.74
  Q 214.12 122.17 213.53 122.21
  L 208.20 122.53
  Q 207.73 122.56 207.67 123.02
  L 206.02 135.81
  Q 205.87 137.00 205.56 135.72
  Z
  M 176.78 141.62
  C 181.13 136.74 182.52 130.50 176.47 126.37
  C 169.22 121.41 159.24 123.70 152.57 128.59
  Q 152.12 128.92 152.30 129.45
  L 153.63 133.31
  Q 153.86 133.98 154.54 133.75
  L 155.94 133.27
  Q 156.47 133.08 156.58 133.64
  Q 160.08 151.68 163.56 169.67
  A 0.43 0.43 0.0 0 0 164.03 170.02
  Q 170.19 169.29 176.32 166.81
  Q 180.83 164.99 184.25 162.01
  Q 186.37 160.15 186.52 159.01
  Q 187.27 153.07 187.63 149.75
  Q 187.69 149.25 187.45 148.80
  C 185.62 145.36 182.42 142.78 178.48 142.46
  Q 177.23 142.36 176.92 142.24
  Q 176.41 142.03 176.78 141.62
  Z
  M 254.99 145.21
  L 254.54 166.32
  Q 254.53 167.00 255.18 167.17
  L 260.46 168.56
  Q 260.70 168.62 260.79 168.39
  L 274.74 131.81
  Q 274.80 131.65 274.63 131.61
  L 266.23 129.39
  Q 265.99 129.33 265.92 129.57
  L 261.55 144.59
  Q 261.16 145.93 260.95 144.56
  L 258.32 127.65
  Q 258.24 127.13 257.73 127.00
  L 247.18 124.22
  Q 246.45 124.03 246.44 124.78
  L 246.39 126.97
  Q 246.38 127.57 246.96 127.73
  L 248.39 128.10
  A 0.69 0.69 0.0 0 1 248.89 128.88
  L 247.17 139.18
  Q 247.09 139.66 247.28 140.12
  Q 249.45 145.30 247.55 150.03
  Q 247.16 150.99 245.66 153.99
  C 244.78 155.74 244.83 157.15 244.47 158.74
  Q 244.23 159.78 245.27 160.05
  L 249.87 161.26
  Q 251.06 161.58 251.36 160.38
  Q 253.44 151.93 254.44 144.97
  A 0.08 0.07 12.7 0 1 254.54 144.91
  L 254.82 144.98
  A 0.24 0.24 0.0 0 1 254.99 145.21
  Z
  M 232.94 148.95
  L 222.60 153.16
  A 0.47 0.47 0.0 0 0 222.38 153.85
  C 226.99 161.06 236.32 159.81 241.59 154.12
  Q 246.19 149.18 245.22 143.51
  Q 243.86 135.57 235.48 135.30
  C 227.50 135.04 220.78 142.09 221.31 150.09
  A 0.32 0.32 0.0 0 0 221.75 150.36
  L 231.73 146.30
  Q 232.51 145.98 232.83 146.76
  L 233.34 148.01
  A 0.72 0.72 0.0 0 1 232.94 148.95
  Z"
/>
<path fill="#0053ff" d="
  M 94.33 130.95
  L 95.55 126.31
  A 0.93 0.93 0.0 0 1 96.69 125.65
  L 100.71 126.71
  Q 101.19 126.83 101.47 126.43
  Q 102.11 125.53 104.00 125.41
  Q 121.01 124.29 136.53 122.56
  Q 137.35 122.47 137.33 123.29
  L 136.97 140.60
  A 0.63 0.61 89.0 0 1 136.39 141.22
  L 126.38 141.84
  Q 125.85 141.87 125.88 142.40
  L 127.69 171.86
  A 0.68 0.67 -6.6 0 1 127.12 172.57
  L 111.76 174.96
  A 0.57 0.52 -4.2 0 1 111.11 174.44
  L 111.76 143.37
  Q 111.77 142.86 111.29 142.71
  Q 108.19 141.69 107.18 145.09
  Q 106.32 148.00 96.71 176.80
  A 0.23 0.23 0.0 0 1 96.43 176.95
  L 85.02 173.95
  Q 84.29 173.76 84.31 173.00
  L 84.38 169.43
  A 0.93 0.92 3.7 0 0 83.55 168.49
  Q 78.01 167.93 74.05 167.29
  C 73.18 167.16 72.85 166.87 72.41 166.19
  A 0.98 0.96 -16.1 0 0 71.62 165.76
  L 64.96 165.62
  Q 63.87 165.59 64.04 166.67
  L 64.80 171.60
  Q 64.86 171.95 64.51 171.89
  L 48.19 169.17
  A 1.17 1.17 0.0 0 1 47.23 168.20
  L 46.24 161.84
  Q 46.17 161.40 45.97 161.80
  L 44.28 165.10
  Q 43.95 165.76 43.58 165.12
  L 40.11 159.11
  Q 39.86 158.68 39.78 159.17
  L 39.07 163.43
  A 0.69 0.69 0.0 0 1 38.28 163.99
  L 23.99 161.61
  A 0.54 0.54 0.0 0 1 23.55 161.00
  L 29.86 123.16
  Q 29.96 122.55 30.58 122.56
  L 42.77 122.82
  Q 43.38 122.83 43.48 122.23
  L 43.67 121.08
  A 0.75 0.74 -84.5 0 1 44.41 120.46
  L 56.30 120.71
  Q 56.86 120.73 56.94 121.28
  L 60.84 148.41
  Q 61.28 151.50 61.79 148.33
  Q 61.84 147.99 61.39 146.26
  Q 61.12 145.22 61.14 144.20
  Q 61.24 138.85 60.79 136.37
  Q 60.18 132.95 60.93 131.19
  Q 62.08 128.46 65.23 127.48
  Q 69.29 126.21 73.19 128.34
  Q 73.69 128.61 73.65 128.05
  L 73.23 121.13
  Q 73.19 120.45 73.85 120.60
  L 92.53 124.81
  Q 93.05 124.93 93.13 125.45
  L 93.98 130.93
  Q 94.11 131.79 94.33 130.95
  Z
  M 39.31 147.29
  L 44.25 157.80
  A 0.27 0.27 0.0 0 0 44.75 157.78
  L 47.76 149.88
  Q 48.11 148.98 48.26 149.94
  L 50.70 165.66
  Q 50.73 165.86 50.97 165.90
  L 60.17 167.44
  A 0.23 0.23 0.0 0 0 60.43 167.18
  L 53.83 124.77
  Q 53.77 124.36 53.36 124.35
  L 47.58 124.23
  Q 47.09 124.22 47.01 124.70
  L 45.05 136.50
  Q 44.55 139.49 44.08 136.49
  L 42.59 126.93
  Q 42.51 126.36 41.93 126.35
  L 33.78 126.18
  Q 33.12 126.16 33.01 126.82
  L 27.77 158.23
  Q 27.71 158.58 28.07 158.64
  L 36.48 160.05
  Q 36.78 160.10 36.83 159.79
  L 38.90 147.35
  Q 39.02 146.66 39.31 147.29
  Z
  M 87.10 147.63
  L 87.44 170.17
  Q 87.45 170.71 87.96 170.88
  L 93.63 172.75
  Q 94.20 172.94 94.39 172.37
  L 103.93 143.58
  Q 104.10 143.05 103.54 143.05
  L 102.08 143.05
  A 0.45 0.45 0.0 0 1 101.63 142.60
  L 101.63 130.79
  Q 101.63 130.19 101.04 130.10
  L 98.78 129.72
  A 0.81 0.81 0.0 0 0 97.85 130.34
  L 94.31 146.05
  Q 93.87 148.00 93.46 146.04
  L 89.60 127.89
  Q 89.48 127.31 88.89 127.21
  L 77.37 125.29
  Q 77.01 125.23 76.97 125.59
  L 76.73 128.18
  Q 76.68 128.75 77.24 128.84
  L 78.97 129.13
  A 0.53 0.53 0.0 0 1 79.41 129.71
  L 76.23 163.56
  Q 76.19 163.97 76.57 164.03
  L 83.30 165.15
  Q 83.53 165.19 83.57 164.96
  L 86.75 147.58
  Q 87.07 145.84 87.10 147.63
  Z
  M 114.41 138.85
  A 0.36 0.36 0.0 0 1 114.78 139.21
  L 114.13 170.48
  A 0.36 0.36 0.0 0 0 114.55 170.84
  L 124.20 169.31
  A 0.36 0.36 0.0 0 0 124.50 168.93
  L 122.67 139.09
  A 0.36 0.36 0.0 0 1 122.99 138.71
  L 133.58 137.55
  A 0.36 0.36 0.0 0 0 133.90 137.21
  L 134.17 126.99
  A 0.36 0.36 0.0 0 0 133.78 126.63
  L 104.94 129.17
  A 0.36 0.36 0.0 0 0 104.61 129.53
  L 104.61 138.90
  A 0.36 0.36 0.0 0 0 104.99 139.26
  L 114.41 138.85
  Z
  M 72.6653 133.0600
  A 4.67 3.67 -5.9 0 0 67.6428 129.8894
  A 4.67 3.67 -5.9 0 0 63.3747 134.0200
  A 4.67 3.67 -5.9 0 0 68.3972 137.1906
  A 4.67 3.67 -5.9 0 0 72.6653 133.0600
  Z
  M 74.58 137.02
  C 74.49 137.89 74.92 138.97 74.83 139.67
  Q 74.71 140.61 74.56 142.20
  A 0.22 0.22 0.0 0 0 74.82 142.44
  L 75.22 142.36
  Q 75.38 142.33 75.40 142.18
  Q 75.79 139.63 76.01 137.17
  Q 76.29 134.71 76.42 132.13
  Q 76.43 131.98 76.28 131.92
  L 75.90 131.76
  A 0.22 0.22 0.0 0 0 75.60 131.94
  Q 75.43 133.53 75.36 134.48
  C 75.30 135.18 74.67 136.16 74.58 137.02
  Z
  M 72.12 140.61
  A 0.36 0.36 0.0 0 0 71.79 140.26
  L 64.57 139.67
  A 0.36 0.36 0.0 0 0 64.18 140.04
  L 64.54 162.52
  A 0.36 0.36 0.0 0 0 64.91 162.87
  L 72.30 162.75
  A 0.36 0.36 0.0 0 0 72.65 162.38
  L 72.12 140.61
  Z"
/>
<path fill="#feffff" d="
  M 206.02 135.81
  L 207.67 123.02
  Q 207.73 122.56 208.20 122.53
  L 213.53 122.21
  Q 214.12 122.17 214.24 122.74
  L 218.77 144.07
  Q 218.88 144.58 218.72 145.11
  Q 216.33 152.85 221.76 158.93
  Q 222.10 159.31 222.19 159.80
  L 222.87 163.37
  Q 223.09 164.49 221.95 164.39
  L 214.71 163.71
  Q 213.49 163.59 213.23 162.38
  L 210.24 148.02
  Q 209.99 146.85 209.64 147.97
  L 207.42 155.04
  Q 207.06 156.18 206.46 155.15
  L 201.12 145.90
  Q 200.82 145.38 200.76 145.98
  L 199.61 158.21
  A 0.23 0.23 0.0 0 1 199.36 158.42
  L 190.86 157.62
  A 0.23 0.22 7.6 0 1 190.66 157.37
  L 193.60 126.06
  Q 193.66 125.42 194.31 125.38
  L 202.39 124.88
  Q 202.98 124.84 203.11 125.42
  L 205.56 135.72
  Q 205.87 137.00 206.02 135.81
  Z"
/>
<path fill="#feffff" d="
  M 176.92 142.24
  Q 177.23 142.36 178.48 142.46
  C 182.42 142.78 185.62 145.36 187.45 148.80
  Q 187.69 149.25 187.63 149.75
  Q 187.27 153.07 186.52 159.01
  Q 186.37 160.15 184.25 162.01
  Q 180.83 164.99 176.32 166.81
  Q 170.19 169.29 164.03 170.02
  A 0.43 0.43 0.0 0 1 163.56 169.67
  Q 160.08 151.68 156.58 133.64
  Q 156.47 133.08 155.94 133.27
  L 154.54 133.75
  Q 153.86 133.98 153.63 133.31
  L 152.30 129.45
  Q 152.12 128.92 152.57 128.59
  C 159.24 123.70 169.22 121.41 176.47 126.37
  C 182.52 130.50 181.13 136.74 176.78 141.62
  Q 176.41 142.03 176.92 142.24
  Z
  M 168.49 143.02
  Q 170.38 141.86 171.71 140.31
  C 174.08 137.56 174.03 133.77 170.21 132.30
  Q 167.85 131.38 165.74 132.60
  Q 165.25 132.89 165.39 133.44
  L 167.79 142.73
  Q 167.94 143.35 168.49 143.02
  Z
  M 170.09 150.31
  L 172.94 162.15
  A 0.50 0.50 0.0 0 0 173.54 162.52
  L 173.93 162.43
  A 8.20 6.50 -13.5 0 0 180.39 154.20
  L 180.34 154.02
  A 8.20 6.50 -13.5 0 0 170.85 149.61
  L 170.46 149.71
  A 0.50 0.50 0.0 0 0 170.09 150.31
  Z"
/>
<path fill="#feffff" d="
  M 254.99 145.21
  A 0.24 0.24 0.0 0 0 254.82 144.98
  L 254.54 144.91
  A 0.08 0.07 12.7 0 0 254.44 144.97
  Q 253.44 151.93 251.36 160.38
  Q 251.06 161.58 249.87 161.26
  L 245.27 160.05
  Q 244.23 159.78 244.47 158.74
  C 244.83 157.15 244.78 155.74 245.66 153.99
  Q 247.16 150.99 247.55 150.03
  Q 249.45 145.30 247.28 140.12
  Q 247.09 139.66 247.17 139.18
  L 248.89 128.88
  A 0.69 0.69 0.0 0 0 248.39 128.10
  L 246.96 127.73
  Q 246.38 127.57 246.39 126.97
  L 246.44 124.78
  Q 246.45 124.03 247.18 124.22
  L 257.73 127.00
  Q 258.24 127.13 258.32 127.65
  L 260.95 144.56
  Q 261.16 145.93 261.55 144.59
  L 265.92 129.57
  Q 265.99 129.33 266.23 129.39
  L 274.63 131.61
  Q 274.80 131.65 274.74 131.81
  L 260.79 168.39
  Q 260.70 168.62 260.46 168.56
  L 255.18 167.17
  Q 254.53 167.00 254.54 166.32
  L 254.99 145.21
  Z"
/>
<path fill="#feffff" d="
  M 38.90 147.35
  L 36.83 159.79
  Q 36.78 160.10 36.48 160.05
  L 28.07 158.64
  Q 27.71 158.58 27.77 158.23
  L 33.01 126.82
  Q 33.12 126.16 33.78 126.18
  L 41.93 126.35
  Q 42.51 126.36 42.59 126.93
  L 44.08 136.49
  Q 44.55 139.49 45.05 136.50
  L 47.01 124.70
  Q 47.09 124.22 47.58 124.23
  L 53.36 124.35
  Q 53.77 124.36 53.83 124.77
  L 60.43 167.18
  A 0.23 0.23 0.0 0 1 60.17 167.44
  L 50.97 165.90
  Q 50.73 165.86 50.70 165.66
  L 48.26 149.94
  Q 48.11 148.98 47.76 149.88
  L 44.75 157.78
  A 0.27 0.27 0.0 0 1 44.25 157.80
  L 39.31 147.29
  Q 39.02 146.66 38.90 147.35
  Z"
/>
<path fill="#feffff" d="
  M 86.75 147.58
  L 83.57 164.96
  Q 83.53 165.19 83.30 165.15
  L 76.57 164.03
  Q 76.19 163.97 76.23 163.56
  L 79.41 129.71
  A 0.53 0.53 0.0 0 0 78.97 129.13
  L 77.24 128.84
  Q 76.68 128.75 76.73 128.18
  L 76.97 125.59
  Q 77.01 125.23 77.37 125.29
  L 88.89 127.21
  Q 89.48 127.31 89.60 127.89
  L 93.46 146.04
  Q 93.87 148.00 94.31 146.05
  L 97.85 130.34
  A 0.81 0.81 0.0 0 1 98.78 129.72
  L 101.04 130.10
  Q 101.63 130.19 101.63 130.79
  L 101.63 142.60
  A 0.45 0.45 0.0 0 0 102.08 143.05
  L 103.54 143.05
  Q 104.10 143.05 103.93 143.58
  L 94.39 172.37
  Q 94.20 172.94 93.63 172.75
  L 87.96 170.88
  Q 87.45 170.71 87.44 170.17
  L 87.10 147.63
  Q 87.07 145.84 86.75 147.58
  Z"
/>
<path fill="#feffff" d="
  M 114.41 138.85
  L 104.99 139.26
  A 0.36 0.36 0.0 0 1 104.61 138.90
  L 104.61 129.53
  A 0.36 0.36 0.0 0 1 104.94 129.17
  L 133.78 126.63
  A 0.36 0.36 0.0 0 1 134.17 126.99
  L 133.90 137.21
  A 0.36 0.36 0.0 0 1 133.58 137.55
  L 122.99 138.71
  A 0.36 0.36 0.0 0 0 122.67 139.09
  L 124.50 168.93
  A 0.36 0.36 0.0 0 1 124.20 169.31
  L 114.55 170.84
  A 0.36 0.36 0.0 0 1 114.13 170.48
  L 114.78 139.21
  A 0.36 0.36 0.0 0 0 114.41 138.85
  Z"
/>
<ellipse fill="#feffff" cx="0.00" cy="0.00" transform="translate(68.02,133.54) rotate(-5.9)" rx="4.67" ry="3.67"/>
<path fill="#c96366" d="
  M 76.01 137.17
  Q 75.79 139.63 75.40 142.18
  Q 75.38 142.33 75.22 142.36
  L 74.82 142.44
  A 0.22 0.22 0.0 0 1 74.56 142.20
  Q 74.71 140.61 74.83 139.67
  C 74.92 138.97 74.49 137.89 74.58 137.02
  C 74.67 136.16 75.30 135.18 75.36 134.48
  Q 75.43 133.53 75.60 131.94
  A 0.22 0.22 0.0 0 1 75.90 131.76
  L 76.28 131.92
  Q 76.43 131.98 76.42 132.13
  Q 76.29 134.71 76.01 137.17
  Z"
/>
<path fill="#0053ff" d="
  M 168.49 143.02
  Q 167.94 143.35 167.79 142.73
  L 165.39 133.44
  Q 165.25 132.89 165.74 132.60
  Q 167.85 131.38 170.21 132.30
  C 174.03 133.77 174.08 137.56 171.71 140.31
  Q 170.38 141.86 168.49 143.02
  Z
  M 167.92 134.39
  L 169.00 138.96
  A 0.19 0.19 0.0 0 0 169.22 139.10
  L 169.30 139.09
  A 2.44 2.39 76.7 0 0 171.07 136.16
  L 171.02 135.97
  A 2.44 2.39 76.7 0 0 168.13 134.14
  L 168.06 134.16
  A 0.19 0.19 0.0 0 0 167.92 134.39
  Z"
/>
<path fill="#c96366" d="
  M 167.92 134.39
  A 0.19 0.19 0.0 0 1 168.06 134.16
  L 168.13 134.14
  A 2.44 2.39 76.7 0 1 171.02 135.97
  L 171.07 136.16
  A 2.44 2.39 76.7 0 1 169.30 139.09
  L 169.22 139.10
  A 0.19 0.19 0.0 0 1 169.00 138.96
  L 167.92 134.39
  Z"
/>
<path fill="#feffff" d="
  M 232.94 148.95
  A 0.72 0.72 0.0 0 0 233.34 148.01
  L 232.83 146.76
  Q 232.51 145.98 231.73 146.30
  L 221.75 150.36
  A 0.32 0.32 0.0 0 1 221.31 150.09
  C 220.78 142.09 227.50 135.04 235.48 135.30
  Q 243.86 135.57 245.22 143.51
  Q 246.19 149.18 241.59 154.12
  C 236.32 159.81 226.99 161.06 222.38 153.85
  A 0.47 0.47 0.0 0 1 222.60 153.16
  L 232.94 148.95
  Z"
/>
<path fill="#feffff" d="
  M 72.12 140.61
  L 72.65 162.38
  A 0.36 0.36 0.0 0 1 72.30 162.75
  L 64.91 162.87
  A 0.36 0.36 0.0 0 1 64.54 162.52
  L 64.18 140.04
  A 0.36 0.36 0.0 0 1 64.57 139.67
  L 71.79 140.26
  A 0.36 0.36 0.0 0 1 72.12 140.61
  Z"
/>
<path fill="#0053ff" d="
  M 170.09 150.31
  A 0.50 0.50 0.0 0 1 170.46 149.71
  L 170.85 149.61
  A 8.20 6.50 -13.5 0 1 180.34 154.02
  L 180.39 154.20
  A 8.20 6.50 -13.5 0 1 173.93 162.43
  L 173.54 162.52
  A 0.50 0.50 0.0 0 1 172.94 162.15
  L 170.09 150.31
  Z
  M 174.71 157.96
  Q 174.90 158.70 175.50 158.22
  Q 176.86 157.15 177.43 154.72
  A 1.96 1.95 19.8 0 0 176.38 152.50
  Q 175.53 152.09 173.88 152.19
  Q 173.23 152.22 173.39 152.85
  L 174.71 157.96
  Z"
/>
<path fill="#c96366" d="
  M 174.71 157.96
  L 173.39 152.85
  Q 173.23 152.22 173.88 152.19
  Q 175.53 152.09 176.38 152.50
  A 1.96 1.95 19.8 0 1 177.43 154.72
  Q 176.86 157.15 175.50 158.22
  Q 174.90 158.70 174.71 157.96
  Z"
/>
</svg>
