<?xml version="1.0" encoding="UTF-8" standalone="no"?>
<!DOCTYPE svg PUBLIC "-//W3C//DTD SVG 1.1//EN" "http://www.w3.org/Graphics/SVG/1.1/DTD/svg11.dtd">
<svg xmlns="http://www.w3.org/2000/svg" version="1.1" viewBox="0.00 0.00 300.00 300.00">
<g stroke-width="2.00" fill="none" stroke-linecap="butt">
<path stroke="#2872ff" vector-effect="non-scaling-stroke" d="
  M 7.62 147.30
  Q 7.62 150.77 8.21 153.84
  Q 12.11 173.97 29.66 183.47
  Q 38.20 188.10 49.25 188.09
  Q 84.65 188.08 150.48 188.08
  Q 216.31 188.09 251.72 188.10
  Q 262.77 188.10 271.31 183.47
  Q 288.86 173.97 292.76 153.84
  Q 293.35 150.77 293.35 147.30
  Q 293.35 143.83 292.76 140.76
  Q 288.86 120.63 271.31 111.13
  Q 262.77 106.50 251.72 106.50
  Q 216.32 106.51 150.48 106.51
  Q 84.65 106.51 49.25 106.50
  Q 38.20 106.50 29.66 111.13
  Q 12.11 120.63 8.21 140.76
  Q 7.62 143.83 7.62 147.30"
/>
<path stroke="#2872ff" vector-effect="non-scaling-stroke" d="
  M 262.27 130.01
  L 261.30 124.98
  Q 261.19 124.42 260.64 124.29
  L 244.16 120.27
  Q 243.62 120.14 243.61 120.68
  L 243.38 129.39
  Q 243.37 130.00 243.95 130.14
  L 245.38 130.49
  Q 245.88 130.61 245.82 131.12
  L 245.30 135.97
  A 0.38 0.38 0.0 0 1 244.66 136.20
  Q 240.62 132.31 235.26 132.40
  Q 226.91 132.53 221.89 139.12
  A 0.49 0.49 0.0 0 1 221.02 138.92
  L 217.22 119.25
  Q 217.06 118.41 216.21 118.47
  L 204.61 119.26
  Q 204.05 119.29 203.99 119.85
  L 203.89 120.81
  Q 203.84 121.25 203.40 121.28
  L 191.02 122.12
  A 0.52 0.52 0.0 0 0 190.54 122.58
  L 188.23 143.85
  A 0.21 0.21 0.0 0 1 187.87 143.98
  Q 185.30 141.48 182.11 140.43
  A 0.36 0.35 -67.1 0 1 181.91 139.93
  C 184.04 135.81 185.25 129.58 182.39 125.58
  Q 180.47 122.90 177.37 121.85
  Q 164.45 117.45 150.47 123.70
  Q 149.26 124.24 147.49 126.06
  Q 147.10 126.47 147.29 127.00
  L 151.57 138.47
  Q 151.74 138.92 152.18 138.75
  L 152.92 138.48
  Q 153.55 138.24 153.68 138.90
  L 160.46 173.97
  Q 160.58 174.60 161.21 174.49
  C 170.14 172.91 179.26 170.51 186.47 164.94
  C 187.80 163.92 188.69 162.48 189.78 161.48
  Q 190.18 161.12 190.72 161.17
  L 201.18 162.31
  A 0.77 0.77 0.0 0 0 202.03 161.62
  L 202.45 157.76
  Q 202.55 156.81 203.03 157.64
  L 206.27 163.25
  A 0.48 0.48 0.0 0 0 207.14 163.18
  L 208.41 159.82
  Q 208.82 158.73 209.04 159.87
  L 210.24 166.08
  A 0.88 0.87 87.7 0 0 211.00 166.79
  L 227.17 168.54
  Q 227.63 168.59 227.55 168.14
  L 226.42 162.30
  Q 226.31 161.76 226.85 161.88
  Q 232.03 163.09 237.07 160.77
  Q 240.71 159.10 241.12 158.90
  Q 241.82 158.56 241.63 159.31
  L 241.06 161.68
  Q 240.89 162.35 241.56 162.52
  L 251.12 164.85
  Q 251.56 164.95 251.54 165.41
  L 251.46 168.48
  Q 251.45 168.96 251.91 169.14
  L 261.87 172.89
  A 0.83 0.82 20.7 0 0 262.94 172.41
  L 278.91 130.07
  Q 279.17 129.39 278.46 129.21
  L 264.32 125.76
  A 0.58 0.58 0.0 0 0 263.61 126.26
  Q 263.40 128.23 262.77 130.04
  Q 262.45 130.95 262.27 130.01"
/>
<path stroke="#2872ff" vector-effect="non-scaling-stroke" d="
  M 43.57 161.20
  L 47.57 171.94
  A 0.74 0.74 0.0 0 0 48.52 172.37
  L 66.23 165.77
  Q 66.64 165.62 67.06 165.74
  Q 72.94 167.41 78.68 165.51
  Q 79.30 165.30 79.36 165.95
  L 79.52 167.56
  A 0.61 0.61 0.0 0 0 80.07 168.11
  L 81.80 168.30
  A 0.58 0.58 0.0 0 1 82.24 169.17
  Q 81.81 169.93 81.67 171.00
  Q 81.60 171.58 82.18 171.68
  L 94.32 173.60
  Q 94.90 173.69 95.11 173.15
  L 96.44 169.60
  Q 96.69 168.96 97.37 169.03
  L 101.72 169.50
  Q 102.18 169.55 102.27 170.01
  L 103.00 173.81
  Q 103.11 174.35 103.65 174.25
  L 115.16 172.02
  A 0.62 0.61 -4.6 0 1 115.89 172.64
  L 115.86 173.82
  Q 115.85 174.45 116.47 174.41
  C 126.45 173.72 136.79 170.10 142.83 162.05
  C 150.58 151.73 148.84 137.63 139.09 129.72
  C 132.77 124.58 123.78 123.34 115.90 125.10
  Q 111.92 125.98 109.72 126.55
  A 1.32 1.32 0.0 0 0 108.73 127.96
  L 108.93 129.99
  Q 109.07 131.44 108.55 130.08
  L 106.81 125.61
  Q 106.65 125.22 106.23 125.26
  L 92.90 126.57
  A 0.53 0.53 0.0 0 0 92.44 126.97
  L 89.37 139.57
  Q 89.27 139.96 88.95 139.72
  Q 88.26 139.20 87.62 138.60
  Q 86.18 137.23 85.33 136.67
  Q 74.31 129.40 62.66 136.51
  Q 62.22 136.78 62.19 136.27
  Q 61.85 128.10 54.63 124.17
  C 44.13 118.45 29.97 118.78 18.75 121.92
  A 0.54 0.54 0.0 0 0 18.36 122.54
  L 21.13 136.84
  Q 21.25 137.45 21.85 137.33
  L 24.89 136.74
  Q 25.48 136.63 25.52 137.23
  L 27.81 170.99
  Q 27.85 171.55 28.41 171.57
  L 41.71 171.92
  Q 42.17 171.93 42.22 171.47
  L 43.33 161.23
  Q 43.39 160.71 43.57 161.20"
/>
<path stroke="#7fa9ff" vector-effect="non-scaling-stroke" d="
  M 210.25 148.02
  L 213.23 162.33
  Q 213.47 163.52 214.69 163.65
  L 221.86 164.43
  Q 223.13 164.57 222.89 163.32
  L 222.22 159.85
  Q 222.12 159.34 221.78 158.96
  Q 216.32 152.88 218.72 145.06
  Q 218.87 144.55 218.77 144.06
  L 214.23 122.74
  Q 214.10 122.15 213.50 122.19
  L 208.26 122.54
  Q 207.74 122.58 207.67 123.12
  L 206.07 135.58
  Q 205.88 137.07 205.52 135.53
  L 203.10 125.40
  Q 202.96 124.82 202.37 124.86
  L 194.46 125.40
  Q 193.90 125.44 193.83 126.00
  L 190.45 157.16
  Q 190.42 157.51 190.77 157.55
  L 199.16 158.46
  Q 199.48 158.49 199.52 158.16
  L 200.84 145.97
  Q 200.89 145.50 201.13 145.91
  L 206.52 155.25
  Q 207.06 156.18 207.38 155.16
  L 209.63 147.95
  Q 209.99 146.80 210.25 148.02"
/>
<path stroke="#7fa9ff" vector-effect="non-scaling-stroke" d="
  M 176.87 142.28
  A 0.32 0.32 0.0 0 1 176.65 141.74
  C 184.83 133.30 179.04 124.58 168.77 123.74
  Q 160.26 123.04 152.52 128.63
  Q 152.06 128.96 152.26 129.49
  L 153.73 133.44
  A 0.57 0.57 0.0 0 0 154.47 133.77
  L 155.75 133.30
  Q 156.48 133.03 156.62 133.79
  L 163.52 169.49
  A 0.59 0.58 80.9 0 0 164.16 169.96
  Q 170.96 169.21 177.89 166.13
  C 180.60 164.92 186.24 161.60 186.62 158.37
  Q 187.57 150.30 187.63 149.75
  Q 187.69 149.24 187.46 148.82
  Q 184.05 142.46 176.87 142.28"
/>
<path stroke="#7fa9ff" vector-effect="non-scaling-stroke" d="
  M 255.06 145.04
  L 254.51 166.17
  Q 254.50 166.63 254.92 166.79
  L 260.15 168.76
  Q 260.65 168.95 260.84 168.45
  L 274.69 131.75
  Q 274.75 131.56 274.56 131.52
  L 266.17 129.47
  Q 265.96 129.42 265.90 129.63
  L 261.59 144.52
  Q 261.22 145.82 261.00 144.50
  L 258.23 127.58
  Q 258.14 127.00 257.57 126.86
  L 247.10 124.31
  Q 246.45 124.15 246.44 124.82
  L 246.38 127.02
  A 0.72 0.71 -89.2 0 0 247.09 127.76
  Q 247.71 127.77 248.42 128.12
  Q 248.94 128.37 248.85 128.93
  L 247.22 139.22
  Q 247.14 139.67 247.30 140.09
  Q 249.83 146.74 246.20 152.85
  C 244.96 154.94 244.51 157.40 244.46 159.40
  Q 244.45 159.87 244.90 159.98
  L 250.55 161.36
  Q 251.15 161.50 251.27 160.90
  L 254.56 145.29
  Q 254.61 145.02 254.63 145.02
  L 254.93 144.94
  Q 255.07 144.90 255.06 145.04"
/>
<path stroke="#7fa9ff" vector-effect="non-scaling-stroke" d="
  M 232.89 149.14
  L 222.63 152.96
  A 0.57 0.56 62.9 0 0 222.36 153.80
  Q 226.17 159.61 233.08 158.67
  Q 239.28 157.83 243.04 152.32
  C 247.67 145.55 245.36 135.86 236.06 135.30
  Q 231.31 135.01 227.50 137.70
  Q 221.03 142.25 221.28 150.00
  A 0.27 0.26 -11.3 0 0 221.64 150.23
  L 231.88 146.42
  Q 232.61 146.15 232.89 146.88
  L 233.35 148.13
  Q 233.63 148.87 232.89 149.14"
/>
<path stroke="#7fa9ff" vector-effect="non-scaling-stroke" d="
  M 29.00 133.44
  L 31.33 167.72
  Q 31.34 167.90 31.52 167.90
  L 38.40 168.08
  Q 38.56 168.09 38.57 167.93
  L 40.15 153.39
  Q 40.20 152.96 40.62 152.88
  L 43.80 152.26
  Q 44.30 152.17 44.47 152.64
  L 49.85 167.08
  A 0.79 0.79 0.0 0 0 50.87 167.54
  L 60.20 164.06
  Q 60.76 163.85 60.42 163.36
  L 50.73 149.48
  Q 50.44 149.06 50.81 148.70
  Q 55.86 143.92 57.06 140.05
  Q 59.55 132.04 52.24 127.50
  C 43.86 122.29 32.26 122.58 23.06 125.26
  Q 21.86 125.61 22.12 126.71
  L 23.48 132.28
  Q 23.77 133.47 24.96 133.07
  Q 26.07 132.69 28.41 132.85
  Q 28.96 132.89 29.00 133.44"
/>
<path stroke="#7fa9ff" vector-effect="non-scaling-stroke" d="
  M 115.01 132.87
  A 0.51 0.50 -12.9 0 1 115.69 133.29
  L 119.27 169.72
  Q 119.31 170.18 119.77 170.13
  Q 129.66 169.04 136.28 163.53
  Q 142.49 158.36 143.76 150.76
  Q 145.06 142.92 140.26 136.28
  Q 135.59 129.83 126.87 128.45
  Q 120.58 127.46 113.08 129.43
  Q 112.33 129.63 112.41 130.40
  L 112.67 133.09
  Q 112.73 133.72 113.33 133.50
  L 115.01 132.87"
/>
<path stroke="#7fa9ff" vector-effect="non-scaling-stroke" d="
  M 93.81 155.58
  Q 89.33 160.29 83.28 163.67
  Q 81.65 164.59 83.52 164.63
  L 86.48 164.71
  Q 86.99 164.73 86.87 165.23
  L 86.22 167.90
  Q 86.01 168.75 86.89 168.85
  L 91.64 169.37
  Q 92.56 169.47 92.89 168.60
  L 94.04 165.53
  A 0.84 0.83 13.6 0 1 94.91 165.00
  L 104.93 166.09
  Q 105.48 166.15 105.53 166.69
  L 105.76 169.04
  Q 105.86 170.05 106.86 169.86
  L 114.58 168.36
  Q 115.62 168.16 115.44 167.11
  C 115.18 165.67 115.18 163.95 114.68 162.35
  Q 110.01 147.41 104.32 129.62
  Q 104.17 129.17 103.70 129.22
  L 96.08 129.97
  Q 95.47 130.03 95.32 130.62
  L 90.30 151.22
  Q 90.18 151.69 90.54 152.03
  L 93.80 155.08
  Q 94.06 155.32 93.81 155.58"
/>
<path stroke="#7fa9ff" vector-effect="non-scaling-stroke" d="
  M 74.53 153.30
  L 85.21 141.90
  A 0.67 0.66 -46.9 0 0 85.18 140.97
  Q 78.32 134.42 68.99 137.47
  C 61.79 139.83 57.31 146.49 59.53 153.93
  C 61.42 160.29 67.04 162.92 73.63 162.57
  Q 82.06 162.13 88.55 155.78
  Q 88.65 155.68 88.55 155.58
  L 82.84 150.23
  A 0.40 0.39 40.6 0 0 82.27 150.27
  Q 79.74 153.43 75.05 154.26
  Q 73.34 154.56 74.53 153.30"
/>
<path stroke="#2872ff" vector-effect="non-scaling-stroke" d="
  M 111.92 137.54
  L 111.20 137.71
  A 0.19 0.19 0.0 0 0 111.05 137.94
  L 111.09 138.08
  A 5.82 0.48 77.2 0 0 112.84 143.65
  L 113.00 143.62
  A 5.82 0.48 77.2 0 0 112.18 137.83
  L 112.15 137.69
  A 0.19 0.19 0.0 0 0 111.92 137.54"
/>
<path stroke="#2872ff" vector-effect="non-scaling-stroke" d="
  M 87.12 148.13
  L 87.85 145.15
  Q 88.11 144.08 87.38 144.90
  Q 86.50 145.90 85.77 147.03
  Q 85.07 148.10 86.65 148.43
  Q 87.03 148.51 87.12 148.13"
/>
<path stroke="#7fa9ff" vector-effect="non-scaling-stroke" d="
  M 48.03 142.86
  C 51.03 137.23 47.02 133.38 41.34 133.58
  Q 40.67 133.61 40.65 134.27
  L 40.32 146.76
  Q 40.31 147.37 40.89 147.19
  C 43.07 146.53 46.84 145.09 48.03 142.86"
/>
<path stroke="#7fa9ff" vector-effect="non-scaling-stroke" d="
  M 173.24 135.58
  Q 171.45 130.54 165.76 132.55
  A 0.61 0.60 -16.5 0 0 165.36 133.27
  L 167.78 142.73
  Q 167.93 143.32 168.45 143.01
  Q 170.83 141.61 172.05 139.84
  Q 173.84 137.27 173.24 135.58"
/>
<path stroke="#7fa9ff" vector-effect="non-scaling-stroke" d="
  M 170.03 150.07
  L 173.00 162.42
  A 0.24 0.24 0.0 0 0 173.29 162.60
  L 173.90 162.45
  A 8.25 6.49 -13.5 0 0 180.41 154.21
  L 180.36 154.02
  A 8.25 6.49 -13.5 0 0 170.82 149.63
  L 170.21 149.78
  A 0.24 0.24 0.0 0 0 170.03 150.07"
/>
<path stroke="#7fa9ff" vector-effect="non-scaling-stroke" d="
  M 123.67 136.61
  L 126.15 158.41
  A 0.13 0.13 0.0 0 0 126.30 158.52
  L 126.37 158.51
  A 10.92 9.98 83.5 0 0 135.05 146.53
  L 135.01 146.17
  A 10.92 9.98 83.5 0 0 123.85 136.45
  L 123.79 136.46
  A 0.13 0.13 0.0 0 0 123.67 136.61"
/>
<path stroke="#7fa9ff" vector-effect="non-scaling-stroke" d="
  M 97.55 156.37
  A 0.30 0.30 0.0 0 0 97.91 156.77
  L 103.00 155.32
  A 0.30 0.30 0.0 0 0 103.21 154.97
  L 101.61 147.35
  A 0.30 0.30 0.0 0 0 101.04 147.31
  L 97.55 156.37"
/>
<path stroke="#2872ff" vector-effect="non-scaling-stroke" d="
  M 167.99 134.30
  L 169.01 138.89
  A 0.14 0.14 0.0 0 0 169.17 138.99
  L 169.25 138.98
  A 2.37 2.20 77.5 0 0 170.89 136.19
  L 170.84 135.95
  A 2.37 2.20 77.5 0 0 168.17 134.11
  L 168.10 134.13
  A 0.14 0.14 0.0 0 0 167.99 134.30"
/>
<path stroke="#2872ff" vector-effect="non-scaling-stroke" d="
  M 43.39 136.46
  L 42.96 142.87
  A 0.11 0.11 0.0 0 0 43.06 142.99
  L 43.13 142.99
  A 3.22 2.96 -86.2 0 0 46.30 139.97
  L 46.31 139.77
  A 3.22 2.96 -86.2 0 0 43.57 136.37
  L 43.50 136.36
  A 0.11 0.11 0.0 0 0 43.39 136.46"
/>
<path stroke="#2872ff" vector-effect="non-scaling-stroke" d="
  M 127.86 141.63
  L 129.26 152.87
  A 0.10 0.10 0.0 0 0 129.37 152.95
  L 129.43 152.95
  A 5.65 2.42 82.9 0 0 131.13 147.04
  L 131.11 146.82
  A 5.65 2.42 82.9 0 0 128.01 141.51
  L 127.95 141.52
  A 0.10 0.10 0.0 0 0 127.86 141.63"
/>
<path stroke="#7fa9ff" vector-effect="non-scaling-stroke" d="
  M 69.08 153.34
  L 77.41 143.96
  A 0.47 0.47 0.0 0 0 77.37 143.30
  L 77.08 143.04
  A 6.64 6.62 -48.4 0 0 67.72 143.61
  L 67.59 143.76
  A 6.64 6.62 -48.4 0 0 68.13 153.12
  L 68.42 153.38
  A 0.47 0.47 0.0 0 0 69.08 153.34"
/>
<path stroke="#2872ff" vector-effect="non-scaling-stroke" d="
  M 69.08 150.00
  L 74.16 144.40
  A 0.12 0.12 0.0 0 0 74.15 144.23
  L 74.11 144.19
  A 3.80 2.74 -47.8 0 0 69.53 145.17
  L 69.39 145.31
  A 3.80 2.74 -47.8 0 0 68.87 149.97
  L 68.91 150.01
  A 0.12 0.12 0.0 0 0 69.08 150.00"
/>
<path stroke="#2872ff" vector-effect="non-scaling-stroke" d="
  M 174.46 157.48
  A 0.93 0.93 0.0 0 0 176.21 157.65
  L 177.54 154.69
  A 0.93 0.93 0.0 0 0 177.46 153.79
  L 176.74 152.72
  A 0.93 0.93 0.0 0 0 176.10 152.32
  L 174.53 152.10
  A 0.93 0.93 0.0 0 0 173.50 153.22
  L 174.46 157.48"
/>
</g>
<path fill="#0053ff" d="
  M 150.49 102.33
  Q 252.03 102.33 252.22 102.33
  Q 266.86 102.32 278.49 110.67
  Q 291.65 120.11 295.98 135.99
  Q 297.55 141.76 297.55 147.29
  Q 297.55 152.81 295.98 158.59
  Q 291.65 174.47 278.49 183.91
  Q 266.86 192.26 252.22 192.25
  Q 252.03 192.25 150.49 192.25
  Q 48.95 192.25 48.75 192.25
  Q 34.11 192.26 22.48 183.91
  Q 9.32 174.47 4.99 158.59
  Q 3.42 152.81 3.42 147.29
  Q 3.42 141.76 4.99 135.99
  Q 9.32 120.11 22.48 110.67
  Q 34.11 102.32 48.75 102.33
  Q 48.95 102.33 150.49 102.33
  Z
  M 7.62 147.30
  Q 7.62 150.77 8.21 153.84
  Q 12.11 173.97 29.66 183.47
  Q 38.20 188.10 49.25 188.09
  Q 84.65 188.08 150.48 188.08
  Q 216.31 188.09 251.72 188.10
  Q 262.77 188.10 271.31 183.47
  Q 288.86 173.97 292.76 153.84
  Q 293.35 150.77 293.35 147.30
  Q 293.35 143.83 292.76 140.76
  Q 288.86 120.63 271.31 111.13
  Q 262.77 106.50 251.72 106.50
  Q 216.32 106.51 150.48 106.51
  Q 84.65 106.51 49.25 106.50
  Q 38.20 106.50 29.66 111.13
  Q 12.11 120.63 8.21 140.76
  Q 7.62 143.83 7.62 147.30
  Z"
/>
<path fill="#4f91ff" d="
  M 150.48 106.51
  Q 216.32 106.51 251.72 106.50
  Q 262.77 106.50 271.31 111.13
  Q 288.86 120.63 292.76 140.76
  Q 293.35 143.83 293.35 147.30
  Q 293.35 150.77 292.76 153.84
  Q 288.86 173.97 271.31 183.47
  Q 262.77 188.10 251.72 188.10
  Q 216.31 188.09 150.48 188.08
  Q 84.65 188.08 49.25 188.09
  Q 38.20 188.10 29.66 183.47
  Q 12.11 173.97 8.21 153.84
  Q 7.62 150.77 7.62 147.30
  Q 7.62 143.83 8.21 140.76
  Q 12.11 120.63 29.66 111.13
  Q 38.20 106.50 49.25 106.50
  Q 84.65 106.51 150.48 106.51
  Z
  M 262.27 130.01
  L 261.30 124.98
  Q 261.19 124.42 260.64 124.29
  L 244.16 120.27
  Q 243.62 120.14 243.61 120.68
  L 243.38 129.39
  Q 243.37 130.00 243.95 130.14
  L 245.38 130.49
  Q 245.88 130.61 245.82 131.12
  L 245.30 135.97
  A 0.38 0.38 0.0 0 1 244.66 136.20
  Q 240.62 132.31 235.26 132.40
  Q 226.91 132.53 221.89 139.12
  A 0.49 0.49 0.0 0 1 221.02 138.92
  L 217.22 119.25
  Q 217.06 118.41 216.21 118.47
  L 204.61 119.26
  Q 204.05 119.29 203.99 119.85
  L 203.89 120.81
  Q 203.84 121.25 203.40 121.28
  L 191.02 122.12
  A 0.52 0.52 0.0 0 0 190.54 122.58
  L 188.23 143.85
  A 0.21 0.21 0.0 0 1 187.87 143.98
  Q 185.30 141.48 182.11 140.43
  A 0.36 0.35 -67.1 0 1 181.91 139.93
  C 184.04 135.81 185.25 129.58 182.39 125.58
  Q 180.47 122.90 177.37 121.85
  Q 164.45 117.45 150.47 123.70
  Q 149.26 124.24 147.49 126.06
  Q 147.10 126.47 147.29 127.00
  L 151.57 138.47
  Q 151.74 138.92 152.18 138.75
  L 152.92 138.48
  Q 153.55 138.24 153.68 138.90
  L 160.46 173.97
  Q 160.58 174.60 161.21 174.49
  C 170.14 172.91 179.26 170.51 186.47 164.94
  C 187.80 163.92 188.69 162.48 189.78 161.48
  Q 190.18 161.12 190.72 161.17
  L 201.18 162.31
  A 0.77 0.77 0.0 0 0 202.03 161.62
  L 202.45 157.76
  Q 202.55 156.81 203.03 157.64
  L 206.27 163.25
  A 0.48 0.48 0.0 0 0 207.14 163.18
  L 208.41 159.82
  Q 208.82 158.73 209.04 159.87
  L 210.24 166.08
  A 0.88 0.87 87.7 0 0 211.00 166.79
  L 227.17 168.54
  Q 227.63 168.59 227.55 168.14
  L 226.42 162.30
  Q 226.31 161.76 226.85 161.88
  Q 232.03 163.09 237.07 160.77
  Q 240.71 159.10 241.12 158.90
  Q 241.82 158.56 241.63 159.31
  L 241.06 161.68
  Q 240.89 162.35 241.56 162.52
  L 251.12 164.85
  Q 251.56 164.95 251.54 165.41
  L 251.46 168.48
  Q 251.45 168.96 251.91 169.14
  L 261.87 172.89
  A 0.83 0.82 20.7 0 0 262.94 172.41
  L 278.91 130.07
  Q 279.17 129.39 278.46 129.21
  L 264.32 125.76
  A 0.58 0.58 0.0 0 0 263.61 126.26
  Q 263.40 128.23 262.77 130.04
  Q 262.45 130.95 262.27 130.01
  Z
  M 43.57 161.20
  L 47.57 171.94
  A 0.74 0.74 0.0 0 0 48.52 172.37
  L 66.23 165.77
  Q 66.64 165.62 67.06 165.74
  Q 72.94 167.41 78.68 165.51
  Q 79.30 165.30 79.36 165.95
  L 79.52 167.56
  A 0.61 0.61 0.0 0 0 80.07 168.11
  L 81.80 168.30
  A 0.58 0.58 0.0 0 1 82.24 169.17
  Q 81.81 169.93 81.67 171.00
  Q 81.60 171.58 82.18 171.68
  L 94.32 173.60
  Q 94.90 173.69 95.11 173.15
  L 96.44 169.60
  Q 96.69 168.96 97.37 169.03
  L 101.72 169.50
  Q 102.18 169.55 102.27 170.01
  L 103.00 173.81
  Q 103.11 174.35 103.65 174.25
  L 115.16 172.02
  A 0.62 0.61 -4.6 0 1 115.89 172.64
  L 115.86 173.82
  Q 115.85 174.45 116.47 174.41
  C 126.45 173.72 136.79 170.10 142.83 162.05
  C 150.58 151.73 148.84 137.63 139.09 129.72
  C 132.77 124.58 123.78 123.34 115.90 125.10
  Q 111.92 125.98 109.72 126.55
  A 1.32 1.32 0.0 0 0 108.73 127.96
  L 108.93 129.99
  Q 109.07 131.44 108.55 130.08
  L 106.81 125.61
  Q 106.65 125.22 106.23 125.26
  L 92.90 126.57
  A 0.53 0.53 0.0 0 0 92.44 126.97
  L 89.37 139.57
  Q 89.27 139.96 88.95 139.72
  Q 88.26 139.20 87.62 138.60
  Q 86.18 137.23 85.33 136.67
  Q 74.31 129.40 62.66 136.51
  Q 62.22 136.78 62.19 136.27
  Q 61.85 128.10 54.63 124.17
  C 44.13 118.45 29.97 118.78 18.75 121.92
  A 0.54 0.54 0.0 0 0 18.36 122.54
  L 21.13 136.84
  Q 21.25 137.45 21.85 137.33
  L 24.89 136.74
  Q 25.48 136.63 25.52 137.23
  L 27.81 170.99
  Q 27.85 171.55 28.41 171.57
  L 41.71 171.92
  Q 42.17 171.93 42.22 171.47
  L 43.33 161.23
  Q 43.39 160.71 43.57 161.20
  Z"
/>
<path fill="#0053ff" d="
  M 262.77 130.04
  Q 263.40 128.23 263.61 126.26
  A 0.58 0.58 0.0 0 1 264.32 125.76
  L 278.46 129.21
  Q 279.17 129.39 278.91 130.07
  L 262.94 172.41
  A 0.83 0.82 20.7 0 1 261.87 172.89
  L 251.91 169.14
  Q 251.45 168.96 251.46 168.48
  L 251.54 165.41
  Q 251.56 164.95 251.12 164.85
  L 241.56 162.52
  Q 240.89 162.35 241.06 161.68
  L 241.63 159.31
  Q 241.82 158.56 241.12 158.90
  Q 240.71 159.10 237.07 160.77
  Q 232.03 163.09 226.85 161.88
  Q 226.31 161.76 226.42 162.30
  L 227.55 168.14
  Q 227.63 168.59 227.17 168.54
  L 211.00 166.79
  A 0.88 0.87 87.7 0 1 210.24 166.08
  L 209.04 159.87
  Q 208.82 158.73 208.41 159.82
  L 207.14 163.18
  A 0.48 0.48 0.0 0 1 206.27 163.25
  L 203.03 157.64
  Q 202.55 156.81 202.45 157.76
  L 202.03 161.62
  A 0.77 0.77 0.0 0 1 201.18 162.31
  L 190.72 161.17
  Q 190.18 161.12 189.78 161.48
  C 188.69 162.48 187.80 163.92 186.47 164.94
  C 179.26 170.51 170.14 172.91 161.21 174.49
  Q 160.58 174.60 160.46 173.97
  L 153.68 138.90
  Q 153.55 138.24 152.92 138.48
  L 152.18 138.75
  Q 151.74 138.92 151.57 138.47
  L 147.29 127.00
  Q 147.10 126.47 147.49 126.06
  Q 149.26 124.24 150.47 123.70
  Q 164.45 117.45 177.37 121.85
  Q 180.47 122.90 182.39 125.58
  C 185.25 129.58 184.04 135.81 181.91 139.93
  A 0.36 0.35 -67.1 0 0 182.11 140.43
  Q 185.30 141.48 187.87 143.98
  A 0.21 0.21 0.0 0 0 188.23 143.85
  L 190.54 122.58
  A 0.52 0.52 0.0 0 1 191.02 122.12
  L 203.40 121.28
  Q 203.84 121.25 203.89 120.81
  L 203.99 119.85
  Q 204.05 119.29 204.61 119.26
  L 216.21 118.47
  Q 217.06 118.41 217.22 119.25
  L 221.02 138.92
  A 0.49 0.49 0.0 0 0 221.89 139.12
  Q 226.91 132.53 235.26 132.40
  Q 240.62 132.31 244.66 136.20
  A 0.38 0.38 0.0 0 0 245.30 135.97
  L 245.82 131.12
  Q 245.88 130.61 245.38 130.49
  L 243.95 130.14
  Q 243.37 130.00 243.38 129.39
  L 243.61 120.68
  Q 243.62 120.14 244.16 120.27
  L 260.64 124.29
  Q 261.19 124.42 261.30 124.98
  L 262.27 130.01
  Q 262.45 130.95 262.77 130.04
  Z
  M 210.25 148.02
  L 213.23 162.33
  Q 213.47 163.52 214.69 163.65
  L 221.86 164.43
  Q 223.13 164.57 222.89 163.32
  L 222.22 159.85
  Q 222.12 159.34 221.78 158.96
  Q 216.32 152.88 218.72 145.06
  Q 218.87 144.55 218.77 144.06
  L 214.23 122.74
  Q 214.10 122.15 213.50 122.19
  L 208.26 122.54
  Q 207.74 122.58 207.67 123.12
  L 206.07 135.58
  Q 205.88 137.07 205.52 135.53
  L 203.10 125.40
  Q 202.96 124.82 202.37 124.86
  L 194.46 125.40
  Q 193.90 125.44 193.83 126.00
  L 190.45 157.16
  Q 190.42 157.51 190.77 157.55
  L 199.16 158.46
  Q 199.48 158.49 199.52 158.16
  L 200.84 145.97
  Q 200.89 145.50 201.13 145.91
  L 206.52 155.25
  Q 207.06 156.18 207.38 155.16
  L 209.63 147.95
  Q 209.99 146.80 210.25 148.02
  Z
  M 176.87 142.28
  A 0.32 0.32 0.0 0 1 176.65 141.74
  C 184.83 133.30 179.04 124.58 168.77 123.74
  Q 160.26 123.04 152.52 128.63
  Q 152.06 128.96 152.26 129.49
  L 153.73 133.44
  A 0.57 0.57 0.0 0 0 154.47 133.77
  L 155.75 133.30
  Q 156.48 133.03 156.62 133.79
  L 163.52 169.49
  A 0.59 0.58 80.9 0 0 164.16 169.96
  Q 170.96 169.21 177.89 166.13
  C 180.60 164.92 186.24 161.60 186.62 158.37
  Q 187.57 150.30 187.63 149.75
  Q 187.69 149.24 187.46 148.82
  Q 184.05 142.46 176.87 142.28
  Z
  M 255.06 145.04
  L 254.51 166.17
  Q 254.50 166.63 254.92 166.79
  L 260.15 168.76
  Q 260.65 168.95 260.84 168.45
  L 274.69 131.75
  Q 274.75 131.56 274.56 131.52
  L 266.17 129.47
  Q 265.96 129.42 265.90 129.63
  L 261.59 144.52
  Q 261.22 145.82 261.00 144.50
  L 258.23 127.58
  Q 258.14 127.00 257.57 126.86
  L 247.10 124.31
  Q 246.45 124.15 246.44 124.82
  L 246.38 127.02
  A 0.72 0.71 -89.2 0 0 247.09 127.76
  Q 247.71 127.77 248.42 128.12
  Q 248.94 128.37 248.85 128.93
  L 247.22 139.22
  Q 247.14 139.67 247.30 140.09
  Q 249.83 146.74 246.20 152.85
  C 244.96 154.94 244.51 157.40 244.46 159.40
  Q 244.45 159.87 244.90 159.98
  L 250.55 161.36
  Q 251.15 161.50 251.27 160.90
  L 254.56 145.29
  Q 254.61 145.02 254.63 145.02
  L 254.93 144.94
  Q 255.07 144.90 255.06 145.04
  Z
  M 232.89 149.14
  L 222.63 152.96
  A 0.57 0.56 62.9 0 0 222.36 153.80
  Q 226.17 159.61 233.08 158.67
  Q 239.28 157.83 243.04 152.32
  C 247.67 145.55 245.36 135.86 236.06 135.30
  Q 231.31 135.01 227.50 137.70
  Q 221.03 142.25 221.28 150.00
  A 0.27 0.26 -11.3 0 0 221.64 150.23
  L 231.88 146.42
  Q 232.61 146.15 232.89 146.88
  L 233.35 148.13
  Q 233.63 148.87 232.89 149.14
  Z"
/>
<path fill="#0053ff" d="
  M 43.33 161.23
  L 42.22 171.47
  Q 42.17 171.93 41.71 171.92
  L 28.41 171.57
  Q 27.85 171.55 27.81 170.99
  L 25.52 137.23
  Q 25.48 136.63 24.89 136.74
  L 21.85 137.33
  Q 21.25 137.45 21.13 136.84
  L 18.36 122.54
  A 0.54 0.54 0.0 0 1 18.75 121.92
  C 29.97 118.78 44.13 118.45 54.63 124.17
  Q 61.85 128.10 62.19 136.27
  Q 62.22 136.78 62.66 136.51
  Q 74.31 129.40 85.33 136.67
  Q 86.18 137.23 87.62 138.60
  Q 88.26 139.20 88.95 139.72
  Q 89.27 139.96 89.37 139.57
  L 92.44 126.97
  A 0.53 0.53 0.0 0 1 92.90 126.57
  L 106.23 125.26
  Q 106.65 125.22 106.81 125.61
  L 108.55 130.08
  Q 109.07 131.44 108.93 129.99
  L 108.73 127.96
  A 1.32 1.32 0.0 0 1 109.72 126.55
  Q 111.92 125.98 115.90 125.10
  C 123.78 123.34 132.77 124.58 139.09 129.72
  C 148.84 137.63 150.58 151.73 142.83 162.05
  C 136.79 170.10 126.45 173.72 116.47 174.41
  Q 115.85 174.45 115.86 173.82
  L 115.89 172.64
  A 0.62 0.61 -4.6 0 0 115.16 172.02
  L 103.65 174.25
  Q 103.11 174.35 103.00 173.81
  L 102.27 170.01
  Q 102.18 169.55 101.72 169.50
  L 97.37 169.03
  Q 96.69 168.96 96.44 169.60
  L 95.11 173.15
  Q 94.90 173.69 94.32 173.60
  L 82.18 171.68
  Q 81.60 171.58 81.67 171.00
  Q 81.81 169.93 82.24 169.17
  A 0.58 0.58 0.0 0 0 81.80 168.30
  L 80.07 168.11
  A 0.61 0.61 0.0 0 1 79.52 167.56
  L 79.36 165.95
  Q 79.30 165.30 78.68 165.51
  Q 72.94 167.41 67.06 165.74
  Q 66.64 165.62 66.23 165.77
  L 48.52 172.37
  A 0.74 0.74 0.0 0 1 47.57 171.94
  L 43.57 161.20
  Q 43.39 160.71 43.33 161.23
  Z
  M 29.00 133.44
  L 31.33 167.72
  Q 31.34 167.90 31.52 167.90
  L 38.40 168.08
  Q 38.56 168.09 38.57 167.93
  L 40.15 153.39
  Q 40.20 152.96 40.62 152.88
  L 43.80 152.26
  Q 44.30 152.17 44.47 152.64
  L 49.85 167.08
  A 0.79 0.79 0.0 0 0 50.87 167.54
  L 60.20 164.06
  Q 60.76 163.85 60.42 163.36
  L 50.73 149.48
  Q 50.44 149.06 50.81 148.70
  Q 55.86 143.92 57.06 140.05
  Q 59.55 132.04 52.24 127.50
  C 43.86 122.29 32.26 122.58 23.06 125.26
  Q 21.86 125.61 22.12 126.71
  L 23.48 132.28
  Q 23.77 133.47 24.96 133.07
  Q 26.07 132.69 28.41 132.85
  Q 28.96 132.89 29.00 133.44
  Z
  M 115.01 132.87
  A 0.51 0.50 -12.9 0 1 115.69 133.29
  L 119.27 169.72
  Q 119.31 170.18 119.77 170.13
  Q 129.66 169.04 136.28 163.53
  Q 142.49 158.36 143.76 150.76
  Q 145.06 142.92 140.26 136.28
  Q 135.59 129.83 126.87 128.45
  Q 120.58 127.46 113.08 129.43
  Q 112.33 129.63 112.41 130.40
  L 112.67 133.09
  Q 112.73 133.72 113.33 133.50
  L 115.01 132.87
  Z
  M 93.81 155.58
  Q 89.33 160.29 83.28 163.67
  Q 81.65 164.59 83.52 164.63
  L 86.48 164.71
  Q 86.99 164.73 86.87 165.23
  L 86.22 167.90
  Q 86.01 168.75 86.89 168.85
  L 91.64 169.37
  Q 92.56 169.47 92.89 168.60
  L 94.04 165.53
  A 0.84 0.83 13.6 0 1 94.91 165.00
  L 104.93 166.09
  Q 105.48 166.15 105.53 166.69
  L 105.76 169.04
  Q 105.86 170.05 106.86 169.86
  L 114.58 168.36
  Q 115.62 168.16 115.44 167.11
  C 115.18 165.67 115.18 163.95 114.68 162.35
  Q 110.01 147.41 104.32 129.62
  Q 104.17 129.17 103.70 129.22
  L 96.08 129.97
  Q 95.47 130.03 95.32 130.62
  L 90.30 151.22
  Q 90.18 151.69 90.54 152.03
  L 93.80 155.08
  Q 94.06 155.32 93.81 155.58
  Z
  M 74.53 153.30
  L 85.21 141.90
  A 0.67 0.66 -46.9 0 0 85.18 140.97
  Q 78.32 134.42 68.99 137.47
  C 61.79 139.83 57.31 146.49 59.53 153.93
  C 61.42 160.29 67.04 162.92 73.63 162.57
  Q 82.06 162.13 88.55 155.78
  Q 88.65 155.68 88.55 155.58
  L 82.84 150.23
  A 0.40 0.39 40.6 0 0 82.27 150.27
  Q 79.74 153.43 75.05 154.26
  Q 73.34 154.56 74.53 153.30
  Z
  M 111.92 137.54
  L 111.20 137.71
  A 0.19 0.19 0.0 0 0 111.05 137.94
  L 111.09 138.08
  A 5.82 0.48 77.2 0 0 112.84 143.65
  L 113.00 143.62
  A 5.82 0.48 77.2 0 0 112.18 137.83
  L 112.15 137.69
  A 0.19 0.19 0.0 0 0 111.92 137.54
  Z
  M 87.12 148.13
  L 87.85 145.15
  Q 88.11 144.08 87.38 144.90
  Q 86.50 145.90 85.77 147.03
  Q 85.07 148.10 86.65 148.43
  Q 87.03 148.51 87.12 148.13
  Z"
/>
<path fill="#feffff" d="
  M 209.63 147.95
  L 207.38 155.16
  Q 207.06 156.18 206.52 155.25
  L 201.13 145.91
  Q 200.89 145.50 200.84 145.97
  L 199.52 158.16
  Q 199.48 158.49 199.16 158.46
  L 190.77 157.55
  Q 190.42 157.51 190.45 157.16
  L 193.83 126.00
  Q 193.90 125.44 194.46 125.40
  L 202.37 124.86
  Q 202.96 124.82 203.10 125.40
  L 205.52 135.53
  Q 205.88 137.07 206.07 135.58
  L 207.67 123.12
  Q 207.74 122.58 208.26 122.54
  L 213.50 122.19
  Q 214.10 122.15 214.23 122.74
  L 218.77 144.06
  Q 218.87 144.55 218.72 145.06
  Q 216.32 152.88 221.78 158.96
  Q 222.12 159.34 222.22 159.85
  L 222.89 163.32
  Q 223.13 164.57 221.86 164.43
  L 214.69 163.65
  Q 213.47 163.52 213.23 162.33
  L 210.25 148.02
  Q 209.99 146.80 209.63 147.95
  Z"
/>
<path fill="#feffff" d="
  M 28.41 132.85
  Q 26.07 132.69 24.96 133.07
  Q 23.77 133.47 23.48 132.28
  L 22.12 126.71
  Q 21.86 125.61 23.06 125.26
  C 32.26 122.58 43.86 122.29 52.24 127.50
  Q 59.55 132.04 57.06 140.05
  Q 55.86 143.92 50.81 148.70
  Q 50.44 149.06 50.73 149.48
  L 60.42 163.36
  Q 60.76 163.85 60.20 164.06
  L 50.87 167.54
  A 0.79 0.79 0.0 0 1 49.85 167.08
  L 44.47 152.64
  Q 44.30 152.17 43.80 152.26
  L 40.62 152.88
  Q 40.20 152.96 40.15 153.39
  L 38.57 167.93
  Q 38.56 168.09 38.40 168.08
  L 31.52 167.90
  Q 31.34 167.90 31.33 167.72
  L 29.00 133.44
  Q 28.96 132.89 28.41 132.85
  Z
  M 48.03 142.86
  C 51.03 137.23 47.02 133.38 41.34 133.58
  Q 40.67 133.61 40.65 134.27
  L 40.32 146.76
  Q 40.31 147.37 40.89 147.19
  C 43.07 146.53 46.84 145.09 48.03 142.86
  Z"
/>
<path fill="#feffff" d="
  M 176.87 142.28
  Q 184.05 142.46 187.46 148.82
  Q 187.69 149.24 187.63 149.75
  Q 187.57 150.30 186.62 158.37
  C 186.24 161.60 180.60 164.92 177.89 166.13
  Q 170.96 169.21 164.16 169.96
  A 0.59 0.58 80.9 0 1 163.52 169.49
  L 156.62 133.79
  Q 156.48 133.03 155.75 133.30
  L 154.47 133.77
  A 0.57 0.57 0.0 0 1 153.73 133.44
  L 152.26 129.49
  Q 152.06 128.96 152.52 128.63
  Q 160.26 123.04 168.77 123.74
  C 179.04 124.58 184.83 133.30 176.65 141.74
  A 0.32 0.32 0.0 0 0 176.87 142.28
  Z
  M 173.24 135.58
  Q 171.45 130.54 165.76 132.55
  A 0.61 0.60 -16.5 0 0 165.36 133.27
  L 167.78 142.73
  Q 167.93 143.32 168.45 143.01
  Q 170.83 141.61 172.05 139.84
  Q 173.84 137.27 173.24 135.58
  Z
  M 170.03 150.07
  L 173.00 162.42
  A 0.24 0.24 0.0 0 0 173.29 162.60
  L 173.90 162.45
  A 8.25 6.49 -13.5 0 0 180.41 154.21
  L 180.36 154.02
  A 8.25 6.49 -13.5 0 0 170.82 149.63
  L 170.21 149.78
  A 0.24 0.24 0.0 0 0 170.03 150.07
  Z"
/>
<path fill="#feffff" d="
  M 255.06 145.04
  Q 255.07 144.90 254.93 144.94
  L 254.63 145.02
  Q 254.61 145.02 254.56 145.29
  L 251.27 160.90
  Q 251.15 161.50 250.55 161.36
  L 244.90 159.98
  Q 244.45 159.87 244.46 159.40
  C 244.51 157.40 244.96 154.94 246.20 152.85
  Q 249.83 146.74 247.30 140.09
  Q 247.14 139.67 247.22 139.22
  L 248.85 128.93
  Q 248.94 128.37 248.42 128.12
  Q 247.71 127.77 247.09 127.76
  A 0.72 0.71 -89.2 0 1 246.38 127.02
  L 246.44 124.82
  Q 246.45 124.15 247.10 124.31
  L 257.57 126.86
  Q 258.14 127.00 258.23 127.58
  L 261.00 144.50
  Q 261.22 145.82 261.59 144.52
  L 265.90 129.63
  Q 265.96 129.42 266.17 129.47
  L 274.56 131.52
  Q 274.75 131.56 274.69 131.75
  L 260.84 168.45
  Q 260.65 168.95 260.15 168.76
  L 254.92 166.79
  Q 254.50 166.63 254.51 166.17
  L 255.06 145.04
  Z"
/>
<path fill="#feffff" d="
  M 115.01 132.87
  L 113.33 133.50
  Q 112.73 133.72 112.67 133.09
  L 112.41 130.40
  Q 112.33 129.63 113.08 129.43
  Q 120.58 127.46 126.87 128.45
  Q 135.59 129.83 140.26 136.28
  Q 145.06 142.92 143.76 150.76
  Q 142.49 158.36 136.28 163.53
  Q 129.66 169.04 119.77 170.13
  Q 119.31 170.18 119.27 169.72
  L 115.69 133.29
  A 0.51 0.50 -12.9 0 0 115.01 132.87
  Z
  M 123.67 136.61
  L 126.15 158.41
  A 0.13 0.13 0.0 0 0 126.30 158.52
  L 126.37 158.51
  A 10.92 9.98 83.5 0 0 135.05 146.53
  L 135.01 146.17
  A 10.92 9.98 83.5 0 0 123.85 136.45
  L 123.79 136.46
  A 0.13 0.13 0.0 0 0 123.67 136.61
  Z"
/>
<path fill="#feffff" d="
  M 93.80 155.08
  L 90.54 152.03
  Q 90.18 151.69 90.30 151.22
  L 95.32 130.62
  Q 95.47 130.03 96.08 129.97
  L 103.70 129.22
  Q 104.17 129.17 104.32 129.62
  Q 110.01 147.41 114.68 162.35
  C 115.18 163.95 115.18 165.67 115.44 167.11
  Q 115.62 168.16 114.58 168.36
  L 106.86 169.86
  Q 105.86 170.05 105.76 169.04
  L 105.53 166.69
  Q 105.48 166.15 104.93 166.09
  L 94.91 165.00
  A 0.84 0.83 13.6 0 0 94.04 165.53
  L 92.89 168.60
  Q 92.56 169.47 91.64 169.37
  L 86.89 168.85
  Q 86.01 168.75 86.22 167.90
  L 86.87 165.23
  Q 86.99 164.73 86.48 164.71
  L 83.52 164.63
  Q 81.65 164.59 83.28 163.67
  Q 89.33 160.29 93.81 155.58
  Q 94.06 155.32 93.80 155.08
  Z
  M 97.55 156.37
  A 0.30 0.30 0.0 0 0 97.91 156.77
  L 103.00 155.32
  A 0.30 0.30 0.0 0 0 103.21 154.97
  L 101.61 147.35
  A 0.30 0.30 0.0 0 0 101.04 147.31
  L 97.55 156.37
  Z"
/>
<path fill="#0053ff" d="
  M 173.24 135.58
  Q 173.84 137.27 172.05 139.84
  Q 170.83 141.61 168.45 143.01
  Q 167.93 143.32 167.78 142.73
  L 165.36 133.27
  A 0.61 0.60 -16.5 0 1 165.76 132.55
  Q 171.45 130.54 173.24 135.58
  Z
  M 167.99 134.30
  L 169.01 138.89
  A 0.14 0.14 0.0 0 0 169.17 138.99
  L 169.25 138.98
  A 2.37 2.20 77.5 0 0 170.89 136.19
  L 170.84 135.95
  A 2.37 2.20 77.5 0 0 168.17 134.11
  L 168.10 134.13
  A 0.14 0.14 0.0 0 0 167.99 134.30
  Z"
/>
<path fill="#0053ff" d="
  M 41.34 133.58
  C 47.02 133.38 51.03 137.23 48.03 142.86
  C 46.84 145.09 43.07 146.53 40.89 147.19
  Q 40.31 147.37 40.32 146.76
  L 40.65 134.27
  Q 40.67 133.61 41.34 133.58
  Z
  M 43.39 136.46
  L 42.96 142.87
  A 0.11 0.11 0.0 0 0 43.06 142.99
  L 43.13 142.99
  A 3.22 2.96 -86.2 0 0 46.30 139.97
  L 46.31 139.77
  A 3.22 2.96 -86.2 0 0 43.57 136.37
  L 43.50 136.36
  A 0.11 0.11 0.0 0 0 43.39 136.46
  Z"
/>
<path fill="#4f91ff" d="
  M 167.99 134.30
  A 0.14 0.14 0.0 0 1 168.10 134.13
  L 168.17 134.11
  A 2.37 2.20 77.5 0 1 170.84 135.95
  L 170.89 136.19
  A 2.37 2.20 77.5 0 1 169.25 138.98
  L 169.17 138.99
  A 0.14 0.14 0.0 0 1 169.01 138.89
  L 167.99 134.30
  Z"
/>
<path fill="#feffff" d="
  M 232.89 149.14
  Q 233.63 148.87 233.35 148.13
  L 232.89 146.88
  Q 232.61 146.15 231.88 146.42
  L 221.64 150.23
  A 0.27 0.26 -11.3 0 1 221.28 150.00
  Q 221.03 142.25 227.50 137.70
  Q 231.31 135.01 236.06 135.30
  C 245.36 135.86 247.67 145.55 243.04 152.32
  Q 239.28 157.83 233.08 158.67
  Q 226.17 159.61 222.36 153.80
  A 0.57 0.56 62.9 0 1 222.63 152.96
  L 232.89 149.14
  Z"
/>
<path fill="#4f91ff" d="
  M 43.39 136.46
  A 0.11 0.11 0.0 0 1 43.50 136.36
  L 43.57 136.37
  A 3.22 2.96 -86.2 0 1 46.31 139.77
  L 46.30 139.97
  A 3.22 2.96 -86.2 0 1 43.13 142.99
  L 43.06 142.99
  A 0.11 0.11 0.0 0 1 42.96 142.87
  L 43.39 136.46
  Z"
/>
<path fill="#0053ff" d="
  M 123.67 136.61
  A 0.13 0.13 0.0 0 1 123.79 136.46
  L 123.85 136.45
  A 10.92 9.98 83.5 0 1 135.01 146.17
  L 135.05 146.53
  A 10.92 9.98 83.5 0 1 126.37 158.51
  L 126.30 158.52
  A 0.13 0.13 0.0 0 1 126.15 158.41
  L 123.67 136.61
  Z
  M 127.86 141.63
  L 129.26 152.87
  A 0.10 0.10 0.0 0 0 129.37 152.95
  L 129.43 152.95
  A 5.65 2.42 82.9 0 0 131.13 147.04
  L 131.11 146.82
  A 5.65 2.42 82.9 0 0 128.01 141.51
  L 127.95 141.52
  A 0.10 0.10 0.0 0 0 127.86 141.63
  Z"
/>
<path fill="#feffff" d="
  M 74.53 153.30
  Q 73.34 154.56 75.05 154.26
  Q 79.74 153.43 82.27 150.27
  A 0.40 0.39 40.6 0 1 82.84 150.23
  L 88.55 155.58
  Q 88.65 155.68 88.55 155.78
  Q 82.06 162.13 73.63 162.57
  C 67.04 162.92 61.42 160.29 59.53 153.93
  C 57.31 146.49 61.79 139.83 68.99 137.47
  Q 78.32 134.42 85.18 140.97
  A 0.67 0.66 -46.9 0 1 85.21 141.90
  L 74.53 153.30
  Z
  M 69.08 153.34
  L 77.41 143.96
  A 0.47 0.47 0.0 0 0 77.37 143.30
  L 77.08 143.04
  A 6.64 6.62 -48.4 0 0 67.72 143.61
  L 67.59 143.76
  A 6.64 6.62 -48.4 0 0 68.13 153.12
  L 68.42 153.38
  A 0.47 0.47 0.0 0 0 69.08 153.34
  Z"
/>
<path fill="#4f91ff" d="
  M 111.92 137.54
  A 0.19 0.19 0.0 0 1 112.15 137.69
  L 112.18 137.83
  A 5.82 0.48 77.2 0 1 113.00 143.62
  L 112.84 143.65
  A 5.82 0.48 77.2 0 1 111.09 138.08
  L 111.05 137.94
  A 0.19 0.19 0.0 0 1 111.20 137.71
  L 111.92 137.54
  Z"
/>
<path fill="#0053ff" d="
  M 69.08 153.34
  A 0.47 0.47 0.0 0 1 68.42 153.38
  L 68.13 153.12
  A 6.64 6.62 -48.4 0 1 67.59 143.76
  L 67.72 143.61
  A 6.64 6.62 -48.4 0 1 77.08 143.04
  L 77.37 143.30
  A 0.47 0.47 0.0 0 1 77.41 143.96
  L 69.08 153.34
  Z
  M 69.08 150.00
  L 74.16 144.40
  A 0.12 0.12 0.0 0 0 74.15 144.23
  L 74.11 144.19
  A 3.80 2.74 -47.8 0 0 69.53 145.17
  L 69.39 145.31
  A 3.80 2.74 -47.8 0 0 68.87 149.97
  L 68.91 150.01
  A 0.12 0.12 0.0 0 0 69.08 150.00
  Z"
/>
<path fill="#4f91ff" d="
  M 127.86 141.63
  A 0.10 0.10 0.0 0 1 127.95 141.52
  L 128.01 141.51
  A 5.65 2.42 82.9 0 1 131.11 146.82
  L 131.13 147.04
  A 5.65 2.42 82.9 0 1 129.43 152.95
  L 129.37 152.95
  A 0.10 0.10 0.0 0 1 129.26 152.87
  L 127.86 141.63
  Z"
/>
<path fill="#4f91ff" d="
  M 69.08 150.00
  A 0.12 0.12 0.0 0 1 68.91 150.01
  L 68.87 149.97
  A 3.80 2.74 -47.8 0 1 69.39 145.31
  L 69.53 145.17
  A 3.80 2.74 -47.8 0 1 74.11 144.19
  L 74.15 144.23
  A 0.12 0.12 0.0 0 1 74.16 144.40
  L 69.08 150.00
  Z"
/>
<path fill="#4f91ff" d="
  M 87.85 145.15
  L 87.12 148.13
  Q 87.03 148.51 86.65 148.43
  Q 85.07 148.10 85.77 147.03
  Q 86.50 145.90 87.38 144.90
  Q 88.11 144.08 87.85 145.15
  Z"
/>
<path fill="#0053ff" d="
  M 97.55 156.37
  L 101.04 147.31
  A 0.30 0.30 0.0 0 1 101.61 147.35
  L 103.21 154.97
  A 0.30 0.30 0.0 0 1 103.00 155.32
  L 97.91 156.77
  A 0.30 0.30 0.0 0 1 97.55 156.37
  Z"
/>
<path fill="#0053ff" d="
  M 170.03 150.07
  A 0.24 0.24 0.0 0 1 170.21 149.78
  L 170.82 149.63
  A 8.25 6.49 -13.5 0 1 180.36 154.02
  L 180.41 154.21
  A 8.25 6.49 -13.5 0 1 173.90 162.45
  L 173.29 162.60
  A 0.24 0.24 0.0 0 1 173.00 162.42
  L 170.03 150.07
  Z
  M 174.46 157.48
  A 0.93 0.93 0.0 0 0 176.21 157.65
  L 177.54 154.69
  A 0.93 0.93 0.0 0 0 177.46 153.79
  L 176.74 152.72
  A 0.93 0.93 0.0 0 0 176.10 152.32
  L 174.53 152.10
  A 0.93 0.93 0.0 0 0 173.50 153.22
  L 174.46 157.48
  Z"
/>
<path fill="#4f91ff" d="
  M 174.46 157.48
  L 173.50 153.22
  A 0.93 0.93 0.0 0 1 174.53 152.10
  L 176.10 152.32
  A 0.93 0.93 0.0 0 1 176.74 152.72
  L 177.46 153.79
  A 0.93 0.93 0.0 0 1 177.54 154.69
  L 176.21 157.65
  A 0.93 0.93 0.0 0 1 174.46 157.48
  Z"
/>
</svg>
